<?xml version="1.0" encoding="us-ascii" standalone="no"?><svg xmlns="http://www.w3.org/2000/svg" xmlns:xlink="http://www.w3.org/1999/xlink" contentStyleType="text/css" height="682px" preserveAspectRatio="none" style="width:347px;height:682px;background:#FFFFFF;" version="1.1" viewBox="0 0 347 682" width="347px" zoomAndPan="magnify"><defs/><g><g id="Inactivo"><rect fill="#F1F1F1" height="50" rx="12.5" ry="12.5" style="stroke:#181818;stroke-width:0.5;" width="73" x="126" y="7"/><line style="stroke:#181818;stroke-width:0.5;" x1="126" x2="199" y1="36.0679" y2="36.0679"/><text fill="#000000" font-family="sans-serif" font-size="14" lengthAdjust="spacing" textLength="53" x="136" y="26.9659">Inactivo</text></g><g id="EnCurso"><rect fill="#F1F1F1" height="50" rx="12.5" ry="12.5" style="stroke:#181818;stroke-width:0.5;" width="76" x="124.5" y="626"/><line style="stroke:#181818;stroke-width:0.5;" x1="124.5" x2="200.5" y1="655.0679" y2="655.0679"/><text fill="#000000" font-family="sans-serif" font-size="14" lengthAdjust="spacing" textLength="56" x="134.5" y="645.9659">EnCurso</text></g><path d="M19.5,136 L305,136 A12.5,12.5 0 0 1 317.5,148.5 L317.5,165.0679 L7,165.0679 L7,148.5 A12.5,12.5 0 0 1 19.5,136 " fill="#F1F1F1" style="stroke:#F1F1F1;stroke-width:1.0;"/><rect fill="none" height="411.0679" rx="12.5" ry="12.5" style="stroke:#181818;stroke-width:0.5;" width="310.5" x="7" y="136"/><line style="stroke:#181818;stroke-width:0.5;" x1="7" x2="317.5" y1="165.0679" y2="165.0679"/><text fill="#000000" font-family="sans-serif" font-size="14" lengthAdjust="spacing" textLength="98" x="113.25" y="155.9659">iniciarPartida()</text><ellipse cx="121.5" cy="186.0679" fill="#222222" rx="10" ry="10" style="stroke:#222222;stroke-width:1.0;"/><g id="iniciarPartida.TABLERO_VACIO"><rect fill="#F1F1F1" height="50" rx="12.5" ry="12.5" style="stroke:#181818;stroke-width:0.5;" width="129" x="57" y="233.0679"/><line style="stroke:#181818;stroke-width:0.5;" x1="57" x2="186" y1="262.1358" y2="262.1358"/><text fill="#000000" font-family="sans-serif" font-size="14" lengthAdjust="spacing" textLength="109" x="67" y="253.0339">TABLERO_VACIO</text></g><g id="iniciarPartida.PRIMERA_PIEZA_GENERADA"><rect fill="#F1F1F1" height="50" rx="12.5" ry="12.5" style="stroke:#181818;stroke-width:0.5;" width="205" x="19" y="374.0679"/><line style="stroke:#181818;stroke-width:0.5;" x1="19" x2="224" y1="403.1358" y2="403.1358"/><text fill="#000000" font-family="sans-serif" font-size="14" lengthAdjust="spacing" textLength="185" x="29" y="394.0339">PRIMERA_PIEZA_GENERADA</text></g><ellipse cx="121.5" cy="526.0679" fill="none" rx="11" ry="11" style="stroke:#222222;stroke-width:1.0;"/><ellipse cx="121.5" cy="526.0679" fill="#222222" rx="6" ry="6" style="stroke:#222222;stroke-width:1.0;"/><!--link *start*iniciarPartida to TABLERO_VACIO--><g id="link_*start*iniciarPartida_TABLERO_VACIO"><path d="M121.5,196.2179 C121.5,205.4879 121.5,214.2079 121.5,226.8479 " fill="none" id="*start*iniciarPartida-to-TABLERO_VACIO" style="stroke:#008000;stroke-width:1.0;"/><polygon fill="#008000" points="121.5,232.8479,125.5,223.8479,121.5,227.8479,117.5,223.8479,121.5,232.8479" style="stroke:#008000;stroke-width:1.0;"/></g><!--link TABLERO_VACIO to PRIMERA_PIEZA_GENERADA--><g id="link_TABLERO_VACIO_PRIMERA_PIEZA_GENERADA"><path d="M121.5,283.2779 C121.5,308.6379 121.5,342.2379 121.5,367.6679 " fill="none" id="TABLERO_VACIO-to-PRIMERA_PIEZA_GENERADA" style="stroke:#008000;stroke-width:1.0;"/><polygon fill="#008000" points="121.5,373.6679,125.5,364.6679,121.5,368.6679,117.5,364.6679,121.5,373.6679" style="stroke:#008000;stroke-width:1.0;"/><text fill="#000000" font-family="sans-serif" font-size="13" lengthAdjust="spacing" textLength="113" x="148.5" y="315.9649">Tablero inicializado</text><text fill="#000000" font-family="sans-serif" font-size="13" lengthAdjust="spacing" textLength="165" x="122.5" y="333.6709">(20 l&#237;neas &#215; 10 celdas vac&#237;as)</text><text fill="#000000" font-family="sans-serif" font-size="13" lengthAdjust="spacing" textLength="82" x="164" y="351.377">Puntuaci&#243;n: 0</text></g><!--link PRIMERA_PIEZA_GENERADA to *end*iniciarPartida--><g id="link_PRIMERA_PIEZA_GENERADA_*end*iniciarPartida"><path d="M121.5,424.1679 C121.5,451.6979 121.5,489.4479 121.5,509.0279 " fill="none" id="PRIMERA_PIEZA_GENERADA-to-*end*iniciarPartida" style="stroke:#008000;stroke-width:1.0;"/><polygon fill="#008000" points="121.5,515.0279,125.5,506.0279,121.5,510.0279,117.5,506.0279,121.5,515.0279" style="stroke:#008000;stroke-width:1.0;"/><text fill="#000000" font-family="sans-serif" font-size="13" lengthAdjust="spacing" textLength="141" x="144.5" y="456.9649">Primera pieza generada</text><text fill="#000000" font-family="sans-serif" font-size="13" lengthAdjust="spacing" textLength="88" x="171" y="474.6709">(tipo aleatorio)</text><text fill="#000000" font-family="sans-serif" font-size="13" lengthAdjust="spacing" textLength="185" x="122.5" y="492.377">Posicionada en centro superior</text></g><!--link Inactivo to iniciarPartida--><g id="link_Inactivo_iniciarPartida"><path d="M162.5,57.13 C162.5,76.03 162.5,98.34 162.5,129.87 " fill="none" id="Inactivo-to-iniciarPartida" style="stroke:#008000;stroke-width:1.0;"/><polygon fill="#008000" points="162.5,135.87,166.5,126.87,162.5,130.87,158.5,126.87,162.5,135.87" style="stroke:#008000;stroke-width:1.0;"/><text fill="#000000" font-family="sans-serif" font-size="13" lengthAdjust="spacing" textLength="176" x="163.5" y="101.897">Jugador solicita iniciar partida</text></g><!--link iniciarPartida to EnCurso--><g id="link_iniciarPartida_EnCurso"><path d="M162.5,547.18 C162.5,578.58 162.5,600.78 162.5,619.67 " fill="none" id="iniciarPartida-to-EnCurso" style="stroke:#008000;stroke-width:1.0;"/><polygon fill="#008000" points="162.5,625.67,166.5,616.67,162.5,620.67,158.5,616.67,162.5,625.67" style="stroke:#008000;stroke-width:1.0;"/><text fill="#000000" font-family="sans-serif" font-size="13" lengthAdjust="spacing" textLength="126" x="163.5" y="591.897">Primer turno iniciado</text></g><!--SRC=[TP71IiD048Rl-nH3lRH287hCGOWrI4Hj2CM3RGbZTWaBwspOtVHGyJbyYfvyXBoO6qrAKl3up_pB_ys_rg4Ja1AMJkurixyoeMLZh6Qzb2HBYIP3uoH7G0kpwMY-c7qm1h2vt46mkQYC4BGBRc0Ttpuc-QfuYPVfgZDC1XDhbgTFIHuNMPgyniLzykp5NGmHhF5D2QDx22KFoFMMvjSXgFP8miEqNt0LGYaKzsAFPNj4kzXIrf1hi9JjDqKGTkd_P8mnkWiYo8ny5mQXbkA0K0doWgDFTRBMW4gWqqRgBaHRZwN9hq6GXo3dMMrJ2xytZ7qoDdGB0Hy5dNKQmKDJ-SiCMAtynk7WWFhFmivUZAdx_pgHWsiC3PLnpNu0]--></g></svg>