<?xml version="1.0" encoding="us-ascii" standalone="no"?><svg xmlns="http://www.w3.org/2000/svg" xmlns:xlink="http://www.w3.org/1999/xlink" contentStyleType="text/css" height="682px" preserveAspectRatio="none" style="width:385px;height:682px;background:#FFFFFF;" version="1.1" viewBox="0 0 385 682" width="385px" zoomAndPan="magnify"><defs/><g><g id="EnCurso"><rect fill="#F1F1F1" height="50" rx="12.5" ry="12.5" style="stroke:#181818;stroke-width:0.5;" width="76" x="30" y="7"/><line style="stroke:#181818;stroke-width:0.5;" x1="30" x2="106" y1="36.0679" y2="36.0679"/><text fill="#000000" font-family="sans-serif" font-size="14" lengthAdjust="spacing" textLength="56" x="40" y="26.9659">EnCurso</text></g><g id="Finalizado"><rect fill="#F1F1F1" height="50" rx="12.5" ry="12.5" style="stroke:#181818;stroke-width:0.5;" width="88" x="208" y="7"/><line style="stroke:#181818;stroke-width:0.5;" x1="208" x2="296" y1="36.0679" y2="36.0679"/><text fill="#000000" font-family="sans-serif" font-size="14" lengthAdjust="spacing" textLength="68" x="218" y="26.9659">Finalizado</text></g><g id="EnCurso2"><rect fill="#F1F1F1" height="50" rx="12.5" ry="12.5" style="stroke:#181818;stroke-width:0.5;" width="76" x="122" y="626"/><line style="stroke:#181818;stroke-width:0.5;" x1="122" x2="198" y1="655.0679" y2="655.0679"/><text fill="#000000" font-family="sans-serif" font-size="14" lengthAdjust="spacing" textLength="56" x="132" y="645.9659">EnCurso</text></g><path d="M19.5,136 L300,136 A12.5,12.5 0 0 1 312.5,148.5 L312.5,165.0679 L7,165.0679 L7,148.5 A12.5,12.5 0 0 1 19.5,136 " fill="#F1F1F1" style="stroke:#F1F1F1;stroke-width:1.0;"/><rect fill="none" height="411.0679" rx="12.5" ry="12.5" style="stroke:#181818;stroke-width:0.5;" width="305.5" x="7" y="136"/><line style="stroke:#181818;stroke-width:0.5;" x1="7" x2="312.5" y1="165.0679" y2="165.0679"/><text fill="#000000" font-family="sans-serif" font-size="14" lengthAdjust="spacing" textLength="112" x="103.75" y="155.9659">reiniciarPartida()</text><ellipse cx="116.5" cy="186.0679" fill="#222222" rx="10" ry="10" style="stroke:#222222;stroke-width:1.0;"/><g id="reiniciarPartida.TABLERO_LIMPIO"><rect fill="#F1F1F1" height="50" rx="12.5" ry="12.5" style="stroke:#181818;stroke-width:0.5;" width="136" x="48.5" y="233.0679"/><line style="stroke:#181818;stroke-width:0.5;" x1="48.5" x2="184.5" y1="262.1358" y2="262.1358"/><text fill="#000000" font-family="sans-serif" font-size="14" lengthAdjust="spacing" textLength="116" x="58.5" y="253.0339">TABLERO_LIMPIO</text></g><g id="reiniciarPartida.PIEZA_INICIAL_GENERADA"><rect fill="#F1F1F1" height="50" rx="12.5" ry="12.5" style="stroke:#181818;stroke-width:0.5;" width="195" x="19" y="374.0679"/><line style="stroke:#181818;stroke-width:0.5;" x1="19" x2="214" y1="403.1358" y2="403.1358"/><text fill="#000000" font-family="sans-serif" font-size="14" lengthAdjust="spacing" textLength="175" x="29" y="394.0339">PIEZA_INICIAL_GENERADA</text></g><ellipse cx="116.5" cy="526.0679" fill="none" rx="11" ry="11" style="stroke:#222222;stroke-width:1.0;"/><ellipse cx="116.5" cy="526.0679" fill="#222222" rx="6" ry="6" style="stroke:#222222;stroke-width:1.0;"/><!--link *start*reiniciarPartida to TABLERO_LIMPIO--><g id="link_*start*reiniciarPartida_TABLERO_LIMPIO"><path d="M116.5,196.2179 C116.5,205.4879 116.5,214.2079 116.5,226.8479 " fill="none" id="*start*reiniciarPartida-to-TABLERO_LIMPIO" style="stroke:#008000;stroke-width:1.0;"/><polygon fill="#008000" points="116.5,232.8479,120.5,223.8479,116.5,227.8479,112.5,223.8479,116.5,232.8479" style="stroke:#008000;stroke-width:1.0;"/></g><!--link TABLERO_LIMPIO to PIEZA_INICIAL_GENERADA--><g id="link_TABLERO_LIMPIO_PIEZA_INICIAL_GENERADA"><path d="M116.5,283.2779 C116.5,308.6379 116.5,342.2379 116.5,367.6679 " fill="none" id="TABLERO_LIMPIO-to-PIEZA_INICIAL_GENERADA" style="stroke:#008000;stroke-width:1.0;"/><polygon fill="#008000" points="116.5,373.6679,120.5,364.6679,116.5,368.6679,112.5,364.6679,116.5,373.6679" style="stroke:#008000;stroke-width:1.0;"/><text fill="#000000" font-family="sans-serif" font-size="13" lengthAdjust="spacing" textLength="125" x="117.5" y="315.9649">Tablero reinicializado</text><text fill="#000000" font-family="sans-serif" font-size="13" lengthAdjust="spacing" textLength="121" x="119.5" y="333.6709">(todas celdas vac&#237;as)</text><text fill="#000000" font-family="sans-serif" font-size="13" lengthAdjust="spacing" textLength="82" x="139" y="351.377">Puntuaci&#243;n: 0</text></g><!--link PIEZA_INICIAL_GENERADA to *end*reiniciarPartida--><g id="link_PIEZA_INICIAL_GENERADA_*end*reiniciarPartida"><path d="M116.5,424.1679 C116.5,451.6979 116.5,489.4479 116.5,509.0279 " fill="none" id="PIEZA_INICIAL_GENERADA-to-*end*reiniciarPartida" style="stroke:#008000;stroke-width:1.0;"/><polygon fill="#008000" points="116.5,515.0279,120.5,506.0279,116.5,510.0279,112.5,506.0279,116.5,515.0279" style="stroke:#008000;stroke-width:1.0;"/><text fill="#000000" font-family="sans-serif" font-size="13" lengthAdjust="spacing" textLength="133" x="143.5" y="456.9649">Nueva pieza generada</text><text fill="#000000" font-family="sans-serif" font-size="13" lengthAdjust="spacing" textLength="88" x="166" y="474.6709">(tipo aleatorio)</text><text fill="#000000" font-family="sans-serif" font-size="13" lengthAdjust="spacing" textLength="185" x="117.5" y="492.377">Posicionada en centro superior</text></g><!--link EnCurso to reiniciarPartida--><g id="link_EnCurso_reiniciarPartida"><path d="M64.21,57.21 C62.66,71.53 61.87,89.94 65,106 C66.93,115.92 67.7326,120.143 70.4126,130.183 " fill="none" id="EnCurso-to-reiniciarPartida" style="stroke:#008000;stroke-width:1.0;"/><polygon fill="#008000" points="71.96,135.98,73.5036,126.2529,70.6705,131.1491,65.7742,128.3161,71.96,135.98" style="stroke:#008000;stroke-width:1.0;"/><text fill="#000000" font-family="sans-serif" font-size="13" lengthAdjust="spacing" textLength="142" x="66" y="101.897">Jugador solicita reiniciar</text></g><!--link Finalizado to reiniciarPartida--><g id="link_Finalizado_reiniciarPartida"><path d="M244.78,57.13 C239.13,76.03 232.3809,98.5921 222.9409,130.1221 " fill="none" id="Finalizado-to-reiniciarPartida" style="stroke:#008000;stroke-width:1.0;"/><polygon fill="#008000" points="221.22,135.87,227.6333,128.3954,222.6541,131.0801,219.9694,126.1009,221.22,135.87" style="stroke:#008000;stroke-width:1.0;"/><text fill="#000000" font-family="sans-serif" font-size="13" lengthAdjust="spacing" textLength="142" x="235" y="101.897">Jugador solicita reiniciar</text></g><!--link reiniciarPartida to EnCurso2--><g id="link_reiniciarPartida_EnCurso2"><path d="M160,547.18 C160,578.58 160,600.78 160,619.67 " fill="none" id="reiniciarPartida-to-EnCurso2" style="stroke:#008000;stroke-width:1.0;"/><polygon fill="#008000" points="160,625.67,164,616.67,160,620.67,156,616.67,160,625.67" style="stroke:#008000;stroke-width:1.0;"/><text fill="#000000" font-family="sans-serif" font-size="13" lengthAdjust="spacing" textLength="136" x="161" y="591.897">Nuevo turno 1 iniciado</text></g><!--SRC=[fL9DIyD04BtlhnZgfHK2wZ478TOeaPY6qfDj2MCob8Km6_QZXue_oPC_eN_CJHlRjCMJfsNclPttviDOj0GnZvqsIfXTz2GPQxd1wZVHmNU01WPTC10Tg4coB2Ng7BML5Uv8vydXQF0X1C3yUWd1_6gbYNWPtCCiUaZZwQH8azSycRICqym9EK_YjwX8icISH6dn76VnD7gC88GPljUarS7Atlo2XrPLtar9TVkiiTn-eHajE7Ti7PPo-yqXtBIgVvJkgxVMGyWShH4QIHk45J5fhB0Laeq2h0cjqbAr4ifu9uez3CJU0bjlqBY6FAw5-1IY6oG4LK_bOfeXlBYLxqQ3KRL7B1uvuhYf_rIvOFVRFkn-txi2wpGhk8Nz7tyZFm00]--></g></svg>