<?xml version="1.0" encoding="us-ascii" standalone="no"?><svg xmlns="http://www.w3.org/2000/svg" xmlns:xlink="http://www.w3.org/1999/xlink" contentStyleType="text/css" height="651px" preserveAspectRatio="none" style="width:901px;height:651px;background:#FFFFFF;" version="1.1" viewBox="0 0 901 651" width="901px" zoomAndPan="magnify"><defs/><g><g id="EnCurso"><rect fill="#F1F1F1" height="50" rx="12.5" ry="12.5" style="stroke:#181818;stroke-width:0.5;" width="76" x="307.5" y="7"/><line style="stroke:#181818;stroke-width:0.5;" x1="307.5" x2="383.5" y1="36.0679" y2="36.0679"/><text fill="#000000" font-family="sans-serif" font-size="14" lengthAdjust="spacing" textLength="56" x="317.5" y="26.9659">EnCurso</text></g><g id="EnCurso2"><rect fill="#F1F1F1" height="50" rx="12.5" ry="12.5" style="stroke:#181818;stroke-width:0.5;" width="76" x="307.5" y="595"/><line style="stroke:#181818;stroke-width:0.5;" x1="307.5" x2="383.5" y1="624.0679" y2="624.0679"/><text fill="#000000" font-family="sans-serif" font-size="14" lengthAdjust="spacing" textLength="56" x="317.5" y="614.9659">EnCurso</text></g><path d="M19.5,117 L671.5,117 A12.5,12.5 0 0 1 684,129.5 L684,146.0679 L7,146.0679 L7,129.5 A12.5,12.5 0 0 1 19.5,117 " fill="#F1F1F1" style="stroke:#F1F1F1;stroke-width:1.0;"/><rect fill="none" height="418.0679" rx="12.5" ry="12.5" style="stroke:#181818;stroke-width:0.5;" width="677" x="7" y="117"/><line style="stroke:#181818;stroke-width:0.5;" x1="7" x2="684" y1="146.0679" y2="146.0679"/><text fill="#000000" font-family="sans-serif" font-size="14" lengthAdjust="spacing" textLength="147" x="272" y="136.9659">moverPieza(direcci&#243;n)</text><ellipse cx="208" cy="167.0679" fill="#222222" rx="10" ry="10" style="stroke:#222222;stroke-width:1.0;"/><g id="moverPieza.VALIDANDO"><rect fill="#F1F1F1" height="50" rx="12.5" ry="12.5" style="stroke:#181818;stroke-width:0.5;" width="100" x="158" y="214.0679"/><line style="stroke:#181818;stroke-width:0.5;" x1="158" x2="258" y1="243.1358" y2="243.1358"/><text fill="#000000" font-family="sans-serif" font-size="14" lengthAdjust="spacing" textLength="80" x="168" y="234.0339">VALIDANDO</text></g><g id="elem_c"><polygon fill="#F1F1F1" points="208,337.0679,220,349.0679,208,361.0679,196,349.0679,208,337.0679" style="stroke:#181818;stroke-width:0.5;"/></g><g id="moverPieza.PIEZA_MOVIDA"><rect fill="#F1F1F1" height="50" rx="12.5" ry="12.5" style="stroke:#181818;stroke-width:0.5;" width="120" x="19" y="416.0679"/><line style="stroke:#181818;stroke-width:0.5;" x1="19" x2="139" y1="445.1358" y2="445.1358"/><text fill="#000000" font-family="sans-serif" font-size="14" lengthAdjust="spacing" textLength="100" x="29" y="436.0339">PIEZA_MOVIDA</text></g><g id="moverPieza.MOVIMIENTO_RECHAZADO"><rect fill="#F1F1F1" height="50" rx="12.5" ry="12.5" style="stroke:#181818;stroke-width:0.5;" width="202" x="236" y="416.0679"/><line style="stroke:#181818;stroke-width:0.5;" x1="236" x2="438" y1="445.1358" y2="445.1358"/><text fill="#000000" font-family="sans-serif" font-size="14" lengthAdjust="spacing" textLength="182" x="246" y="436.0339">MOVIMIENTO_RECHAZADO</text></g><ellipse cx="207" cy="514.0679" fill="none" rx="11" ry="11" style="stroke:#222222;stroke-width:1.0;"/><ellipse cx="207" cy="514.0679" fill="#222222" rx="6" ry="6" style="stroke:#222222;stroke-width:1.0;"/><!--link *start*moverPieza to VALIDANDO--><g id="link_*start*moverPieza_VALIDANDO"><path d="M208,177.2179 C208,186.4879 208,195.2079 208,207.8479 " fill="none" id="*start*moverPieza-to-VALIDANDO" style="stroke:#008000;stroke-width:1.0;"/><polygon fill="#008000" points="208,213.8479,212,204.8479,208,208.8479,204,204.8479,208,213.8479" style="stroke:#008000;stroke-width:1.0;"/></g><!--link VALIDANDO to c--><g id="link_VALIDANDO_c"><path d="M208,264.3079 C208,286.9379 208,313.7279 208,330.7879 " fill="none" id="VALIDANDO-to-c" style="stroke:#008000;stroke-width:1.0;"/><polygon fill="#008000" points="208,336.7879,212,327.7879,208,331.7879,204,327.7879,208,336.7879" style="stroke:#008000;stroke-width:1.0;"/><text fill="#000000" font-family="sans-serif" font-size="13" lengthAdjust="spacing" textLength="134" x="249" y="296.9649">Jugador solicita mover</text><text fill="#000000" font-family="sans-serif" font-size="13" lengthAdjust="spacing" textLength="214" x="209" y="314.6709">(direcci&#243;n: izquierda/derecha/abajo)</text></g><!--link c to PIEZA_MOVIDA--><g id="link_c_PIEZA_MOVIDA"><path d="M197.09,350.2079 C163.12,350.8879 60.31,354.9579 40,379.0679 C30.45,390.4179 33.887,399.8801 44.787,411.5101 " fill="none" id="c-to-PIEZA_MOVIDA" style="stroke:#008000;stroke-width:1.0;"/><polygon fill="#008000" points="48.89,415.8879,45.654,406.5859,45.4708,412.2397,39.8169,412.0565,48.89,415.8879" style="stroke:#008000;stroke-width:1.0;"/><text fill="#000000" font-family="sans-serif" font-size="13" lengthAdjust="spacing" textLength="313" x="41" y="393.9649">[movimiento v&#225;lido] / Pieza movida a nueva posici&#243;n</text></g><!--link c to MOVIMIENTO_RECHAZADO--><g id="link_c_MOVIMIENTO_RECHAZADO"><path d="M218.85,350.4979 C249.85,351.9679 337.66,357.9679 355,379.0679 C363.55,389.4779 362.5989,398.4744 356.3889,410.6344 " fill="none" id="c-to-MOVIMIENTO_RECHAZADO" style="stroke:#FFA500;stroke-width:1.0;"/><polygon fill="#FFA500" points="353.66,415.9779,361.3157,409.7819,355.9341,411.525,354.191,406.1434,353.66,415.9779" style="stroke:#FFA500;stroke-width:1.0;"/><text fill="#000000" font-family="sans-serif" font-size="13" lengthAdjust="spacing" textLength="313" x="361" y="393.9649">[fuera de l&#237;mites o colisi&#243;n] / Pieza mantiene posici&#243;n</text></g><!--link PIEZA_MOVIDA to *end*moverPieza--><g id="link_PIEZA_MOVIDA_*end*moverPieza"><path d="M122.33,466.1079 C149.46,481.1479 176.8816,496.3703 192.5316,505.0403 " fill="none" id="PIEZA_MOVIDA-to-*end*moverPieza" style="stroke:#008000;stroke-width:1.0;"/><polygon fill="#008000" points="197.78,507.9479,191.8458,500.0876,193.4063,505.5249,187.969,507.0855,197.78,507.9479" style="stroke:#008000;stroke-width:1.0;"/></g><!--link MOVIMIENTO_RECHAZADO to *end*moverPieza--><g id="link_MOVIMIENTO_RECHAZADO_*end*moverPieza"><path d="M292.99,466.1079 C265.44,481.1479 237.527,496.4041 221.637,505.0741 " fill="none" id="MOVIMIENTO_RECHAZADO-to-*end*moverPieza" style="stroke:#FFA500;stroke-width:1.0;"/><polygon fill="#FFA500" points="216.37,507.9479,226.1864,507.1485,220.7592,505.5531,222.3546,500.1259,216.37,507.9479" style="stroke:#FFA500;stroke-width:1.0;"/></g><g id="elem_GMN17"><path d="M718.5,312 L718.5,322 L684.05,326 L718.5,330 L718.5,339.706 A0,0 0 0 0 718.5,339.706 L894.5,339.706 A0,0 0 0 0 894.5,339.706 L894.5,322 L884.5,312 L718.5,312 A0,0 0 0 0 718.5,312 " fill="#FEFFDD" style="stroke:#181818;stroke-width:0.5;"/><path d="M884.5,312 L884.5,322 L894.5,322 L884.5,312 " fill="#FEFFDD" style="stroke:#181818;stroke-width:0.5;"/><text fill="#000000" font-family="sans-serif" font-size="13" font-weight="bold" lengthAdjust="spacing" textLength="32" x="724.5" y="330.897">Tipo:</text><text fill="#000000" font-family="sans-serif" font-size="13" lengthAdjust="spacing" textLength="120" x="759.5" y="330.897">MovimientoDirigido</text></g><!--link EnCurso to moverPieza--><g id="link_EnCurso_moverPieza"><path d="M345.5,57.39 C345.5,72.4 345.5,87.23 345.5,110.71 " fill="none" id="EnCurso-to-moverPieza" style="stroke:#008000;stroke-width:1.0;"/><polygon fill="#008000" points="345.5,116.71,349.5,107.71,345.5,111.71,341.5,107.71,345.5,116.71" style="stroke:#008000;stroke-width:1.0;"/></g><!--link moverPieza to EnCurso2--><g id="link_moverPieza_EnCurso2"><path d="M345.5,535.32 C345.5,558.92 345.5,573.84 345.5,588.86 " fill="none" id="moverPieza-to-EnCurso2" style="stroke:#008000;stroke-width:1.0;"/><polygon fill="#008000" points="345.5,594.86,349.5,585.86,345.5,589.86,341.5,585.86,345.5,594.86" style="stroke:#008000;stroke-width:1.0;"/></g><!--SRC=[RPBDQW8n4CVlUOh1Nkg223sA24jTgAL-KCI3LYHDndMA9ZRPzM3fm_G1UkeZ-6AT-DKiz3YPcT__FvFnXImGCdDVEc-5ZwCxa1vgvw0cpicDtQ4R4UxbCVqNtcfog1GTVaozzY44m2oPGsDsapj4CszqO98-zRhfe3iCoHDDGRkjLfOKTZhXzLfIQLJGWiSobzewy7PDYWfvCl9Y8jaMqFwz97HQDZNowqesvQjyi_M0LXNag9TDqqL_E64vfi-OHXj2KrZO7RxMfEqScd2QC-GqZmkcn9s4hVLqrBj0hPCcnq0Dl7ul6uo7Y-Vi_Y6TfZm9qvSbEWaQONtutb217Yme7iG7J2GaJS4UC99WZOhLU0RUBwV_rQou2dNYKmXZUUEEybK1TXbz94EIP4nRsqeIw5yNqIMkvKK8D1f2hn3dOu26Zcn4eEWuOgENWnA_]--></g></svg>