<?xml version="1.0" encoding="us-ascii" standalone="no"?><svg xmlns="http://www.w3.org/2000/svg" xmlns:xlink="http://www.w3.org/1999/xlink" contentStyleType="text/css" height="651px" preserveAspectRatio="none" style="width:823px;height:651px;background:#FFFFFF;" version="1.1" viewBox="0 0 823 651" width="823px" zoomAndPan="magnify"><defs/><g><g id="EnCurso"><rect fill="#F1F1F1" height="50" rx="12.5" ry="12.5" style="stroke:#181818;stroke-width:0.5;" width="76" x="268" y="7"/><line style="stroke:#181818;stroke-width:0.5;" x1="268" x2="344" y1="36.0679" y2="36.0679"/><text fill="#000000" font-family="sans-serif" font-size="14" lengthAdjust="spacing" textLength="56" x="278" y="26.9659">EnCurso</text></g><g id="EnCurso2"><rect fill="#F1F1F1" height="50" rx="12.5" ry="12.5" style="stroke:#181818;stroke-width:0.5;" width="76" x="268" y="595"/><line style="stroke:#181818;stroke-width:0.5;" x1="268" x2="344" y1="624.0679" y2="624.0679"/><text fill="#000000" font-family="sans-serif" font-size="14" lengthAdjust="spacing" textLength="56" x="278" y="614.9659">EnCurso</text></g><path d="M19.5,117 L592.5,117 A12.5,12.5 0 0 1 605,129.5 L605,146.0679 L7,146.0679 L7,129.5 A12.5,12.5 0 0 1 19.5,117 " fill="#F1F1F1" style="stroke:#F1F1F1;stroke-width:1.0;"/><rect fill="none" height="418.0679" rx="12.5" ry="12.5" style="stroke:#181818;stroke-width:0.5;" width="598" x="7" y="117"/><line style="stroke:#181818;stroke-width:0.5;" x1="7" x2="605" y1="146.0679" y2="146.0679"/><text fill="#000000" font-family="sans-serif" font-size="14" lengthAdjust="spacing" textLength="76" x="268" y="136.9659">rotarPieza()</text><ellipse cx="173" cy="167.0679" fill="#222222" rx="10" ry="10" style="stroke:#222222;stroke-width:1.0;"/><g id="rotarPieza.CALCULANDO_ROTACION"><rect fill="#F1F1F1" height="50" rx="12.5" ry="12.5" style="stroke:#181818;stroke-width:0.5;" width="191" x="77.5" y="214.0679"/><line style="stroke:#181818;stroke-width:0.5;" x1="77.5" x2="268.5" y1="243.1358" y2="243.1358"/><text fill="#000000" font-family="sans-serif" font-size="14" lengthAdjust="spacing" textLength="171" x="87.5" y="234.0339">CALCULANDO_ROTACION</text></g><g id="elem_c"><polygon fill="#F1F1F1" points="173,337.0679,185,349.0679,173,361.0679,161,349.0679,173,337.0679" style="stroke:#181818;stroke-width:0.5;"/></g><g id="rotarPieza.PIEZA_ROTADA"><rect fill="#F1F1F1" height="50" rx="12.5" ry="12.5" style="stroke:#181818;stroke-width:0.5;" width="120" x="19" y="416.0679"/><line style="stroke:#181818;stroke-width:0.5;" x1="19" x2="139" y1="445.1358" y2="445.1358"/><text fill="#000000" font-family="sans-serif" font-size="14" lengthAdjust="spacing" textLength="100" x="29" y="436.0339">PIEZA_ROTADA</text></g><g id="rotarPieza.ROTACION_RECHAZADA"><rect fill="#F1F1F1" height="50" rx="12.5" ry="12.5" style="stroke:#181818;stroke-width:0.5;" width="180" x="176" y="416.0679"/><line style="stroke:#181818;stroke-width:0.5;" x1="176" x2="356" y1="445.1358" y2="445.1358"/><text fill="#000000" font-family="sans-serif" font-size="14" lengthAdjust="spacing" textLength="160" x="186" y="436.0339">ROTACION_RECHAZADA</text></g><ellipse cx="172" cy="514.0679" fill="none" rx="11" ry="11" style="stroke:#222222;stroke-width:1.0;"/><ellipse cx="172" cy="514.0679" fill="#222222" rx="6" ry="6" style="stroke:#222222;stroke-width:1.0;"/><!--link *start*rotarPieza to CALCULANDO_ROTACION--><g id="link_*start*rotarPieza_CALCULANDO_ROTACION"><path d="M173,177.2179 C173,186.4879 173,195.2079 173,207.8479 " fill="none" id="*start*rotarPieza-to-CALCULANDO_ROTACION" style="stroke:#008000;stroke-width:1.0;"/><polygon fill="#008000" points="173,213.8479,177,204.8479,173,208.8479,169,204.8479,173,213.8479" style="stroke:#008000;stroke-width:1.0;"/></g><!--link CALCULANDO_ROTACION to c--><g id="link_CALCULANDO_ROTACION_c"><path d="M173,264.3079 C173,286.9379 173,313.7279 173,330.7879 " fill="none" id="CALCULANDO_ROTACION-to-c" style="stroke:#008000;stroke-width:1.0;"/><polygon fill="#008000" points="173,336.7879,177,327.7879,173,331.7879,169,327.7879,173,336.7879" style="stroke:#008000;stroke-width:1.0;"/><text fill="#000000" font-family="sans-serif" font-size="13" lengthAdjust="spacing" textLength="304" x="174" y="296.9649">Jugador solicita rotar / Nueva orientaci&#243;n calculada</text><text fill="#000000" font-family="sans-serif" font-size="13" lengthAdjust="spacing" textLength="127" x="262.5" y="314.6709">(rotaci&#243;n 90&#176; horaria)</text></g><!--link c to PIEZA_ROTADA--><g id="link_c_PIEZA_ROTADA"><path d="M163.12,351.2579 C139.11,354.3679 78.81,363.5979 67,379.0679 C59.01,389.5379 59.2154,398.2743 63.8654,410.4243 " fill="none" id="c-to-PIEZA_ROTADA" style="stroke:#008000;stroke-width:1.0;"/><polygon fill="#008000" points="66.01,416.0279,66.5289,406.1927,64.2228,411.3582,59.0573,409.0522,66.01,416.0279" style="stroke:#008000;stroke-width:1.0;"/><text fill="#000000" font-family="sans-serif" font-size="13" lengthAdjust="spacing" textLength="181" x="68" y="393.9649">[rotaci&#243;n v&#225;lida] / Pieza rotada</text></g><!--link c to ROTACION_RECHAZADA--><g id="link_c_ROTACION_RECHAZADA"><path d="M183.51,350.6379 C200.96,352.1779 235.78,357.8979 254,379.0679 C262.66,389.1279 265.3377,397.6235 266.2277,409.9435 " fill="none" id="c-to-ROTACION_RECHAZADA" style="stroke:#FFA500;stroke-width:1.0;"/><polygon fill="#FFA500" points="266.66,415.9279,270.0011,406.6631,266.2997,410.9409,262.0219,407.2395,266.66,415.9279" style="stroke:#FFA500;stroke-width:1.0;"/><text fill="#000000" font-family="sans-serif" font-size="13" lengthAdjust="spacing" textLength="331" x="264" y="393.9649">[fuera de l&#237;mites o colisi&#243;n] / Pieza mantiene orientaci&#243;n</text></g><!--link PIEZA_ROTADA to *end*rotarPieza--><g id="link_PIEZA_ROTADA_*end*rotarPieza"><path d="M110.49,466.1079 C129.25,480.4279 146.8924,493.8951 158.8024,502.9951 " fill="none" id="PIEZA_ROTADA-to-*end*rotarPieza" style="stroke:#008000;stroke-width:1.0;"/><polygon fill="#008000" points="163.57,506.6379,158.8471,497.9953,159.597,503.6023,153.9901,504.3522,163.57,506.6379" style="stroke:#008000;stroke-width:1.0;"/></g><!--link ROTACION_RECHAZADA to *end*rotarPieza--><g id="link_ROTACION_RECHAZADA_*end*rotarPieza"><path d="M234.18,466.1079 C215.21,480.4279 197.3466,493.9201 185.3066,503.0201 " fill="none" id="ROTACION_RECHAZADA-to-*end*rotarPieza" style="stroke:#FFA500;stroke-width:1.0;"/><polygon fill="#FFA500" points="180.52,506.6379,190.1118,504.4023,184.5088,503.6231,185.2881,498.0202,180.52,506.6379" style="stroke:#FFA500;stroke-width:1.0;"/></g><g id="elem_GMN17"><path d="M640,312 L640,322 L605.19,326 L640,330 L640,339.706 A0,0 0 0 0 640,339.706 L816,339.706 A0,0 0 0 0 816,339.706 L816,322 L806,312 L640,312 A0,0 0 0 0 640,312 " fill="#FEFFDD" style="stroke:#181818;stroke-width:0.5;"/><path d="M806,312 L806,322 L816,322 L806,312 " fill="#FEFFDD" style="stroke:#181818;stroke-width:0.5;"/><text fill="#000000" font-family="sans-serif" font-size="13" font-weight="bold" lengthAdjust="spacing" textLength="32" x="646" y="330.897">Tipo:</text><text fill="#000000" font-family="sans-serif" font-size="13" lengthAdjust="spacing" textLength="120" x="681" y="330.897">MovimientoDirigido</text></g><!--link EnCurso to rotarPieza--><g id="link_EnCurso_rotarPieza"><path d="M306,57.39 C306,72.4 306,87.23 306,110.71 " fill="none" id="EnCurso-to-rotarPieza" style="stroke:#008000;stroke-width:1.0;"/><polygon fill="#008000" points="306,116.71,310,107.71,306,111.71,302,107.71,306,116.71" style="stroke:#008000;stroke-width:1.0;"/></g><!--link rotarPieza to EnCurso2--><g id="link_rotarPieza_EnCurso2"><path d="M306,535.32 C306,558.92 306,573.84 306,588.86 " fill="none" id="rotarPieza-to-EnCurso2" style="stroke:#008000;stroke-width:1.0;"/><polygon fill="#008000" points="306,594.86,310,585.86,306,589.86,302,585.86,306,594.86" style="stroke:#008000;stroke-width:1.0;"/></g><!--SRC=[RPB1QW8n48RlUOh1NdH1MdghYB2iGYrMHUp5hSYGn3MmPaesww6b3zC7A1Jw1lN5chWhPi7ZPFvy_p_951QjX95EIbCGAyBg7h20LbsqMDqqPD7CbNp7K_jIjZkj3yO0qcWDtVGcCrBgTNS0IJn9NYRnT3ZRB6RBE1dFfbvMqJZq-tn7Yil1m9zU4JTW77hmL6Oeo411kUBAOXK9Rc5QoWC26IMrHQwElneuvhpCKU2hRdjPTVfmz_S3Ep9e57QyBM-OpCUZLNpo7yREBxrSF1o_SYLmxSog9_0jWMU28-fCUiGv_6OnIXxZLGtQbj8W20dvyNklh2o0WBif2W-_GFUehPj1DaRnCHl1miJkpLtxYcaZb5UnJyOq-NzKsSu2ROCFTOWeMgetwaKHFDD1xRqz3PNJAa5CQW7-BcFrKa1N1242KB0aOSppOh5_]--></g></svg>