<?xml version="1.0" encoding="us-ascii" standalone="no"?><svg xmlns="http://www.w3.org/2000/svg" xmlns:xlink="http://www.w3.org/1999/xlink" contentStyleType="text/css" height="905px" preserveAspectRatio="none" style="width:642px;height:905px;background:#FFFFFF;" version="1.1" viewBox="0 0 642 905" width="642px" zoomAndPan="magnify"><defs/><g><!--cluster acelerarCaida--><g id="cluster_acelerarCaida"><path d="M54.5,112 L422.5,112 A12.5,12.5 0 0 1 435,124.5 L435,136.0679 L42,136.0679 L42,124.5 A12.5,12.5 0 0 1 54.5,112 " fill="#F1F1F1" style="stroke:#F1F1F1;stroke-width:1.0;"/><rect fill="none" height="581" rx="12.5" ry="12.5" style="stroke:#181818;stroke-width:0.5;" width="393" x="42" y="112"/><line style="stroke:#181818;stroke-width:0.5;" x1="42" x2="435" y1="136.0679" y2="136.0679"/><text fill="#000000" font-family="sans-serif" font-size="14" lengthAdjust="spacing" textLength="101" x="188" y="130.9659">acelerarCaida()</text></g><ellipse cx="139" cy="168" fill="#222222" rx="10" ry="10" style="stroke:#222222;stroke-width:1.0;"/><g id="acelerarCaida.DESCENDIENDO"><rect fill="#F1F1F1" height="50" rx="12.5" ry="12.5" style="stroke:#181818;stroke-width:0.5;" width="129" x="74.5" y="243"/><line style="stroke:#181818;stroke-width:0.5;" x1="74.5" x2="203.5" y1="272.0679" y2="272.0679"/><text fill="#000000" font-family="sans-serif" font-size="14" lengthAdjust="spacing" textLength="109" x="84.5" y="262.9659">DESCENDIENDO</text></g><g id="acelerarCaida.PIEZA_FIJADA"><rect fill="#F1F1F1" height="50" rx="12.5" ry="12.5" style="stroke:#181818;stroke-width:0.5;" width="108" x="74" y="379.5"/><line style="stroke:#181818;stroke-width:0.5;" x1="74" x2="182" y1="408.5679" y2="408.5679"/><text fill="#000000" font-family="sans-serif" font-size="14" lengthAdjust="spacing" textLength="88" x="84" y="399.4659">PIEZA_FIJADA</text></g><g id="acelerarCaida.NUEVA_PIEZA_GENERADA"><rect fill="#F1F1F1" height="50" rx="12.5" ry="12.5" style="stroke:#181818;stroke-width:0.5;" width="190" x="74" y="534"/><line style="stroke:#181818;stroke-width:0.5;" x1="74" x2="264" y1="563.0679" y2="563.0679"/><text fill="#000000" font-family="sans-serif" font-size="14" lengthAdjust="spacing" textLength="170" x="84" y="553.9659">NUEVA_PIEZA_GENERADA</text></g><g id="elem_c"><polygon fill="#F1F1F1" points="169,645,181,657,169,669,157,657,169,645" style="stroke:#181818;stroke-width:0.5;"/></g><g id="EnCurso"><rect fill="#F1F1F1" height="50" rx="12.5" ry="12.5" style="stroke:#181818;stroke-width:0.5;" width="76" x="12" y="7"/><line style="stroke:#181818;stroke-width:0.5;" x1="12" x2="88" y1="36.0679" y2="36.0679"/><text fill="#000000" font-family="sans-serif" font-size="14" lengthAdjust="spacing" textLength="56" x="22" y="26.9659">EnCurso</text></g><g id="EnCurso2"><rect fill="#F1F1F1" height="50" rx="12.5" ry="12.5" style="stroke:#181818;stroke-width:0.5;" width="76" x="7" y="766"/><line style="stroke:#181818;stroke-width:0.5;" x1="7" x2="83" y1="795.0679" y2="795.0679"/><text fill="#000000" font-family="sans-serif" font-size="14" lengthAdjust="spacing" textLength="56" x="17" y="785.9659">EnCurso</text></g><g id="elem_GMN16"><path d="M459,154 L459,181.706 L635,181.706 L635,164 L625,154 L459,154 " fill="#FEFFDD" style="stroke:#181818;stroke-width:0.5;"/><path d="M625,154 L625,164 L635,164 L625,154 " fill="#FEFFDD" style="stroke:#181818;stroke-width:1.0;"/><text fill="#000000" font-family="sans-serif" font-size="13" font-weight="bold" lengthAdjust="spacing" textLength="32" x="465" y="172.897">Tipo:</text><text fill="#000000" font-family="sans-serif" font-size="13" lengthAdjust="spacing" textLength="120" x="500" y="172.897">MovimientoDirigido</text></g><g id="Finalizado"><rect fill="#F1F1F1" height="50" rx="12.5" ry="12.5" style="stroke:#181818;stroke-width:0.5;" width="88" x="250" y="766"/><line style="stroke:#181818;stroke-width:0.5;" x1="250" x2="338" y1="795.0679" y2="795.0679"/><text fill="#000000" font-family="sans-serif" font-size="14" lengthAdjust="spacing" textLength="68" x="260" y="785.9659">Finalizado</text></g><ellipse cx="294" cy="888" fill="none" rx="11" ry="11" style="stroke:#222222;stroke-width:1.0;"/><ellipse cx="294" cy="888" fill="#222222" rx="6" ry="6" style="stroke:#222222;stroke-width:1.0;"/><!--link *start*acelerarCaida to DESCENDIENDO--><g id="link_*start*acelerarCaida_DESCENDIENDO"><path d="M139,178.04 C139,192.64 139,215.87 139,236.84 " fill="none" id="*start*acelerarCaida-to-DESCENDIENDO" style="stroke:#008000;stroke-width:1.0;"/><polygon fill="#008000" points="139,242.84,143,233.84,139,237.84,135,233.84,139,242.84" style="stroke:#008000;stroke-width:1.0;"/></g><!--link DESCENDIENDO to DESCENDIENDO--><g id="link_DESCENDIENDO_DESCENDIENDO"><path d="M203.6,257.89 C223.19,258.14 238.5,261.51 238.5,268 C238.5,274.49 229.1895,277.7834 209.5995,278.0334 " fill="none" id="DESCENDIENDO-to-DESCENDIENDO" style="stroke:#008000;stroke-width:1.0;"/><polygon fill="#008000" points="203.6,278.11,212.6503,281.9948,208.5996,278.0462,212.5482,273.9955,203.6,278.11" style="stroke:#008000;stroke-width:1.0;"/><text fill="#000000" font-family="sans-serif" font-size="13" lengthAdjust="spacing" textLength="154" x="244.5" y="273.397">Pieza desciende una celda</text></g><!--link DESCENDIENDO to PIEZA_FIJADA--><g id="link_DESCENDIENDO_PIEZA_FIJADA"><path d="M137.03,293.05 C135.04,317.38 132.4673,348.8098 130.4773,373.2298 " fill="none" id="DESCENDIENDO-to-PIEZA_FIJADA" style="stroke:#008000;stroke-width:1.0;"/><polygon fill="#008000" points="129.99,379.21,134.7078,370.5646,130.3961,374.2265,126.7342,369.9148,129.99,379.21" style="stroke:#008000;stroke-width:1.0;"/><text fill="#000000" font-family="sans-serif" font-size="13" lengthAdjust="spacing" textLength="194" x="135" y="337.897">[colisi&#243;n] / Pieza fijada en tablero</text></g><!--link PIEZA_FIJADA to PIEZA_FIJADA--><g id="link_PIEZA_FIJADA_PIEZA_FIJADA"><path d="M182.32,391.01 C201.46,390.79 217,395.29 217,404.5 C217,413.71 207.4596,418.279 188.3196,418.059 " fill="none" id="PIEZA_FIJADA-to-PIEZA_FIJADA" style="stroke:#008000;stroke-width:1.0;"/><polygon fill="#008000" points="182.32,417.99,191.2734,422.0932,187.3197,418.0475,191.3654,414.0937,182.32,417.99" style="stroke:#008000;stroke-width:1.0;"/><text fill="#000000" font-family="sans-serif" font-size="13" lengthAdjust="spacing" textLength="199" x="223" y="391.897">[l&#237;nea completa] / L&#237;nea eliminada</text><text fill="#000000" font-family="sans-serif" font-size="13" lengthAdjust="spacing" textLength="180" x="232.5" y="409.603">L&#237;neas superiores desplazadas</text><text fill="#000000" font-family="sans-serif" font-size="13" lengthAdjust="spacing" textLength="139" x="253" y="427.309">Puntuaci&#243;n actualizada</text></g><!--link PIEZA_FIJADA to NUEVA_PIEZA_GENERADA--><g id="link_PIEZA_FIJADA_NUEVA_PIEZA_GENERADA"><path d="M134.5,429.66 C142.17,458.22 153.3131,499.6455 160.9731,528.1555 " fill="none" id="PIEZA_FIJADA-to-NUEVA_PIEZA_GENERADA" style="stroke:#008000;stroke-width:1.0;"/><polygon fill="#008000" points="162.53,533.95,164.0577,524.2204,161.2326,529.1213,156.3317,526.2962,162.53,533.95" style="stroke:#008000;stroke-width:1.0;"/><text fill="#000000" font-family="sans-serif" font-size="13" lengthAdjust="spacing" textLength="133" x="197" y="481.897">Nueva pieza generada</text><text fill="#000000" font-family="sans-serif" font-size="13" lengthAdjust="spacing" textLength="219" x="154" y="499.603">Pieza posicionada en centro superior</text></g><!--link NUEVA_PIEZA_GENERADA to c--><g id="link_NUEVA_PIEZA_GENERADA_c"><path d="M169,584.22 C169,603.67 169,624.07 169,638.83 " fill="none" id="NUEVA_PIEZA_GENERADA-to-c" style="stroke:#008000;stroke-width:1.0;"/><polygon fill="#008000" points="169,644.83,173,635.83,169,639.83,165,635.83,169,644.83" style="stroke:#008000;stroke-width:1.0;"/></g><!--link acelerarCaida to GMN16--><g id="link_acelerarCaida_GMN16"><path d="M50.7679,111.752 C50.8387,111.444 50.911,111.1364 50.9848,110.8294 C52.167,105.9172 53.7538,101.1487 55.8544,96.7462 C60.0556,87.9413 66.3125,80.6 75.5,76.5 C109.39,61.38 373.98,65.76 409.5,76.5 C460,91.77 508.94,132.36 532.47,153.98 " fill="none" id="acelerarCaida-GMN16" style="stroke:#181818;stroke-width:1.0;stroke-dasharray:7.0,7.0;"/></g><!--link c to EnCurso2--><g id="link_c_EnCurso2"><path d="M159.08,659.09 C134.12,662.43 68.81,674.99 42,717 C32.86,731.33 32.8457,744.7947 36.1157,759.9647 " fill="none" id="c-to-EnCurso2" style="stroke:#008000;stroke-width:1.0;"/><polygon fill="#008000" points="37.38,765.83,39.3937,756.1892,36.3264,760.9423,31.5734,757.8749,37.38,765.83" style="stroke:#008000;stroke-width:1.0;"/><text fill="#000000" font-family="sans-serif" font-size="13" lengthAdjust="spacing" textLength="207" x="43" y="731.897">[pieza cabe] / Nuevo turno iniciado</text></g><!--link c to Finalizado--><g id="link_c_Finalizado"><path d="M176.56,661.6 C192.72,669.6 231.09,690.29 255,717 C267.84,731.35 275.4946,745.1921 282.1946,760.3521 " fill="none" id="c-to-Finalizado" style="stroke:#FF0000;stroke-width:1.0;"/><polygon fill="#FF0000" points="284.62,765.84,284.6405,755.9912,282.5988,761.2667,277.3233,759.225,284.62,765.84" style="stroke:#FF0000;stroke-width:1.0;"/><text fill="#000000" font-family="sans-serif" font-size="13" lengthAdjust="spacing" textLength="195" x="269" y="731.897">[pieza no cabe] / Juego finalizado</text></g><!--link EnCurso to acelerarCaida--><g id="link_EnCurso_acelerarCaida"><path d="M50,57.27 C50,66.7725 50,78.2437 50,90.1392 C50,96.087 50,102.1407 50,108.1075 C50,108.8534 50,109.5979 50,110.3406 C50,110.712 50,105.0829 50,105.4534 " fill="none" id="EnCurso-to-acelerarCaida" style="stroke:#008000;stroke-width:1.0;"/><polygon fill="#008000" points="50,111.4534,54,102.4534,50,106.4534,46,102.4534,50,111.4534" style="stroke:#008000;stroke-width:1.0;"/></g><!--link Finalizado to *end*--><g id="link_Finalizado_*end*"><path d="M294,816.46 C294,836.04 294,856.49 294,870.8 " fill="none" id="Finalizado-to-*end*" style="stroke:#FF0000;stroke-width:1.0;"/><polygon fill="#FF0000" points="294,876.8,298,867.8,294,871.8,290,867.8,294,876.8" style="stroke:#FF0000;stroke-width:1.0;"/></g><!--SRC=[VLB1JXj13BtFLrZffQmKLUeHeKXHibH1RHeLw84G8JDhWgl5NitiSW3nIPpu17widkm2krARmqexjj_pUxPZZJL1BhCcH7Mn__eA667KFKQkIwAdaWA66NA1kuf1vFF1wD4vW7MsWV7wqpOGoMOyWNb-EikNyuLzFrE-__vl8Hp2Yka1eQ3ecQGWQ0J1-XMuZsEro2-cLyUBa-byQXnhhoL7VdsH3Npf66_u3vf-4gZnskHh4ZN0xICiNv-5J8ZULINLc6Y_jo4g-Ox5g2-bZKI8JKM1DL1CFgeI7omTBsNLIDsWJxfiglPRSihi5R8yptzFhzhqjtoP_se5BHkwHwXsphOajeqae7LQQMJFAfrTJr87VHULkhMBzN1qv6-LFKqcAVhFLdqjthadvqGD6tXxMuFU3A_3IBBiZ2izp3BueVSs6MkkSxPoBjJPGY71dVC3ulVxiqctdZnUKnfoygbGDq4KMCmM6iqE7AX8q6ER_MwC-W6ssZVyIKDRjTs_5JdNzO9nqHCmTE5wf1-TxC3TNm00]--></g></svg>