<?xml version="1.0" encoding="us-ascii" standalone="no"?><svg xmlns="http://www.w3.org/2000/svg" xmlns:xlink="http://www.w3.org/1999/xlink" contentStyleType="text/css" height="901px" preserveAspectRatio="none" style="width:566px;height:901px;background:#FFFFFF;" version="1.1" viewBox="0 0 566 901" width="566px" zoomAndPan="magnify"><defs/><g><!--cluster descenderPieza--><g id="cluster_descenderPieza"><path d="M54.5,112 L540.5,112 A12.5,12.5 0 0 1 553,124.5 L553,136.0679 L42,136.0679 L42,124.5 A12.5,12.5 0 0 1 54.5,112 " fill="#F1F1F1" style="stroke:#F1F1F1;stroke-width:1.0;"/><rect fill="none" height="577" rx="12.5" ry="12.5" style="stroke:#181818;stroke-width:0.5;" width="511" x="42" y="112"/><line style="stroke:#181818;stroke-width:0.5;" x1="42" x2="553" y1="136.0679" y2="136.0679"/><text fill="#000000" font-family="sans-serif" font-size="14" lengthAdjust="spacing" textLength="114" x="240.5" y="130.9659">descenderPieza()</text></g><ellipse cx="130" cy="168" fill="#222222" rx="10" ry="10" style="stroke:#222222;stroke-width:1.0;"/><g id="descenderPieza.PIEZA_ACTIVA"><rect fill="#F1F1F1" height="50" rx="12.5" ry="12.5" style="stroke:#181818;stroke-width:0.5;" width="112" x="74" y="239"/><line style="stroke:#181818;stroke-width:0.5;" x1="74" x2="186" y1="268.0679" y2="268.0679"/><text fill="#000000" font-family="sans-serif" font-size="14" lengthAdjust="spacing" textLength="92" x="84" y="258.9659">PIEZA_ACTIVA</text></g><g id="descenderPieza.PIEZA_FIJADA"><rect fill="#F1F1F1" height="50" rx="12.5" ry="12.5" style="stroke:#181818;stroke-width:0.5;" width="108" x="100" y="375.5"/><line style="stroke:#181818;stroke-width:0.5;" x1="100" x2="208" y1="404.5679" y2="404.5679"/><text fill="#000000" font-family="sans-serif" font-size="14" lengthAdjust="spacing" textLength="88" x="110" y="395.4659">PIEZA_FIJADA</text></g><g id="descenderPieza.NUEVA_PIEZA_GENERADA"><rect fill="#F1F1F1" height="50" rx="12.5" ry="12.5" style="stroke:#181818;stroke-width:0.5;" width="190" x="74" y="530"/><line style="stroke:#181818;stroke-width:0.5;" x1="74" x2="264" y1="559.0679" y2="559.0679"/><text fill="#000000" font-family="sans-serif" font-size="14" lengthAdjust="spacing" textLength="170" x="84" y="549.9659">NUEVA_PIEZA_GENERADA</text></g><g id="elem_c"><polygon fill="#F1F1F1" points="169,641,181,653,169,665,157,653,169,641" style="stroke:#181818;stroke-width:0.5;"/></g><g id="EnCurso"><rect fill="#F1F1F1" height="50" rx="12.5" ry="12.5" style="stroke:#181818;stroke-width:0.5;" width="76" x="12" y="7"/><line style="stroke:#181818;stroke-width:0.5;" x1="12" x2="88" y1="36.0679" y2="36.0679"/><text fill="#000000" font-family="sans-serif" font-size="14" lengthAdjust="spacing" textLength="56" x="22" y="26.9659">EnCurso</text></g><g id="EnCurso2"><rect fill="#F1F1F1" height="50" rx="12.5" ry="12.5" style="stroke:#181818;stroke-width:0.5;" width="76" x="7" y="762"/><line style="stroke:#181818;stroke-width:0.5;" x1="7" x2="83" y1="791.0679" y2="791.0679"/><text fill="#000000" font-family="sans-serif" font-size="14" lengthAdjust="spacing" textLength="56" x="17" y="781.9659">EnCurso</text></g><g id="Finalizado"><rect fill="#F1F1F1" height="50" rx="12.5" ry="12.5" style="stroke:#181818;stroke-width:0.5;" width="88" x="250" y="762"/><line style="stroke:#181818;stroke-width:0.5;" x1="250" x2="338" y1="791.0679" y2="791.0679"/><text fill="#000000" font-family="sans-serif" font-size="14" lengthAdjust="spacing" textLength="68" x="260" y="781.9659">Finalizado</text></g><ellipse cx="294" cy="884" fill="none" rx="11" ry="11" style="stroke:#222222;stroke-width:1.0;"/><ellipse cx="294" cy="884" fill="#222222" rx="6" ry="6" style="stroke:#222222;stroke-width:1.0;"/><!--link *start*descenderPieza to PIEZA_ACTIVA--><g id="link_*start*descenderPieza_PIEZA_ACTIVA"><path d="M130,178.01 C130,191.89 130,212.97 130,232.84 " fill="none" id="*start*descenderPieza-to-PIEZA_ACTIVA" style="stroke:#008000;stroke-width:1.0;"/><polygon fill="#008000" points="130,238.84,134,229.84,130,233.84,126,229.84,130,238.84" style="stroke:#008000;stroke-width:1.0;"/></g><!--link PIEZA_ACTIVA to PIEZA_ACTIVA--><g id="link_PIEZA_ACTIVA_PIEZA_ACTIVA"><path d="M186.43,253.88 C205.6,253.82 221,257.2 221,264 C221,270.8 211.6,274.1988 192.43,274.1388 " fill="none" id="PIEZA_ACTIVA-to-PIEZA_ACTIVA" style="stroke:#008000;stroke-width:1.0;"/><polygon fill="#008000" points="186.43,274.12,195.4174,278.1481,191.43,274.1356,195.4425,270.1482,186.43,274.12" style="stroke:#008000;stroke-width:1.0;"/><text fill="#000000" font-family="sans-serif" font-size="13" lengthAdjust="spacing" textLength="313" x="227" y="269.397">Tiempo solicita descenso / Pieza desciende una celda</text></g><!--link PIEZA_ACTIVA to PIEZA_FIJADA--><g id="link_PIEZA_ACTIVA_PIEZA_FIJADA"><path d="M134.29,289.05 C138.63,313.38 144.2554,344.8834 148.6154,369.3034 " fill="none" id="PIEZA_ACTIVA-to-PIEZA_FIJADA" style="stroke:#008000;stroke-width:1.0;"/><polygon fill="#008000" points="149.67,375.21,152.0259,365.6471,148.7912,370.2878,144.1504,367.0532,149.67,375.21" style="stroke:#008000;stroke-width:1.0;"/><text fill="#000000" font-family="sans-serif" font-size="13" lengthAdjust="spacing" textLength="346" x="144" y="333.897">Tiempo solicita descenso [colisi&#243;n] / Pieza se fija en tablero</text></g><!--link PIEZA_FIJADA to PIEZA_FIJADA--><g id="link_PIEZA_FIJADA_PIEZA_FIJADA"><path d="M208.32,387.01 C227.46,386.79 243,391.29 243,400.5 C243,409.71 233.4596,414.279 214.3196,414.059 " fill="none" id="PIEZA_FIJADA-to-PIEZA_FIJADA" style="stroke:#008000;stroke-width:1.0;"/><polygon fill="#008000" points="208.32,413.99,217.2734,418.0932,213.3197,414.0475,217.3654,410.0937,208.32,413.99" style="stroke:#008000;stroke-width:1.0;"/><text fill="#000000" font-family="sans-serif" font-size="13" lengthAdjust="spacing" textLength="199" x="249" y="387.897">[l&#237;nea completa] / L&#237;nea eliminada</text><text fill="#000000" font-family="sans-serif" font-size="13" lengthAdjust="spacing" textLength="180" x="258.5" y="405.603">L&#237;neas superiores desplazadas</text><text fill="#000000" font-family="sans-serif" font-size="13" lengthAdjust="spacing" textLength="139" x="279" y="423.309">Puntuaci&#243;n actualizada</text></g><!--link PIEZA_FIJADA to NUEVA_PIEZA_GENERADA--><g id="link_PIEZA_FIJADA_NUEVA_PIEZA_GENERADA"><path d="M156.38,425.66 C159.19,454.22 163.2436,495.4687 166.0436,523.9787 " fill="none" id="PIEZA_FIJADA-to-NUEVA_PIEZA_GENERADA" style="stroke:#008000;stroke-width:1.0;"/><polygon fill="#008000" points="166.63,529.95,169.7312,520.6021,166.1413,524.9739,161.7695,521.3841,166.63,529.95" style="stroke:#008000;stroke-width:1.0;"/><text fill="#000000" font-family="sans-serif" font-size="13" lengthAdjust="spacing" textLength="133" x="208" y="477.897">Nueva pieza generada</text><text fill="#000000" font-family="sans-serif" font-size="13" lengthAdjust="spacing" textLength="219" x="165" y="495.603">Pieza posicionada en centro superior</text></g><!--link NUEVA_PIEZA_GENERADA to c--><g id="link_NUEVA_PIEZA_GENERADA_c"><path d="M169,580.22 C169,599.67 169,620.07 169,634.83 " fill="none" id="NUEVA_PIEZA_GENERADA-to-c" style="stroke:#008000;stroke-width:1.0;"/><polygon fill="#008000" points="169,640.83,173,631.83,169,635.83,165,631.83,169,640.83" style="stroke:#008000;stroke-width:1.0;"/></g><!--link c to Finalizado--><g id="link_c_Finalizado"><path d="M176.56,657.6 C192.72,665.6 231.09,686.29 255,713 C267.84,727.35 275.4946,741.1921 282.1946,756.3521 " fill="none" id="c-to-Finalizado" style="stroke:#FF0000;stroke-width:1.0;"/><polygon fill="#FF0000" points="284.62,761.84,284.6405,751.9912,282.5988,757.2667,277.3233,755.225,284.62,761.84" style="stroke:#FF0000;stroke-width:1.0;"/><text fill="#000000" font-family="sans-serif" font-size="13" lengthAdjust="spacing" textLength="195" x="269" y="727.897">[pieza no cabe] / Juego finalizado</text></g><!--link EnCurso to descenderPieza--><g id="link_EnCurso_descenderPieza"><path d="M50,57.27 C50,66.7725 50,78.2437 50,90.1392 C50,96.087 50,102.1407 50,108.1075 C50,108.8534 50,109.5979 50,110.3406 C50,110.712 50,105.0829 50,105.4534 " fill="none" id="EnCurso-to-descenderPieza" style="stroke:#008000;stroke-width:1.0;"/><polygon fill="#008000" points="50,111.4534,54,102.4534,50,106.4534,46,102.4534,50,111.4534" style="stroke:#008000;stroke-width:1.0;"/></g><!--link c to EnCurso2--><g id="link_c_EnCurso2"><path d="M159.08,655.09 C134.12,658.43 68.81,670.99 42,713 C32.86,727.33 32.8457,740.7947 36.1157,755.9647 " fill="none" id="c-to-EnCurso2" style="stroke:#008000;stroke-width:1.0;"/><polygon fill="#008000" points="37.38,761.83,39.3937,752.1892,36.3264,756.9423,31.5734,753.8749,37.38,761.83" style="stroke:#008000;stroke-width:1.0;"/><text fill="#000000" font-family="sans-serif" font-size="13" lengthAdjust="spacing" textLength="207" x="43" y="727.897">[pieza cabe] / Nuevo turno iniciado</text></g><!--link Finalizado to *end*--><g id="link_Finalizado_*end*"><path d="M294,812.46 C294,832.04 294,852.49 294,866.8 " fill="none" id="Finalizado-to-*end*" style="stroke:#FF0000;stroke-width:1.0;"/><polygon fill="#FF0000" points="294,872.8,298,863.8,294,867.8,290,863.8,294,872.8" style="stroke:#FF0000;stroke-width:1.0;"/></g><!--SRC=[XPB1IWCn48RlUOgXNbGeWaSfXQLkfKLAaTg3srBIx5WZQR8a6myL7ycJZz0NCxFPhblGUjlyCyp__RFZIbuYf7hWhJFCjL_Nm1rqwaU7rSKSdK2TevrAtF6gvLWwl-YyCmQGNIwXcvrjBA9UTlim7QLFoIePp4RpXEhjzv-DS0CpYTl2W3DA2bdo6i0Pk8A8G88aV_2QWq2Ly__73qVZvFRa-4m4oSdzbrusLWxXMRvoG0qbNokqfd6g1vvmojJ-KsCWDDj2OSbfx7sKKCcjr3pd2nqL1yuNQAMnw0YfK7mNocwXfrwNdWlY0Yx2fv9KESKnUKpdoIgMxz99-X1v9XxVE1HLi0rgj9L_35eO5zPX28d2XesKrZHCzFlYDGZezSIBaGBxVL9_jMgp2CRO1sE2H8ivISEGl0fXQ4cHHniGV8sqeh77ZGbhFpGnLfyaTFFMuECZ32ZYoBUvwSRYC9_MOA3qDdXA7L9N7Yse7z9mqenz0m00]--></g></svg>