<?xml version="1.0" encoding="us-ascii" standalone="no"?><svg xmlns="http://www.w3.org/2000/svg" xmlns:xlink="http://www.w3.org/1999/xlink" contentStyleType="text/css" height="1013px" preserveAspectRatio="none" style="width:616px;height:1013px;background:#FFFFFF;" version="1.1" viewBox="0 0 616 1013" width="616px" zoomAndPan="magnify"><defs/><g><!--class Game--><g id="elem_Game"><rect codeLine="10" fill="#F08080" height="80.4799" id="Game" rx="2.5" ry="2.5" style="stroke:#181818;stroke-width:0.5;" width="129" x="220.5" y="68.5"/><ellipse cx="251.25" cy="91.206" fill="#ADD1B2" rx="11" ry="11" style="stroke:#181818;stroke-width:1.0;"/><path d="M254.2188,96.8466 Q253.6406,97.1435 253,97.2841 Q252.3594,97.4404 251.6563,97.4404 Q249.1563,97.4404 247.8281,95.7998 Q246.5156,94.1435 246.5156,91.0185 Q246.5156,87.8935 247.8281,86.2373 Q249.1563,84.581 251.6563,84.581 Q252.3594,84.581 253,84.7373 Q253.6563,84.8935 254.2188,85.1904 L254.2188,87.9091 Q253.5938,87.331 253,87.0654 Q252.4063,86.7841 251.7813,86.7841 Q250.4375,86.7841 249.75,87.8623 Q249.0625,88.9248 249.0625,91.0185 Q249.0625,93.1123 249.75,94.1904 Q250.4375,95.2529 251.7813,95.2529 Q252.4063,95.2529 253,94.9873 Q253.5938,94.706 254.2188,94.1279 L254.2188,96.8466 Z " fill="#000000"/><text fill="#000000" font-family="sans-serif" font-size="12" font-style="italic" lengthAdjust="spacing" textLength="66" x="266.75" y="86.3281">&#171;Controller&#187;</text><text fill="#000000" font-family="sans-serif" font-size="14" lengthAdjust="spacing" textLength="39" x="280.25" y="104.81">Game</text><line style="stroke:#181818;stroke-width:0.5;" x1="221.5" x2="348.5" y1="113.912" y2="113.912"/><text fill="#000000" font-family="sans-serif" font-size="14" lengthAdjust="spacing" textLength="117" x="226.5" y="132.878">Punto de entrada</text><line style="stroke:#181818;stroke-width:0.5;" x1="221.5" x2="348.5" y1="140.9799" y2="140.9799"/></g><!--class Tetris--><g id="elem_Tetris"><rect codeLine="14" fill="#F08080" height="80.4799" id="Tetris" rx="2.5" ry="2.5" style="stroke:#181818;stroke-width:0.5;" width="156" x="207" y="290"/><ellipse cx="249.9" cy="312.706" fill="#ADD1B2" rx="11" ry="11" style="stroke:#181818;stroke-width:1.0;"/><path d="M252.8688,318.3466 Q252.2906,318.6435 251.65,318.7841 Q251.0094,318.9404 250.3063,318.9404 Q247.8063,318.9404 246.4781,317.2998 Q245.1656,315.6435 245.1656,312.5185 Q245.1656,309.3935 246.4781,307.7373 Q247.8063,306.081 250.3063,306.081 Q251.0094,306.081 251.65,306.2373 Q252.3063,306.3935 252.8688,306.6904 L252.8688,309.4091 Q252.2438,308.831 251.65,308.5654 Q251.0563,308.2841 250.4313,308.2841 Q249.0875,308.2841 248.4,309.3623 Q247.7125,310.4248 247.7125,312.5185 Q247.7125,314.6123 248.4,315.6904 Q249.0875,316.7529 250.4313,316.7529 Q251.0563,316.7529 251.65,316.4873 Q252.2438,316.206 252.8688,315.6279 L252.8688,318.3466 Z " fill="#000000"/><text fill="#000000" font-family="sans-serif" font-size="12" font-style="italic" lengthAdjust="spacing" textLength="66" x="268.1" y="307.8281">&#171;Controller&#187;</text><text fill="#000000" font-family="sans-serif" font-size="14" lengthAdjust="spacing" textLength="38" x="282.1" y="326.31">Tetris</text><line style="stroke:#181818;stroke-width:0.5;" x1="208" x2="362" y1="335.412" y2="335.412"/><text fill="#000000" font-family="sans-serif" font-size="14" lengthAdjust="spacing" textLength="144" x="213" y="354.378">Controlador principal</text><line style="stroke:#181818;stroke-width:0.5;" x1="208" x2="362" y1="362.4799" y2="362.4799"/></g><!--class Board--><g id="elem_Board"><rect codeLine="18" fill="#ADD8E6" height="80.4799" id="Board" rx="2.5" ry="2.5" style="stroke:#181818;stroke-width:0.5;" width="130" x="7" y="608"/><ellipse cx="47.65" cy="630.706" fill="#ADD1B2" rx="11" ry="11" style="stroke:#181818;stroke-width:1.0;"/><path d="M50.6188,636.3466 Q50.0406,636.6435 49.4,636.7841 Q48.7594,636.9404 48.0563,636.9404 Q45.5563,636.9404 44.2281,635.2998 Q42.9156,633.6435 42.9156,630.5185 Q42.9156,627.3935 44.2281,625.7373 Q45.5563,624.081 48.0563,624.081 Q48.7594,624.081 49.4,624.2373 Q50.0563,624.3935 50.6188,624.6904 L50.6188,627.4091 Q49.9938,626.831 49.4,626.5654 Q48.8063,626.2841 48.1813,626.2841 Q46.8375,626.2841 46.15,627.3623 Q45.4625,628.4248 45.4625,630.5185 Q45.4625,632.6123 46.15,633.6904 Q46.8375,634.7529 48.1813,634.7529 Q48.8063,634.7529 49.4,634.4873 Q49.9938,634.206 50.6188,633.6279 L50.6188,636.3466 Z " fill="#000000"/><text fill="#000000" font-family="sans-serif" font-size="12" font-style="italic" lengthAdjust="spacing" textLength="45" x="65.35" y="625.8281">&#171;Model&#187;</text><text fill="#000000" font-family="sans-serif" font-size="14" lengthAdjust="spacing" textLength="40" x="67.85" y="644.31">Board</text><line style="stroke:#181818;stroke-width:0.5;" x1="8" x2="136" y1="653.412" y2="653.412"/><text fill="#000000" font-family="sans-serif" font-size="14" lengthAdjust="spacing" textLength="118" x="13" y="672.378">Tablero del juego</text><line style="stroke:#181818;stroke-width:0.5;" x1="8" x2="136" y1="680.4799" y2="680.4799"/></g><!--class Piece--><g id="elem_Piece"><rect codeLine="22" fill="#ADD8E6" height="80.4799" id="Piece" rx="2.5" ry="2.5" style="stroke:#181818;stroke-width:0.5;" width="110" x="173" y="767"/><ellipse cx="204.65" cy="789.706" fill="#ADD1B2" rx="11" ry="11" style="stroke:#181818;stroke-width:1.0;"/><path d="M207.6188,795.3466 Q207.0406,795.6435 206.4,795.7841 Q205.7594,795.9404 205.0563,795.9404 Q202.5563,795.9404 201.2281,794.2998 Q199.9156,792.6435 199.9156,789.5185 Q199.9156,786.3935 201.2281,784.7373 Q202.5563,783.081 205.0563,783.081 Q205.7594,783.081 206.4,783.2373 Q207.0563,783.3935 207.6188,783.6904 L207.6188,786.4091 Q206.9938,785.831 206.4,785.5654 Q205.8063,785.2841 205.1813,785.2841 Q203.8375,785.2841 203.15,786.3623 Q202.4625,787.4248 202.4625,789.5185 Q202.4625,791.6123 203.15,792.6904 Q203.8375,793.7529 205.1813,793.7529 Q205.8063,793.7529 206.4,793.4873 Q206.9938,793.206 207.6188,792.6279 L207.6188,795.3466 Z " fill="#000000"/><text fill="#000000" font-family="sans-serif" font-size="12" font-style="italic" lengthAdjust="spacing" textLength="45" x="220.35" y="784.8281">&#171;Model&#187;</text><text fill="#000000" font-family="sans-serif" font-size="14" lengthAdjust="spacing" textLength="35" x="225.35" y="803.31">Piece</text><line style="stroke:#181818;stroke-width:0.5;" x1="174" x2="282" y1="812.412" y2="812.412"/><text fill="#000000" font-family="sans-serif" font-size="14" lengthAdjust="spacing" textLength="98" x="179" y="831.378">Pieza de Tetris</text><line style="stroke:#181818;stroke-width:0.5;" x1="174" x2="282" y1="839.4799" y2="839.4799"/></g><!--class Position--><g id="elem_Position"><rect codeLine="26" fill="#ADD8E6" height="80.4799" id="Position" rx="2.5" ry="2.5" style="stroke:#181818;stroke-width:0.5;" width="101" x="177.5" y="926"/><ellipse cx="199.7" cy="948.706" fill="#ADD1B2" rx="11" ry="11" style="stroke:#181818;stroke-width:1.0;"/><path d="M202.6688,954.3466 Q202.0906,954.6435 201.45,954.7841 Q200.8094,954.9404 200.1063,954.9404 Q197.6063,954.9404 196.2781,953.2998 Q194.9656,951.6435 194.9656,948.5185 Q194.9656,945.3935 196.2781,943.7373 Q197.6063,942.081 200.1063,942.081 Q200.8094,942.081 201.45,942.2373 Q202.1063,942.3935 202.6688,942.6904 L202.6688,945.4091 Q202.0438,944.831 201.45,944.5654 Q200.8563,944.2841 200.2313,944.2841 Q198.8875,944.2841 198.2,945.3623 Q197.5125,946.4248 197.5125,948.5185 Q197.5125,950.6123 198.2,951.6904 Q198.8875,952.7529 200.2313,952.7529 Q200.8563,952.7529 201.45,952.4873 Q202.0438,952.206 202.6688,951.6279 L202.6688,954.3466 Z " fill="#000000"/><text fill="#000000" font-family="sans-serif" font-size="12" font-style="italic" lengthAdjust="spacing" textLength="45" x="219.3" y="943.8281">&#171;Model&#187;</text><text fill="#000000" font-family="sans-serif" font-size="14" lengthAdjust="spacing" textLength="53" x="215.3" y="962.31">Position</text><line style="stroke:#181818;stroke-width:0.5;" x1="178.5" x2="277.5" y1="971.412" y2="971.412"/><text fill="#000000" font-family="sans-serif" font-size="14" lengthAdjust="spacing" textLength="89" x="183.5" y="990.378">Coordenadas</text><line style="stroke:#181818;stroke-width:0.5;" x1="178.5" x2="277.5" y1="998.4799" y2="998.4799"/></g><!--class BoardView--><g id="elem_BoardView"><rect codeLine="30" fill="#90EE90" height="80.4799" id="BoardView" rx="2.5" ry="2.5" style="stroke:#181818;stroke-width:0.5;" width="139" x="117.5" y="449"/><ellipse cx="148.7" cy="471.706" fill="#ADD1B2" rx="11" ry="11" style="stroke:#181818;stroke-width:1.0;"/><path d="M151.6688,477.3466 Q151.0906,477.6435 150.45,477.7841 Q149.8094,477.9404 149.1063,477.9404 Q146.6063,477.9404 145.2781,476.2998 Q143.9656,474.6435 143.9656,471.5185 Q143.9656,468.3935 145.2781,466.7373 Q146.6063,465.081 149.1063,465.081 Q149.8094,465.081 150.45,465.2373 Q151.1063,465.3935 151.6688,465.6904 L151.6688,468.4091 Q151.0438,467.831 150.45,467.5654 Q149.8563,467.2841 149.2313,467.2841 Q147.8875,467.2841 147.2,468.3623 Q146.5125,469.4248 146.5125,471.5185 Q146.5125,473.6123 147.2,474.6904 Q147.8875,475.7529 149.2313,475.7529 Q149.8563,475.7529 150.45,475.4873 Q151.0438,475.206 151.6688,474.6279 L151.6688,477.3466 Z " fill="#000000"/><text fill="#000000" font-family="sans-serif" font-size="12" font-style="italic" lengthAdjust="spacing" textLength="37" x="183.3" y="466.8281">&#171;View&#187;</text><text fill="#000000" font-family="sans-serif" font-size="14" lengthAdjust="spacing" textLength="71" x="166.3" y="485.31">BoardView</text><line style="stroke:#181818;stroke-width:0.5;" x1="118.5" x2="255.5" y1="494.412" y2="494.412"/><text fill="#000000" font-family="sans-serif" font-size="14" lengthAdjust="spacing" textLength="127" x="123.5" y="513.378">Visualiza el tablero</text><line style="stroke:#181818;stroke-width:0.5;" x1="118.5" x2="255.5" y1="521.4799" y2="521.4799"/></g><!--class PieceView--><g id="elem_PieceView"><rect codeLine="34" fill="#90EE90" height="80.4799" id="PieceView" rx="2.5" ry="2.5" style="stroke:#181818;stroke-width:0.5;" width="141" x="172.5" y="608"/><ellipse cx="206.85" cy="630.706" fill="#ADD1B2" rx="11" ry="11" style="stroke:#181818;stroke-width:1.0;"/><path d="M209.8188,636.3466 Q209.2406,636.6435 208.6,636.7841 Q207.9594,636.9404 207.2563,636.9404 Q204.7563,636.9404 203.4281,635.2998 Q202.1156,633.6435 202.1156,630.5185 Q202.1156,627.3935 203.4281,625.7373 Q204.7563,624.081 207.2563,624.081 Q207.9594,624.081 208.6,624.2373 Q209.2563,624.3935 209.8188,624.6904 L209.8188,627.4091 Q209.1938,626.831 208.6,626.5654 Q208.0063,626.2841 207.3813,626.2841 Q206.0375,626.2841 205.35,627.3623 Q204.6625,628.4248 204.6625,630.5185 Q204.6625,632.6123 205.35,633.6904 Q206.0375,634.7529 207.3813,634.7529 Q208.0063,634.7529 208.6,634.4873 Q209.1938,634.206 209.8188,633.6279 L209.8188,636.3466 Z " fill="#000000"/><text fill="#000000" font-family="sans-serif" font-size="12" font-style="italic" lengthAdjust="spacing" textLength="37" x="239.65" y="625.8281">&#171;View&#187;</text><text fill="#000000" font-family="sans-serif" font-size="14" lengthAdjust="spacing" textLength="66" x="225.15" y="644.31">PieceView</text><line style="stroke:#181818;stroke-width:0.5;" x1="173.5" x2="312.5" y1="653.412" y2="653.412"/><text fill="#000000" font-family="sans-serif" font-size="14" lengthAdjust="spacing" textLength="129" x="178.5" y="672.378">Visualiza las piezas</text><line style="stroke:#181818;stroke-width:0.5;" x1="173.5" x2="312.5" y1="680.4799" y2="680.4799"/></g><!--class PieceFactory--><g id="elem_PieceFactory"><rect codeLine="38" fill="#D3D3D3" height="80.4799" id="PieceFactory" rx="2.5" ry="2.5" style="stroke:#181818;stroke-width:0.5;" width="115" x="291.5" y="449"/><ellipse cx="306.5" cy="471.706" fill="#ADD1B2" rx="11" ry="11" style="stroke:#181818;stroke-width:1.0;"/><path d="M309.4688,477.3466 Q308.8906,477.6435 308.25,477.7841 Q307.6094,477.9404 306.9063,477.9404 Q304.4063,477.9404 303.0781,476.2998 Q301.7656,474.6435 301.7656,471.5185 Q301.7656,468.3935 303.0781,466.7373 Q304.4063,465.081 306.9063,465.081 Q307.6094,465.081 308.25,465.2373 Q308.9063,465.3935 309.4688,465.6904 L309.4688,468.4091 Q308.8438,467.831 308.25,467.5654 Q307.6563,467.2841 307.0313,467.2841 Q305.6875,467.2841 305,468.3623 Q304.3125,469.4248 304.3125,471.5185 Q304.3125,473.6123 305,474.6904 Q305.6875,475.7529 307.0313,475.7529 Q307.6563,475.7529 308.25,475.4873 Q308.8438,475.206 309.4688,474.6279 L309.4688,477.3466 Z " fill="#000000"/><text fill="#000000" font-family="sans-serif" font-size="12" font-style="italic" lengthAdjust="spacing" textLength="43" x="340.5" y="466.8281">&#171;Utility&#187;</text><text fill="#000000" font-family="sans-serif" font-size="14" lengthAdjust="spacing" textLength="83" x="320.5" y="485.31">PieceFactory</text><line style="stroke:#181818;stroke-width:0.5;" x1="292.5" x2="405.5" y1="494.412" y2="494.412"/><text fill="#000000" font-family="sans-serif" font-size="14" lengthAdjust="spacing" textLength="78" x="297.5" y="513.378">Crea piezas</text><line style="stroke:#181818;stroke-width:0.5;" x1="292.5" x2="405.5" y1="521.4799" y2="521.4799"/></g><!--class Console--><g id="elem_Console"><rect codeLine="42" fill="#D3D3D3" height="80.4799" id="Console" rx="2.5" ry="2.5" style="stroke:#181818;stroke-width:0.5;" width="111" x="446.5" y="608"/><ellipse cx="473.2" cy="630.706" fill="#ADD1B2" rx="11" ry="11" style="stroke:#181818;stroke-width:1.0;"/><path d="M476.1688,636.3466 Q475.5906,636.6435 474.95,636.7841 Q474.3094,636.9404 473.6063,636.9404 Q471.1063,636.9404 469.7781,635.2998 Q468.4656,633.6435 468.4656,630.5185 Q468.4656,627.3935 469.7781,625.7373 Q471.1063,624.081 473.6063,624.081 Q474.3094,624.081 474.95,624.2373 Q475.6063,624.3935 476.1688,624.6904 L476.1688,627.4091 Q475.5438,626.831 474.95,626.5654 Q474.3563,626.2841 473.7313,626.2841 Q472.3875,626.2841 471.7,627.3623 Q471.0125,628.4248 471.0125,630.5185 Q471.0125,632.6123 471.7,633.6904 Q472.3875,634.7529 473.7313,634.7529 Q474.3563,634.7529 474.95,634.4873 Q475.5438,634.206 476.1688,633.6279 L476.1688,636.3466 Z " fill="#000000"/><text fill="#000000" font-family="sans-serif" font-size="12" font-style="italic" lengthAdjust="spacing" textLength="43" x="494.8" y="625.8281">&#171;Utility&#187;</text><text fill="#000000" font-family="sans-serif" font-size="14" lengthAdjust="spacing" textLength="53" x="489.8" y="644.31">Console</text><line style="stroke:#181818;stroke-width:0.5;" x1="447.5" x2="556.5" y1="653.412" y2="653.412"/><text fill="#000000" font-family="sans-serif" font-size="14" lengthAdjust="spacing" textLength="99" x="452.5" y="672.378">Entrada/Salida</text><line style="stroke:#181818;stroke-width:0.5;" x1="447.5" x2="556.5" y1="680.4799" y2="680.4799"/></g><g id="elem_GMN23"><path d="M385,6 L385,104.5 L349.59,108.5 L385,112.5 L385,210.7662 A0,0 0 0 0 385,210.7662 L609,210.7662 A0,0 0 0 0 609,210.7662 L609,16 L599,6 L385,6 A0,0 0 0 0 385,6 " fill="#FEFFDD" style="stroke:#181818;stroke-width:0.5;"/><path d="M599,6 L599,16 L609,16 L599,6 " fill="#FEFFDD" style="stroke:#181818;stroke-width:0.5;"/><text fill="#000000" font-family="sans-serif" font-size="13" font-weight="bold" lengthAdjust="spacing" textLength="183" x="391" y="24.897">Vista simplificada del dise&#241;o</text><text fill="#000000" font-family="sans-serif" font-size="13" lengthAdjust="spacing" textLength="12" x="391" y="42.603">&#160;&#160;&#160;&#160;</text><text fill="#000000" font-family="sans-serif" font-size="13" lengthAdjust="spacing" textLength="185" x="391" y="60.309">Este diagrama muestra solo las</text><text fill="#000000" font-family="sans-serif" font-size="13" lengthAdjust="spacing" textLength="203" x="391" y="78.0151">relaciones principales entre clases.</text><text fill="#000000" font-family="sans-serif" font-size="13" lengthAdjust="spacing" textLength="9" x="391" y="95.7211">&#160;&#160;&#160;</text><text fill="#000000" font-family="sans-serif" font-size="13" lengthAdjust="spacing" textLength="191" x="391" y="113.4271">Los colores indican la capa MVC:</text><text fill="#000000" font-family="sans-serif" font-size="13" lengthAdjust="spacing" textLength="3" x="391" y="131.1331">&#160;</text><text fill="#000000" font-family="sans-serif" font-size="13" lengthAdjust="spacing" textLength="85" x="391" y="148.8391">&#128308;    Controlador</text><text fill="#000000" font-family="sans-serif" font-size="13" lengthAdjust="spacing" textLength="58" x="391" y="166.5451">&#128309;    Modelo</text><text fill="#000000" font-family="sans-serif" font-size="13" lengthAdjust="spacing" textLength="54" x="391" y="184.2512">&#128994;    Vista</text><text fill="#000000" font-family="sans-serif" font-size="13" lengthAdjust="spacing" textLength="82" x="391" y="201.9572">&#9898;    Utilidades</text></g><!--link Game to Tetris--><g id="link_Game_Tetris"><path codeLine="46" d="M285,148.74 C285,188.57 285,243.89 285,283.73 " fill="none" id="Game-to-Tetris" style="stroke:#181818;stroke-width:1.0;"/><polygon fill="#181818" points="285,289.73,289,280.73,285,284.73,281,280.73,285,289.73" style="stroke:#181818;stroke-width:1.0;"/><text fill="#000000" font-family="sans-serif" font-size="13" lengthAdjust="spacing" textLength="30" x="286" y="255.897">inicia</text></g><!--link Tetris to Board--><g id="link_Tetris_Board"><path codeLine="48" d="M206.88,347.18 C152.01,363.06 82.48,393.31 48,449 C18.01,497.43 34.2333,559.8025 51.2633,602.1925 " fill="none" id="Tetris-to-Board" style="stroke:#181818;stroke-width:1.0;"/><polygon fill="#181818" points="53.5,607.76,53.8566,597.9176,51.6361,603.1204,46.4333,600.8999,53.5,607.76" style="stroke:#181818;stroke-width:1.0;"/><text fill="#000000" font-family="sans-serif" font-size="13" lengthAdjust="spacing" textLength="50" x="49" y="494.397">controla</text></g><!--link Tetris to BoardView--><g id="link_Tetris_BoardView"><path codeLine="49" d="M260.52,370.21 C245.56,394.19 229.6588,419.6713 214.6788,443.6513 " fill="none" id="Tetris-to-BoardView" style="stroke:#181818;stroke-width:1.0;"/><polygon fill="#181818" points="211.5,448.74,219.6607,443.2262,214.149,444.4994,212.8758,438.9877,211.5,448.74" style="stroke:#181818;stroke-width:1.0;"/><text fill="#000000" font-family="sans-serif" font-size="13" lengthAdjust="spacing" textLength="52" x="242" y="414.897">actualiza</text></g><!--link Tetris to PieceFactory--><g id="link_Tetris_PieceFactory"><path codeLine="50" d="M300.98,370.21 C310.76,394.19 320.9542,419.2043 330.7342,443.1843 " fill="none" id="Tetris-to-PieceFactory" style="stroke:#181818;stroke-width:1.0;"/><polygon fill="#181818" points="333,448.74,333.305,438.8959,331.1118,444.1102,325.8974,441.917,333,448.74" style="stroke:#181818;stroke-width:1.0;"/><text fill="#000000" font-family="sans-serif" font-size="13" lengthAdjust="spacing" textLength="81" x="321" y="414.897">solicita piezas</text></g><!--link Tetris to Console--><g id="link_Tetris_Console"><path codeLine="51" d="M363.31,362.57 C380.78,372.48 397.97,384.89 411,400 C463.51,460.92 485.7718,548.9141 495.2218,601.6541 " fill="none" id="Tetris-to-Console" style="stroke:#181818;stroke-width:1.0;"/><polygon fill="#181818" points="496.28,607.56,498.6299,597.9956,495.3981,602.6384,490.7554,599.4066,496.28,607.56" style="stroke:#181818;stroke-width:1.0;"/><text fill="#000000" font-family="sans-serif" font-size="13" lengthAdjust="spacing" textLength="83" x="478" y="494.397">lee comandos</text></g><!--link Board to Piece--><g id="link_Board_Piece"><path codeLine="53" d="M110.96,688.21 C134.79,712.19 160.9307,738.5041 184.7607,762.4841 " fill="none" id="Board-to-Piece" style="stroke:#181818;stroke-width:1.0;"/><polygon fill="#181818" points="188.99,766.74,185.4833,757.5366,185.4656,763.1934,179.8087,763.1756,188.99,766.74" style="stroke:#181818;stroke-width:1.0;"/><text fill="#000000" font-family="sans-serif" font-size="13" lengthAdjust="spacing" textLength="52" x="161" y="732.897">gestiona</text></g><!--link Piece to Position--><g id="link_Piece_Position"><path codeLine="55" d="M228,847.21 C228,871.19 228,895.76 228,919.74 " fill="none" id="Piece-to-Position" style="stroke:#181818;stroke-width:1.0;"/><polygon fill="#181818" points="228,925.74,232,916.74,228,920.74,224,916.74,228,925.74" style="stroke:#181818;stroke-width:1.0;"/><text fill="#000000" font-family="sans-serif" font-size="13" lengthAdjust="spacing" textLength="30" x="229" y="891.897">tiene</text></g><!--link BoardView to Board--><g id="link_BoardView_Board"><path codeLine="57" d="M135.8,529.3 C126.08,538.34 116.59,548.42 109,559 C98.47,573.68 92.3183,586.1964 86.2883,602.1764 " fill="none" id="BoardView-to-Board" style="stroke:#181818;stroke-width:1.0;"/><polygon fill="#181818" points="84.17,607.79,91.0898,600.7817,85.9352,603.112,83.605,597.9574,84.17,607.79" style="stroke:#181818;stroke-width:1.0;"/><text fill="#000000" font-family="sans-serif" font-size="13" lengthAdjust="spacing" textLength="61" x="110" y="573.897">lee estado</text></g><!--link BoardView to PieceView--><g id="link_BoardView_PieceView"><path codeLine="58" d="M179.38,529.14 C177.93,544.77 178.33,562.66 184,578 C187.93,588.65 190.5979,594.054 197.7479,603.094 " fill="none" id="BoardView-to-PieceView" style="stroke:#181818;stroke-width:1.0;"/><polygon fill="#181818" points="201.47,607.8,199.0242,598.2597,198.3683,603.8784,192.7496,603.2224,201.47,607.8" style="stroke:#181818;stroke-width:1.0;"/><text fill="#000000" font-family="sans-serif" font-size="13" lengthAdjust="spacing" textLength="21" x="185" y="573.897">usa</text></g><!--link BoardView to Console--><g id="link_BoardView_Console"><path codeLine="59" d="M202.99,529.29 C212.14,546.89 225.35,566.27 243,578 C309.09,621.91 343.29,584.24 419,608 C427.96,610.81 431.6935,612.0171 440.6135,615.8771 " fill="none" id="BoardView-to-Console" style="stroke:#181818;stroke-width:1.0;"/><polygon fill="#181818" points="446.12,618.26,439.4488,611.0147,441.5312,616.2743,436.2716,618.3567,446.12,618.26" style="stroke:#181818;stroke-width:1.0;"/><text fill="#000000" font-family="sans-serif" font-size="13" lengthAdjust="spacing" textLength="42" x="244" y="573.897">escribe</text></g><!--link PieceFactory to Piece--><g id="link_PieceFactory_Piece"><path codeLine="61" d="M352.47,529.35 C354.53,570.62 353.29,636.53 331,688 C318.03,717.94 298.8486,741.5134 277.5986,762.6034 " fill="none" id="PieceFactory-to-Piece" style="stroke:#181818;stroke-width:1.0;"/><polygon fill="#181818" points="273.34,766.83,282.5457,763.3292,276.8889,763.3079,276.9102,757.651,273.34,766.83" style="stroke:#181818;stroke-width:1.0;"/><text fill="#000000" font-family="sans-serif" font-size="13" lengthAdjust="spacing" textLength="25" x="351" y="653.397">crea</text></g><!--link PieceFactory to PieceView--><g id="link_PieceFactory_PieceView"><path codeLine="62" d="M326.13,529.06 C316.8,544.51 305.7,562.3 295,578 C288.33,587.79 284.4192,593.3094 277.2292,602.8994 " fill="none" id="PieceFactory-to-PieceView" style="stroke:#181818;stroke-width:1.0;"/><polygon fill="#181818" points="273.63,607.7,282.2292,602.8986,276.6293,603.6995,275.8284,598.0996,273.63,607.7" style="stroke:#181818;stroke-width:1.0;"/><text fill="#000000" font-family="sans-serif" font-size="13" lengthAdjust="spacing" textLength="25" x="308" y="573.897">crea</text></g><!--SRC=[VLH1RXin3Bph5Vn0cfuNXe7QI8C22H0WgU-qnBXAP74XQL4uHN_HKoy6UkojGFk2_gGlo1DAhNQzcxLRdsnoXXnoHCT7wsiCk0NjCCOtAGMxRXAzq-nlxHF1QnLVGk2J0laiK3zk0ZVUBDbncCsksP2Rp-7ARZwaXMleD6nbwMEFkWn4_ZHioJu5Tev23rvoG7SQ_3vPPzDkA8ixzLcf8lSIjmIJWcM4cyOd1aD0aaA30-UEP0tnDAiBeU40TR1Usrfq7QWBnc1WM4SXtU5QQkHc3XuQsl10kB6awOWWqIVCsegK4PoZJPRz4MF970nvcIDErEILms7p1RsoiK5dfOSeIaNTHDF_QOA3EekC4zfRr8d33iQsT0e3uH57rXdPqGduHN7b_5OQ5dDQAy_Evhq_5LXljKMbka3E5GCgq9rFHxbshWf4PXbb37WnGGMYJEgdW-eHijTTWIEIPblqXgDIfVsXbkGt5BDXeh94sbplOWN9agUErqeR3v5h2rqUsmGmE5H14t6I7SHHr7BGrFNk9nlBq-BAFx9T_HQXF2U2aEyB-BwzAZLRp-L1o7gYtTREtbijVhLltDX8lt_mx7mzRxrK5r7Onk96_aSGjeqC5J3lb_DBKe4SQja7nU6cv7i-J6h_TYY-oeNK5KTPjbozPAqtqj5B0T1O8rolbfLIp_ilFoTtccE_Sgoz69Oop_lzj-uz9rH_ldxFFze7QD1GLEGDv87LNm00]--></g></svg>