<?xml version="1.0" encoding="us-ascii" standalone="no"?><svg xmlns="http://www.w3.org/2000/svg" xmlns:xlink="http://www.w3.org/1999/xlink" contentStyleType="text/css" height="1120px" preserveAspectRatio="none" style="width:822px;height:1120px;background:#FFFFFF;" version="1.1" viewBox="0 0 822 1120" width="822px" zoomAndPan="magnify"><defs/><g><rect fill="#FFFFFF" height="77.412" style="stroke:#181818;stroke-width:1.0;" width="10" x="153.5" y="72.7739"/><rect fill="#FFFFFF" height="152.8241" style="stroke:#181818;stroke-width:1.0;" width="10" x="153.5" y="181.892"/><rect fill="#FFFFFF" height="74.412" style="stroke:#181818;stroke-width:1.0;" width="10" x="158.5" y="221.598"/><rect fill="#FFFFFF" height="175.5301" style="stroke:#181818;stroke-width:1.0;" width="10" x="153.5" y="591.3642"/><rect fill="#FFFFFF" height="95.118" style="stroke:#181818;stroke-width:1.0;" width="10" x="476.5" y="393.1281"/><rect fill="none" height="715.8082" style="stroke:#000000;stroke-width:1.5;" width="713.5" x="102.5" y="349.716"/><rect fill="none" height="148.5301" style="stroke:#000000;stroke-width:1.5;" width="693.5" x="112.5" y="611.3642"/><rect fill="none" height="51.412" style="stroke:#000000;stroke-width:1.5;" width="673.5" x="122.5" y="701.4822"/><rect fill="none" height="252.924" style="stroke:#000000;stroke-width:1.5;" width="673.5" x="122.5" y="805.6003"/><line style="stroke:#181818;stroke-width:0.5;stroke-dasharray:5.0,5.0;" x1="31" x2="31" y1="39.0679" y2="1082.5243"/><line style="stroke:#181818;stroke-width:0.5;stroke-dasharray:5.0,5.0;" x1="158.5" x2="158.5" y1="39.0679" y2="1082.5243"/><line style="stroke:#181818;stroke-width:0.5;stroke-dasharray:5.0,5.0;" x1="399.5" x2="399.5" y1="39.0679" y2="1082.5243"/><line style="stroke:#181818;stroke-width:0.5;stroke-dasharray:5.0,5.0;" x1="481" x2="481" y1="39.0679" y2="1082.5243"/><line style="stroke:#181818;stroke-width:0.5;stroke-dasharray:5.0,5.0;" x1="586" x2="586" y1="39.0679" y2="1082.5243"/><line style="stroke:#181818;stroke-width:0.5;stroke-dasharray:5.0,5.0;" x1="678" x2="678" y1="39.0679" y2="1082.5243"/><line style="stroke:#181818;stroke-width:0.5;stroke-dasharray:5.0,5.0;" x1="761" x2="761" y1="39.0679" y2="1082.5243"/><rect fill="#E2E2F0" height="33.0679" rx="2.5" ry="2.5" style="stroke:#181818;stroke-width:0.5;" width="53" x="5" y="5"/><text fill="#000000" font-family="sans-serif" font-size="14" lengthAdjust="spacing" textLength="39" x="12" y="26.9659">Game</text><rect fill="#E2E2F0" height="33.0679" rx="2.5" ry="2.5" style="stroke:#181818;stroke-width:0.5;" width="53" x="5" y="1081.5243"/><text fill="#000000" font-family="sans-serif" font-size="14" lengthAdjust="spacing" textLength="39" x="12" y="1103.4902">Game</text><rect fill="#E2E2F0" height="33.0679" rx="2.5" ry="2.5" style="stroke:#181818;stroke-width:0.5;" width="52" x="132.5" y="5"/><text fill="#000000" font-family="sans-serif" font-size="14" lengthAdjust="spacing" textLength="38" x="139.5" y="26.9659">Tetris</text><rect fill="#E2E2F0" height="33.0679" rx="2.5" ry="2.5" style="stroke:#181818;stroke-width:0.5;" width="52" x="132.5" y="1081.5243"/><text fill="#000000" font-family="sans-serif" font-size="14" lengthAdjust="spacing" textLength="38" x="139.5" y="1103.4902">Tetris</text><rect fill="#E2E2F0" height="33.0679" rx="2.5" ry="2.5" style="stroke:#181818;stroke-width:0.5;" width="54" x="372.5" y="5"/><text fill="#000000" font-family="sans-serif" font-size="14" lengthAdjust="spacing" textLength="40" x="379.5" y="26.9659">Board</text><rect fill="#E2E2F0" height="33.0679" rx="2.5" ry="2.5" style="stroke:#181818;stroke-width:0.5;" width="54" x="372.5" y="1081.5243"/><text fill="#000000" font-family="sans-serif" font-size="14" lengthAdjust="spacing" textLength="40" x="379.5" y="1103.4902">Board</text><rect fill="#E2E2F0" height="33.0679" rx="2.5" ry="2.5" style="stroke:#181818;stroke-width:0.5;" width="85" x="439" y="5"/><text fill="#000000" font-family="sans-serif" font-size="14" lengthAdjust="spacing" textLength="71" x="446" y="26.9659">BoardView</text><rect fill="#E2E2F0" height="33.0679" rx="2.5" ry="2.5" style="stroke:#181818;stroke-width:0.5;" width="85" x="439" y="1081.5243"/><text fill="#000000" font-family="sans-serif" font-size="14" lengthAdjust="spacing" textLength="71" x="446" y="1103.4902">BoardView</text><rect fill="#E2E2F0" height="33.0679" rx="2.5" ry="2.5" style="stroke:#181818;stroke-width:0.5;" width="67" x="553" y="5"/><text fill="#000000" font-family="sans-serif" font-size="14" lengthAdjust="spacing" textLength="53" x="560" y="26.9659">Console</text><rect fill="#E2E2F0" height="33.0679" rx="2.5" ry="2.5" style="stroke:#181818;stroke-width:0.5;" width="67" x="553" y="1081.5243"/><text fill="#000000" font-family="sans-serif" font-size="14" lengthAdjust="spacing" textLength="53" x="560" y="1103.4902">Console</text><rect fill="#E2E2F0" height="33.0679" rx="2.5" ry="2.5" style="stroke:#181818;stroke-width:0.5;" width="97" x="630" y="5"/><text fill="#000000" font-family="sans-serif" font-size="14" lengthAdjust="spacing" textLength="83" x="637" y="26.9659">PieceFactory</text><rect fill="#E2E2F0" height="33.0679" rx="2.5" ry="2.5" style="stroke:#181818;stroke-width:0.5;" width="97" x="630" y="1081.5243"/><text fill="#000000" font-family="sans-serif" font-size="14" lengthAdjust="spacing" textLength="83" x="637" y="1103.4902">PieceFactory</text><rect fill="#E2E2F0" height="33.0679" rx="2.5" ry="2.5" style="stroke:#181818;stroke-width:0.5;" width="49" x="737" y="5"/><text fill="#000000" font-family="sans-serif" font-size="14" lengthAdjust="spacing" textLength="35" x="744" y="26.9659">Piece</text><rect fill="#E2E2F0" height="33.0679" rx="2.5" ry="2.5" style="stroke:#181818;stroke-width:0.5;" width="49" x="737" y="1081.5243"/><text fill="#000000" font-family="sans-serif" font-size="14" lengthAdjust="spacing" textLength="35" x="744" y="1103.4902">Piece</text><rect fill="#FFFFFF" height="77.412" style="stroke:#181818;stroke-width:1.0;" width="10" x="153.5" y="72.7739"/><rect fill="#FFFFFF" height="152.8241" style="stroke:#181818;stroke-width:1.0;" width="10" x="153.5" y="181.892"/><rect fill="#FFFFFF" height="74.412" style="stroke:#181818;stroke-width:1.0;" width="10" x="158.5" y="221.598"/><rect fill="#FFFFFF" height="175.5301" style="stroke:#181818;stroke-width:1.0;" width="10" x="153.5" y="591.3642"/><rect fill="#FFFFFF" height="95.118" style="stroke:#181818;stroke-width:1.0;" width="10" x="476.5" y="393.1281"/><polygon fill="#181818" points="141.5,68.7739,151.5,72.7739,141.5,76.7739,145.5,72.7739" style="stroke:#181818;stroke-width:1.0;"/><line style="stroke:#181818;stroke-width:1.0;" x1="31.5" x2="147.5" y1="72.7739" y2="72.7739"/><text fill="#000000" font-family="sans-serif" font-size="13" lengthAdjust="spacing" textLength="103" x="38.5" y="66.9649">new Tetris(10, 20)</text><polygon fill="#181818" points="387.5,100.4799,397.5,104.4799,387.5,108.4799,391.5,104.4799" style="stroke:#181818;stroke-width:1.0;"/><line style="stroke:#181818;stroke-width:1.0;" x1="163.5" x2="393.5" y1="104.4799" y2="104.4799"/><text fill="#000000" font-family="sans-serif" font-size="13" lengthAdjust="spacing" textLength="151" x="170.5" y="98.6709">new Board(width, height)</text><polygon fill="#181818" points="469.5,132.186,479.5,136.186,469.5,140.186,473.5,136.186" style="stroke:#181818;stroke-width:1.0;"/><line style="stroke:#181818;stroke-width:1.0;" x1="163.5" x2="475.5" y1="136.186" y2="136.186"/><text fill="#000000" font-family="sans-serif" font-size="13" lengthAdjust="spacing" textLength="146" x="170.5" y="130.377">new BoardView(console)</text><polygon fill="#181818" points="42.5,146.186,32.5,150.186,42.5,154.186,38.5,150.186" style="stroke:#181818;stroke-width:1.0;"/><line style="stroke:#181818;stroke-width:1.0;stroke-dasharray:2.0,2.0;" x1="36.5" x2="157.5" y1="150.186" y2="150.186"/><polygon fill="#181818" points="141.5,177.892,151.5,181.892,141.5,185.892,145.5,181.892" style="stroke:#181818;stroke-width:1.0;"/><line style="stroke:#181818;stroke-width:1.0;" x1="31.5" x2="147.5" y1="181.892" y2="181.892"/><text fill="#000000" font-family="sans-serif" font-size="13" lengthAdjust="spacing" textLength="73" x="38.5" y="176.083">gameLoop()</text><line style="stroke:#181818;stroke-width:1.0;" x1="163.5" x2="210.5" y1="208.598" y2="208.598"/><line style="stroke:#181818;stroke-width:1.0;" x1="210.5" x2="210.5" y1="208.598" y2="221.598"/><line style="stroke:#181818;stroke-width:1.0;" x1="169.5" x2="210.5" y1="221.598" y2="221.598"/><polygon fill="#181818" points="179.5,217.598,169.5,221.598,179.5,225.598,175.5,221.598" style="stroke:#181818;stroke-width:1.0;"/><text fill="#000000" font-family="sans-serif" font-size="13" lengthAdjust="spacing" textLength="105" x="175.5" y="202.789">spawnNewPiece()</text><polygon fill="#181818" points="666.5,254.304,676.5,258.304,666.5,262.304,670.5,258.304" style="stroke:#181818;stroke-width:1.0;"/><line style="stroke:#181818;stroke-width:1.0;" x1="168.5" x2="672.5" y1="258.304" y2="258.304"/><text fill="#000000" font-family="sans-serif" font-size="13" lengthAdjust="spacing" textLength="80" x="175.5" y="252.495">createIPiece()</text><line style="stroke:#181818;stroke-width:1.0;stroke-dasharray:2.0,2.0;" x1="168.5" x2="210.5" y1="295.01" y2="295.01"/><line style="stroke:#181818;stroke-width:1.0;stroke-dasharray:2.0,2.0;" x1="210.5" x2="210.5" y1="295.01" y2="308.01"/><line style="stroke:#181818;stroke-width:1.0;stroke-dasharray:2.0,2.0;" x1="163.5" x2="210.5" y1="308.01" y2="308.01"/><polygon fill="#181818" points="173.5,304.01,163.5,308.01,173.5,312.01,169.5,308.01" style="stroke:#181818;stroke-width:1.0;"/><text fill="#000000" font-family="sans-serif" font-size="13" lengthAdjust="spacing" textLength="31" x="175.5" y="289.201">piece</text><polygon fill="#181818" points="387.5,330.716,397.5,334.716,387.5,338.716,391.5,334.716" style="stroke:#181818;stroke-width:1.0;"/><line style="stroke:#181818;stroke-width:1.0;" x1="158.5" x2="393.5" y1="334.716" y2="334.716"/><text fill="#000000" font-family="sans-serif" font-size="13" lengthAdjust="spacing" textLength="134" x="165.5" y="328.907">setCurrentPiece(piece)</text><path d="M102.5,349.716 L175.5,349.716 L175.5,359.4221 L165.5,369.4221 L102.5,369.4221 L102.5,349.716 " fill="#EEEEEE" style="stroke:#000000;stroke-width:1.5;"/><rect fill="none" height="715.8082" style="stroke:#000000;stroke-width:1.5;" width="713.5" x="102.5" y="349.716"/><text fill="#000000" font-family="sans-serif" font-size="13" font-weight="bold" lengthAdjust="spacing" textLength="28" x="117.5" y="364.6131">loop</text><text fill="#000000" font-family="sans-serif" font-size="11" font-weight="bold" lengthAdjust="spacing" textLength="117" x="190.5" y="363.475">[while gameRunning]</text><polygon fill="#181818" points="464.5,389.1281,474.5,393.1281,464.5,397.1281,468.5,393.1281" style="stroke:#181818;stroke-width:1.0;"/><line style="stroke:#181818;stroke-width:1.0;" x1="158.5" x2="470.5" y1="393.1281" y2="393.1281"/><text fill="#000000" font-family="sans-serif" font-size="13" lengthAdjust="spacing" textLength="195" x="165.5" y="387.3191">display(board, currentPieceView)</text><polygon fill="#181818" points="410.5,420.8341,400.5,424.8341,410.5,428.8341,406.5,424.8341" style="stroke:#181818;stroke-width:1.0;"/><line style="stroke:#181818;stroke-width:1.0;" x1="404.5" x2="475.5" y1="424.8341" y2="424.8341"/><text fill="#000000" font-family="sans-serif" font-size="13" lengthAdjust="spacing" textLength="53" x="416.5" y="419.0251">getGrid()</text><polygon fill="#181818" points="574.5,452.5401,584.5,456.5401,574.5,460.5401,578.5,456.5401" style="stroke:#181818;stroke-width:1.0;"/><line style="stroke:#181818;stroke-width:1.0;" x1="486.5" x2="580.5" y1="456.5401" y2="456.5401"/><text fill="#000000" font-family="sans-serif" font-size="13" lengthAdjust="spacing" textLength="76" x="493.5" y="450.7311">clearScreen()</text><polygon fill="#181818" points="574.5,484.2461,584.5,488.2461,574.5,492.2461,578.5,488.2461" style="stroke:#181818;stroke-width:1.0;"/><line style="stroke:#181818;stroke-width:1.0;" x1="481.5" x2="580.5" y1="488.2461" y2="488.2461"/><text fill="#000000" font-family="sans-serif" font-size="13" lengthAdjust="spacing" textLength="58" x="488.5" y="482.4371">writeln(...)</text><polygon fill="#181818" points="574.5,515.9521,584.5,519.9521,574.5,523.9521,578.5,519.9521" style="stroke:#181818;stroke-width:1.0;"/><line style="stroke:#181818;stroke-width:1.0;" x1="158.5" x2="580.5" y1="519.9521" y2="519.9521"/><text fill="#000000" font-family="sans-serif" font-size="13" lengthAdjust="spacing" textLength="146" x="165.5" y="514.1431">readString("Comando: ")</text><polygon fill="#181818" points="169.5,547.6582,159.5,551.6582,169.5,555.6582,165.5,551.6582" style="stroke:#181818;stroke-width:1.0;"/><line style="stroke:#181818;stroke-width:1.0;stroke-dasharray:2.0,2.0;" x1="163.5" x2="585.5" y1="551.6582" y2="551.6582"/><text fill="#000000" font-family="sans-serif" font-size="13" lengthAdjust="spacing" textLength="32" x="175.5" y="545.8492">input</text><line style="stroke:#181818;stroke-width:1.0;" x1="158.5" x2="205.5" y1="578.3642" y2="578.3642"/><line style="stroke:#181818;stroke-width:1.0;" x1="205.5" x2="205.5" y1="578.3642" y2="591.3642"/><line style="stroke:#181818;stroke-width:1.0;" x1="164.5" x2="205.5" y1="591.3642" y2="591.3642"/><polygon fill="#181818" points="174.5,587.3642,164.5,591.3642,174.5,595.3642,170.5,591.3642" style="stroke:#181818;stroke-width:1.0;"/><text fill="#000000" font-family="sans-serif" font-size="13" lengthAdjust="spacing" textLength="147" x="170.5" y="572.5552">processUserInput(input)</text><path d="M112.5,611.3642 L175.5,611.3642 L175.5,621.0702 L165.5,631.0702 L112.5,631.0702 L112.5,611.3642 " fill="#EEEEEE" style="stroke:#000000;stroke-width:1.5;"/><rect fill="none" height="148.5301" style="stroke:#000000;stroke-width:1.5;" width="693.5" x="112.5" y="611.3642"/><text fill="#000000" font-family="sans-serif" font-size="13" font-weight="bold" lengthAdjust="spacing" textLength="18" x="127.5" y="626.2612">alt</text><text fill="#000000" font-family="sans-serif" font-size="11" font-weight="bold" lengthAdjust="spacing" textLength="96" x="190.5" y="625.1231">[comando v&#225;lido]</text><polygon fill="#181818" points="387.5,650.7762,397.5,654.7762,387.5,658.7762,391.5,654.7762" style="stroke:#181818;stroke-width:1.0;"/><line style="stroke:#181818;stroke-width:1.0;" x1="163.5" x2="393.5" y1="654.7762" y2="654.7762"/><text fill="#000000" font-family="sans-serif" font-size="13" lengthAdjust="spacing" textLength="212" x="170.5" y="648.9672">canMovePiece(piece, deltaX, deltaY)</text><polygon fill="#181818" points="174.5,682.4822,164.5,686.4822,174.5,690.4822,170.5,686.4822" style="stroke:#181818;stroke-width:1.0;"/><line style="stroke:#181818;stroke-width:1.0;stroke-dasharray:2.0,2.0;" x1="168.5" x2="398.5" y1="686.4822" y2="686.4822"/><text fill="#000000" font-family="sans-serif" font-size="13" lengthAdjust="spacing" textLength="49" x="180.5" y="680.6732">boolean</text><path d="M122.5,701.4822 L189.5,701.4822 L189.5,711.1882 L179.5,721.1882 L122.5,721.1882 L122.5,701.4822 " fill="#EEEEEE" style="stroke:#000000;stroke-width:1.5;"/><rect fill="none" height="51.412" style="stroke:#000000;stroke-width:1.5;" width="673.5" x="122.5" y="701.4822"/><text fill="#000000" font-family="sans-serif" font-size="13" font-weight="bold" lengthAdjust="spacing" textLength="22" x="137.5" y="716.3792">opt</text><text fill="#000000" font-family="sans-serif" font-size="11" font-weight="bold" lengthAdjust="spacing" textLength="82" x="204.5" y="715.2411">[puede mover]</text><polygon fill="#181818" points="749.5,740.8943,759.5,744.8943,749.5,748.8943,753.5,744.8943" style="stroke:#181818;stroke-width:1.0;"/><line style="stroke:#181818;stroke-width:1.0;" x1="163.5" x2="755.5" y1="744.8943" y2="744.8943"/><text fill="#000000" font-family="sans-serif" font-size="13" lengthAdjust="spacing" textLength="102" x="170.5" y="739.0853">moveLeft/Right()</text><polygon fill="#181818" points="387.5,786.6003,397.5,790.6003,387.5,794.6003,391.5,790.6003" style="stroke:#181818;stroke-width:1.0;"/><line style="stroke:#181818;stroke-width:1.0;" x1="158.5" x2="393.5" y1="790.6003" y2="790.6003"/><text fill="#000000" font-family="sans-serif" font-size="13" lengthAdjust="spacing" textLength="151" x="165.5" y="784.7913">canMovePiece(piece, 0, 1)</text><path d="M122.5,805.6003 L185.5,805.6003 L185.5,815.3063 L175.5,825.3063 L122.5,825.3063 L122.5,805.6003 " fill="#EEEEEE" style="stroke:#000000;stroke-width:1.5;"/><rect fill="none" height="252.924" style="stroke:#000000;stroke-width:1.5;" width="673.5" x="122.5" y="805.6003"/><text fill="#000000" font-family="sans-serif" font-size="13" font-weight="bold" lengthAdjust="spacing" textLength="18" x="137.5" y="820.4973">alt</text><text fill="#000000" font-family="sans-serif" font-size="11" font-weight="bold" lengthAdjust="spacing" textLength="71" x="200.5" y="819.3592">[puede caer]</text><polygon fill="#181818" points="749.5,845.0123,759.5,849.0123,749.5,853.0123,753.5,849.0123" style="stroke:#181818;stroke-width:1.0;"/><line style="stroke:#181818;stroke-width:1.0;" x1="158.5" x2="755.5" y1="849.0123" y2="849.0123"/><text fill="#000000" font-family="sans-serif" font-size="13" lengthAdjust="spacing" textLength="77" x="165.5" y="843.2033">moveDown()</text><line style="stroke:#000000;stroke-width:1.0;stroke-dasharray:2.0,2.0;" x1="122.5" x2="796" y1="858.0123" y2="858.0123"/><text fill="#000000" font-family="sans-serif" font-size="11" font-weight="bold" lengthAdjust="spacing" textLength="88" x="127.5" y="869.7712">[no puede caer]</text><polygon fill="#181818" points="387.5,893.7002,397.5,897.7002,387.5,901.7002,391.5,897.7002" style="stroke:#181818;stroke-width:1.0;"/><line style="stroke:#181818;stroke-width:1.0;" x1="158.5" x2="393.5" y1="897.7002" y2="897.7002"/><text fill="#000000" font-family="sans-serif" font-size="13" lengthAdjust="spacing" textLength="151" x="165.5" y="891.8912">placePiece(piece, symbol)</text><polygon fill="#181818" points="387.5,925.4062,397.5,929.4062,387.5,933.4062,391.5,929.4062" style="stroke:#181818;stroke-width:1.0;"/><line style="stroke:#181818;stroke-width:1.0;" x1="158.5" x2="393.5" y1="929.4062" y2="929.4062"/><text fill="#000000" font-family="sans-serif" font-size="13" lengthAdjust="spacing" textLength="125" x="165.5" y="923.5972">clearCompleteLines()</text><polygon fill="#181818" points="169.5,957.1123,159.5,961.1123,169.5,965.1123,165.5,961.1123" style="stroke:#181818;stroke-width:1.0;"/><line style="stroke:#181818;stroke-width:1.0;stroke-dasharray:2.0,2.0;" x1="163.5" x2="398.5" y1="961.1123" y2="961.1123"/><text fill="#000000" font-family="sans-serif" font-size="13" lengthAdjust="spacing" textLength="72" x="175.5" y="955.3032">linesCleared</text><line style="stroke:#181818;stroke-width:1.0;" x1="158.5" x2="200.5" y1="992.8183" y2="992.8183"/><line style="stroke:#181818;stroke-width:1.0;" x1="200.5" x2="200.5" y1="992.8183" y2="1005.8183"/><line style="stroke:#181818;stroke-width:1.0;" x1="159.5" x2="200.5" y1="1005.8183" y2="1005.8183"/><polygon fill="#181818" points="169.5,1001.8183,159.5,1005.8183,169.5,1009.8183,165.5,1005.8183" style="stroke:#181818;stroke-width:1.0;"/><text fill="#000000" font-family="sans-serif" font-size="13" lengthAdjust="spacing" textLength="158" x="165.5" y="987.0093">score += linesCleared * 100</text><line style="stroke:#181818;stroke-width:1.0;" x1="158.5" x2="200.5" y1="1037.5243" y2="1037.5243"/><line style="stroke:#181818;stroke-width:1.0;" x1="200.5" x2="200.5" y1="1037.5243" y2="1050.5243"/><line style="stroke:#181818;stroke-width:1.0;" x1="159.5" x2="200.5" y1="1050.5243" y2="1050.5243"/><polygon fill="#181818" points="169.5,1046.5243,159.5,1050.5243,169.5,1054.5243,165.5,1050.5243" style="stroke:#181818;stroke-width:1.0;"/><text fill="#000000" font-family="sans-serif" font-size="13" lengthAdjust="spacing" textLength="105" x="165.5" y="1031.7153">spawnNewPiece()</text><!--SRC=[VLJRZjCm47tFLupsoO5kQNci10yKiLgf8BGBAtXqxI6rvDgMxJJgv_0j_1YsSrcdYH8fSdnqPkRCyJY6MY-OC5HvUA1dB4m6_41lXHj1dpIrV8gy26n6w5uhf-KutNU13BzGvhMz5aMi1lSVko8xKDXqtsIxMS7xJLa4ghXGZxsGTeb1gMWRapv98xW_hU24eZhvyfOPvMNik2MiLLWM5drjrLHG5VO7hGsP2idozsndQAE-OPEQ94lQSnjsm2m6rcCVree14xVJVXtwVMqjAj_o4wqiE4u4oY0ScfEGcFfugfKIgYeWFBFUSE6Cf5ToZD0AM5Ob4ieKELHvFVC83xjCQON-mGfEoYcZ6utGkaHgduC1g1PvZHKUfIBhzRgbPVsEbTpqDsG87lFdWAgAtEtrcIgkTt3N9kiS5yhKVYv9Vy36QeRE_NHe7oENf8WROphx4oOziBOMNFxzbOBhXCySGR22gg_wWjcfhaANqjDVtVgx789J2DndqeuwT4dLmD36WwcH8vn3KZlWuzAfs2vH3lZ7ltkALuUyra75YtoTJjcCMmlzX4kzBGThMdsCPl9cfNtMJJyTA1s2qikXdO0mp6nStbtFHotBXJE8unYcmqZqU10ANMP6DoKomlj8H3wJQVWPC6qHtduOyU4DR3URfQYRNqXlVdodT_m_]--></g></svg>