<?xml version="1.0" encoding="us-ascii" standalone="no"?><svg xmlns="http://www.w3.org/2000/svg" xmlns:xlink="http://www.w3.org/1999/xlink" contentStyleType="text/css" height="1833px" preserveAspectRatio="none" style="width:1689px;height:1833px;background:#FFFFFF;" version="1.1" viewBox="0 0 1689 1833" width="1689px" zoomAndPan="magnify"><defs/><g><!--cluster TETRIS--><g id="cluster_TETRIS"><path d="M30.84,170 L77.84,170 A3.75,3.75 0 0 1 80.34,172.5 L87.34,195.0679 L1679.84,195.0679 A2.5,2.5 0 0 1 1682.34,197.5679 L1682.34,1823.5 A2.5,2.5 0 0 1 1679.84,1826 L30.84,1826 A2.5,2.5 0 0 1 28.34,1823.5 L28.34,172.5 A2.5,2.5 0 0 1 30.84,170 " fill="none" style="stroke:#000000;stroke-width:1.5;"/><line style="stroke:#000000;stroke-width:1.5;" x1="28.34" x2="87.34" y1="195.0679" y2="195.0679"/><text fill="#000000" font-family="sans-serif" font-size="14" font-weight="bold" lengthAdjust="spacing" textLength="46" x="32.34" y="186.9659">TETRIS</text></g><!--class Tetris--><g id="elem_Tetris"><rect codeLine="17" fill="#F1F1F1" height="238.6792" id="Tetris" rx="2.5" ry="2.5" style="stroke:#181818;stroke-width:0.5;" width="283" x="540.84" y="208"/><ellipse cx="659.09" cy="224" fill="#ADD1B2" rx="11" ry="11" style="stroke:#181818;stroke-width:1.0;"/><path d="M662.0588,229.6406 Q661.4806,229.9375 660.84,230.0781 Q660.1994,230.2344 659.4963,230.2344 Q656.9963,230.2344 655.6681,228.5938 Q654.3556,226.9375 654.3556,223.8125 Q654.3556,220.6875 655.6681,219.0313 Q656.9963,217.375 659.4963,217.375 Q660.1994,217.375 660.84,217.5313 Q661.4963,217.6875 662.0588,217.9844 L662.0588,220.7031 Q661.4338,220.125 660.84,219.8594 Q660.2463,219.5781 659.6213,219.5781 Q658.2775,219.5781 657.59,220.6563 Q656.9025,221.7188 656.9025,223.8125 Q656.9025,225.9063 657.59,226.9844 Q658.2775,228.0469 659.6213,228.0469 Q660.2463,228.0469 660.84,227.7813 Q661.4338,227.5 662.0588,226.9219 L662.0588,229.6406 Z " fill="#000000"/><text fill="#000000" font-family="sans-serif" font-size="14" lengthAdjust="spacing" textLength="38" x="679.59" y="229.432">Tetris</text><line style="stroke:#181818;stroke-width:0.5;" x1="541.84" x2="822.84" y1="240" y2="240"/><rect fill="none" height="6" style="stroke:#C82930;stroke-width:1.0;" width="6" x="548.84" y="252.034"/><text fill="#000000" font-family="sans-serif" font-size="14" lengthAdjust="spacing" textLength="92" x="560.84" y="258.9659">board : Board</text><rect fill="none" height="6" style="stroke:#C82930;stroke-width:1.0;" width="6" x="548.84" y="271.1019"/><text fill="#000000" font-family="sans-serif" font-size="14" lengthAdjust="spacing" textLength="154" x="560.84" y="278.0339">boardView : BoardView</text><rect fill="none" height="6" style="stroke:#C82930;stroke-width:1.0;" width="6" x="548.84" y="290.1698"/><text fill="#000000" font-family="sans-serif" font-size="14" lengthAdjust="spacing" textLength="162" x="560.84" y="297.1018">gameRunning : boolean</text><rect fill="none" height="6" style="stroke:#C82930;stroke-width:1.0;" width="6" x="548.84" y="309.2377"/><text fill="#000000" font-family="sans-serif" font-size="14" lengthAdjust="spacing" textLength="66" x="560.84" y="316.1697">score : int</text><rect fill="none" height="6" style="stroke:#C82930;stroke-width:1.0;" width="6" x="548.84" y="328.3056"/><text fill="#000000" font-family="sans-serif" font-size="14" lengthAdjust="spacing" textLength="116" x="560.84" y="335.2376">console : Console</text><rect fill="none" height="6" style="stroke:#C82930;stroke-width:1.0;" width="6" x="548.84" y="347.3735"/><text fill="#000000" font-family="sans-serif" font-size="14" lengthAdjust="spacing" textLength="194" x="560.84" y="354.3055">currentPieceView : PieceView</text><line style="stroke:#181818;stroke-width:0.5;" x1="541.84" x2="822.84" y1="362.4075" y2="362.4075"/><ellipse cx="551.84" cy="377.4415" fill="#84BE84" rx="3" ry="3" style="stroke:#038048;stroke-width:1.0;"/><text fill="#000000" font-family="sans-serif" font-size="14" lengthAdjust="spacing" textLength="196" x="560.84" y="381.3734">Tetris(width : int, height : int)</text><ellipse cx="551.84" cy="396.5094" fill="#84BE84" rx="3" ry="3" style="stroke:#038048;stroke-width:1.0;"/><text fill="#000000" font-family="sans-serif" font-size="14" lengthAdjust="spacing" textLength="157" x="560.84" y="400.4414">spawnNewPiece() : void</text><rect fill="#F24D5C" height="6" style="stroke:#C82930;stroke-width:1.0;" width="6" x="548.84" y="412.5773"/><text fill="#000000" font-family="sans-serif" font-size="14" lengthAdjust="spacing" textLength="257" x="560.84" y="419.5093">processUserInput(input : String) : void</text><ellipse cx="551.84" cy="434.6452" fill="#84BE84" rx="3" ry="3" style="stroke:#038048;stroke-width:1.0;"/><text fill="#000000" font-family="sans-serif" font-size="14" lengthAdjust="spacing" textLength="118" x="560.84" y="438.5772">gameLoop() : void</text></g><!--class Board--><g id="elem_Board"><rect codeLine="32" fill="#F1F1F1" height="334.0188" id="Board" rx="2.5" ry="2.5" style="stroke:#181818;stroke-width:0.5;" width="438" x="141.34" y="832.5"/><ellipse cx="336.09" cy="848.5" fill="#ADD1B2" rx="11" ry="11" style="stroke:#181818;stroke-width:1.0;"/><path d="M339.0588,854.1406 Q338.4806,854.4375 337.84,854.5781 Q337.1994,854.7344 336.4963,854.7344 Q333.9963,854.7344 332.6681,853.0938 Q331.3556,851.4375 331.3556,848.3125 Q331.3556,845.1875 332.6681,843.5313 Q333.9963,841.875 336.4963,841.875 Q337.1994,841.875 337.84,842.0313 Q338.4963,842.1875 339.0588,842.4844 L339.0588,845.2031 Q338.4338,844.625 337.84,844.3594 Q337.2463,844.0781 336.6213,844.0781 Q335.2775,844.0781 334.59,845.1563 Q333.9025,846.2188 333.9025,848.3125 Q333.9025,850.4063 334.59,851.4844 Q335.2775,852.5469 336.6213,852.5469 Q337.2463,852.5469 337.84,852.2813 Q338.4338,852 339.0588,851.4219 L339.0588,854.1406 Z " fill="#000000"/><text fill="#000000" font-family="sans-serif" font-size="14" lengthAdjust="spacing" textLength="40" x="356.59" y="853.932">Board</text><line style="stroke:#181818;stroke-width:0.5;" x1="142.34" x2="578.34" y1="864.5" y2="864.5"/><rect fill="none" height="6" style="stroke:#C82930;stroke-width:1.0;" width="6" x="149.34" y="876.534"/><text fill="#000000" font-family="sans-serif" font-size="14" lengthAdjust="spacing" textLength="90" x="161.34" y="883.4659">grid : char[][]</text><rect fill="none" height="6" style="stroke:#C82930;stroke-width:1.0;" width="6" x="149.34" y="895.6019"/><text fill="#000000" font-family="sans-serif" font-size="14" lengthAdjust="spacing" textLength="68" x="161.34" y="902.5339">width : int</text><rect fill="none" height="6" style="stroke:#C82930;stroke-width:1.0;" width="6" x="149.34" y="914.6698"/><text fill="#000000" font-family="sans-serif" font-size="14" lengthAdjust="spacing" textLength="74" x="161.34" y="921.6018">height : int</text><rect fill="none" height="6" style="stroke:#C82930;stroke-width:1.0;" width="6" x="149.34" y="933.7377"/><text fill="#000000" font-family="sans-serif" font-size="14" lengthAdjust="spacing" textLength="132" x="161.34" y="940.6697">currentPiece : Piece</text><line style="stroke:#181818;stroke-width:0.5;" x1="142.34" x2="578.34" y1="948.7717" y2="948.7717"/><ellipse cx="152.34" cy="963.8056" fill="#84BE84" rx="3" ry="3" style="stroke:#038048;stroke-width:1.0;"/><text fill="#000000" font-family="sans-serif" font-size="14" lengthAdjust="spacing" textLength="198" x="161.34" y="967.7376">Board(width : int, height : int)</text><rect fill="#F24D5C" height="6" style="stroke:#C82930;stroke-width:1.0;" width="6" x="149.34" y="979.8735"/><text fill="#000000" font-family="sans-serif" font-size="14" lengthAdjust="spacing" textLength="121" x="161.34" y="986.8055">clearBoard() : void</text><ellipse cx="152.34" cy="1001.9415" fill="#84BE84" rx="3" ry="3" style="stroke:#038048;stroke-width:1.0;"/><text fill="#000000" font-family="sans-serif" font-size="14" lengthAdjust="spacing" textLength="100" x="161.34" y="1005.8734">getWidth() : int</text><ellipse cx="152.34" cy="1021.0094" fill="#84BE84" rx="3" ry="3" style="stroke:#038048;stroke-width:1.0;"/><text fill="#000000" font-family="sans-serif" font-size="14" lengthAdjust="spacing" textLength="105" x="161.34" y="1024.9414">getHeight() : int</text><ellipse cx="152.34" cy="1040.0773" fill="#84BE84" rx="3" ry="3" style="stroke:#038048;stroke-width:1.0;"/><text fill="#000000" font-family="sans-serif" font-size="14" lengthAdjust="spacing" textLength="121" x="161.34" y="1044.0093">getGrid() : char[][]</text><ellipse cx="152.34" cy="1059.1452" fill="#84BE84" rx="3" ry="3" style="stroke:#038048;stroke-width:1.0;"/><text fill="#000000" font-family="sans-serif" font-size="14" lengthAdjust="spacing" textLength="238" x="161.34" y="1063.0772">setCurrentPiece(piece : Piece) : void</text><ellipse cx="152.34" cy="1078.2131" fill="#84BE84" rx="3" ry="3" style="stroke:#038048;stroke-width:1.0;"/><text fill="#000000" font-family="sans-serif" font-size="14" lengthAdjust="spacing" textLength="164" x="161.34" y="1082.1451">getCurrentPiece() : Piece</text><ellipse cx="152.34" cy="1097.281" fill="#84BE84" rx="3" ry="3" style="stroke:#038048;stroke-width:1.0;"/><text fill="#000000" font-family="sans-serif" font-size="14" lengthAdjust="spacing" textLength="412" x="161.34" y="1101.213">canMovePiece(piece : Piece, deltaX : int, deltaY : int) : boolean</text><ellipse cx="152.34" cy="1116.349" fill="#84BE84" rx="3" ry="3" style="stroke:#038048;stroke-width:1.0;"/><text fill="#000000" font-family="sans-serif" font-size="14" lengthAdjust="spacing" textLength="396" x="161.34" y="1120.2809">canRotatePiece(piece : Piece, clockwise : boolean) : boolean</text><ellipse cx="152.34" cy="1135.4169" fill="#84BE84" rx="3" ry="3" style="stroke:#038048;stroke-width:1.0;"/><text fill="#000000" font-family="sans-serif" font-size="14" lengthAdjust="spacing" textLength="300" x="161.34" y="1139.3489">placePiece(piece : Piece, symbol : char) : void</text><ellipse cx="152.34" cy="1154.4848" fill="#84BE84" rx="3" ry="3" style="stroke:#038048;stroke-width:1.0;"/><text fill="#000000" font-family="sans-serif" font-size="14" lengthAdjust="spacing" textLength="170" x="161.34" y="1158.4168">clearCompleteLines() : int</text></g><!--class Piece--><g id="elem_Piece"><rect codeLine="51" fill="#F1F1F1" height="257.7471" id="Piece" rx="2.5" ry="2.5" style="stroke:#181818;stroke-width:0.5;" width="233" x="243.84" y="1272"/><ellipse cx="338.59" cy="1288" fill="#ADD1B2" rx="11" ry="11" style="stroke:#181818;stroke-width:1.0;"/><path d="M341.5588,1293.6406 Q340.9806,1293.9375 340.34,1294.0781 Q339.6994,1294.2344 338.9963,1294.2344 Q336.4963,1294.2344 335.1681,1292.5938 Q333.8556,1290.9375 333.8556,1287.8125 Q333.8556,1284.6875 335.1681,1283.0313 Q336.4963,1281.375 338.9963,1281.375 Q339.6994,1281.375 340.34,1281.5313 Q340.9963,1281.6875 341.5588,1281.9844 L341.5588,1284.7031 Q340.9338,1284.125 340.34,1283.8594 Q339.7463,1283.5781 339.1213,1283.5781 Q337.7775,1283.5781 337.09,1284.6563 Q336.4025,1285.7188 336.4025,1287.8125 Q336.4025,1289.9063 337.09,1290.9844 Q337.7775,1292.0469 339.1213,1292.0469 Q339.7463,1292.0469 340.34,1291.7813 Q340.9338,1291.5 341.5588,1290.9219 L341.5588,1293.6406 Z " fill="#000000"/><text fill="#000000" font-family="sans-serif" font-size="14" lengthAdjust="spacing" textLength="35" x="359.09" y="1293.432">Piece</text><line style="stroke:#181818;stroke-width:0.5;" x1="244.84" x2="475.84" y1="1304" y2="1304"/><rect fill="none" height="6" style="stroke:#C82930;stroke-width:1.0;" width="6" x="251.84" y="1316.034"/><text fill="#000000" font-family="sans-serif" font-size="14" lengthAdjust="spacing" textLength="127" x="263.84" y="1322.9659">shape : boolean[][]</text><rect fill="none" height="6" style="stroke:#C82930;stroke-width:1.0;" width="6" x="251.84" y="1335.1019"/><text fill="#000000" font-family="sans-serif" font-size="14" lengthAdjust="spacing" textLength="119" x="263.84" y="1342.0339">position : Position</text><line style="stroke:#181818;stroke-width:0.5;" x1="244.84" x2="475.84" y1="1350.1358" y2="1350.1358"/><ellipse cx="254.84" cy="1365.1698" fill="#84BE84" rx="3" ry="3" style="stroke:#038048;stroke-width:1.0;"/><text fill="#000000" font-family="sans-serif" font-size="14" lengthAdjust="spacing" textLength="170" x="263.84" y="1369.1018">Piece(shape : boolean[][])</text><ellipse cx="254.84" cy="1384.2377" fill="#84BE84" rx="3" ry="3" style="stroke:#038048;stroke-width:1.0;"/><text fill="#000000" font-family="sans-serif" font-size="14" lengthAdjust="spacing" textLength="158" x="263.84" y="1388.1697">getShape() : boolean[][]</text><ellipse cx="254.84" cy="1403.3056" fill="#84BE84" rx="3" ry="3" style="stroke:#038048;stroke-width:1.0;"/><text fill="#000000" font-family="sans-serif" font-size="14" lengthAdjust="spacing" textLength="148" x="263.84" y="1407.2376">getPosition() : Position</text><ellipse cx="254.84" cy="1422.3735" fill="#84BE84" rx="3" ry="3" style="stroke:#038048;stroke-width:1.0;"/><text fill="#000000" font-family="sans-serif" font-size="14" lengthAdjust="spacing" textLength="122" x="263.84" y="1426.3055">moveDown() : void</text><ellipse cx="254.84" cy="1441.4415" fill="#84BE84" rx="3" ry="3" style="stroke:#038048;stroke-width:1.0;"/><text fill="#000000" font-family="sans-serif" font-size="14" lengthAdjust="spacing" textLength="109" x="263.84" y="1445.3734">moveLeft() : void</text><ellipse cx="254.84" cy="1460.5094" fill="#84BE84" rx="3" ry="3" style="stroke:#038048;stroke-width:1.0;"/><text fill="#000000" font-family="sans-serif" font-size="14" lengthAdjust="spacing" textLength="120" x="263.84" y="1464.4414">moveRight() : void</text><ellipse cx="254.84" cy="1479.5773" fill="#84BE84" rx="3" ry="3" style="stroke:#038048;stroke-width:1.0;"/><text fill="#000000" font-family="sans-serif" font-size="14" lengthAdjust="spacing" textLength="88" x="263.84" y="1483.5093">rotate() : void</text><ellipse cx="254.84" cy="1498.6452" fill="#84BE84" rx="3" ry="3" style="stroke:#038048;stroke-width:1.0;"/><text fill="#000000" font-family="sans-serif" font-size="14" lengthAdjust="spacing" textLength="153" x="263.84" y="1502.5772">rotateClockwise() : void</text><ellipse cx="254.84" cy="1517.7131" fill="#84BE84" rx="3" ry="3" style="stroke:#038048;stroke-width:1.0;"/><text fill="#000000" font-family="sans-serif" font-size="14" lengthAdjust="spacing" textLength="207" x="263.84" y="1521.6451">rotateCounterClockwise() : void</text></g><!--class Position--><g id="elem_Position"><rect codeLine="66" fill="#F1F1F1" height="200.5433" id="Position" rx="2.5" ry="2.5" style="stroke:#181818;stroke-width:0.5;" width="226" x="247.34" y="1609"/><ellipse cx="329.59" cy="1625" fill="#ADD1B2" rx="11" ry="11" style="stroke:#181818;stroke-width:1.0;"/><path d="M332.5588,1630.6406 Q331.9806,1630.9375 331.34,1631.0781 Q330.6994,1631.2344 329.9963,1631.2344 Q327.4963,1631.2344 326.1681,1629.5938 Q324.8556,1627.9375 324.8556,1624.8125 Q324.8556,1621.6875 326.1681,1620.0313 Q327.4963,1618.375 329.9963,1618.375 Q330.6994,1618.375 331.34,1618.5313 Q331.9963,1618.6875 332.5588,1618.9844 L332.5588,1621.7031 Q331.9338,1621.125 331.34,1620.8594 Q330.7463,1620.5781 330.1213,1620.5781 Q328.7775,1620.5781 328.09,1621.6563 Q327.4025,1622.7188 327.4025,1624.8125 Q327.4025,1626.9063 328.09,1627.9844 Q328.7775,1629.0469 330.1213,1629.0469 Q330.7463,1629.0469 331.34,1628.7813 Q331.9338,1628.5 332.5588,1627.9219 L332.5588,1630.6406 Z " fill="#000000"/><text fill="#000000" font-family="sans-serif" font-size="14" lengthAdjust="spacing" textLength="53" x="350.09" y="1630.432">Position</text><line style="stroke:#181818;stroke-width:0.5;" x1="248.34" x2="472.34" y1="1641" y2="1641"/><rect fill="none" height="6" style="stroke:#C82930;stroke-width:1.0;" width="6" x="255.34" y="1653.034"/><text fill="#000000" font-family="sans-serif" font-size="14" lengthAdjust="spacing" textLength="37" x="267.34" y="1659.9659">x : int</text><rect fill="none" height="6" style="stroke:#C82930;stroke-width:1.0;" width="6" x="255.34" y="1672.1019"/><text fill="#000000" font-family="sans-serif" font-size="14" lengthAdjust="spacing" textLength="37" x="267.34" y="1679.0339">y : int</text><line style="stroke:#181818;stroke-width:0.5;" x1="248.34" x2="472.34" y1="1687.1358" y2="1687.1358"/><ellipse cx="258.34" cy="1702.1698" fill="#84BE84" rx="3" ry="3" style="stroke:#038048;stroke-width:1.0;"/><text fill="#000000" font-family="sans-serif" font-size="14" lengthAdjust="spacing" textLength="143" x="267.34" y="1706.1018">Position(x : int, y : int)</text><ellipse cx="258.34" cy="1721.2377" fill="#84BE84" rx="3" ry="3" style="stroke:#038048;stroke-width:1.0;"/><text fill="#000000" font-family="sans-serif" font-size="14" lengthAdjust="spacing" textLength="68" x="267.34" y="1725.1697">getX() : int</text><ellipse cx="258.34" cy="1740.3056" fill="#84BE84" rx="3" ry="3" style="stroke:#038048;stroke-width:1.0;"/><text fill="#000000" font-family="sans-serif" font-size="14" lengthAdjust="spacing" textLength="68" x="267.34" y="1744.2376">getY() : int</text><ellipse cx="258.34" cy="1759.3735" fill="#84BE84" rx="3" ry="3" style="stroke:#038048;stroke-width:1.0;"/><text fill="#000000" font-family="sans-serif" font-size="14" lengthAdjust="spacing" textLength="113" x="267.34" y="1763.3055">setX(x : int) : void</text><ellipse cx="258.34" cy="1778.4415" fill="#84BE84" rx="3" ry="3" style="stroke:#038048;stroke-width:1.0;"/><text fill="#000000" font-family="sans-serif" font-size="14" lengthAdjust="spacing" textLength="113" x="267.34" y="1782.3734">setY(y : int) : void</text><ellipse cx="258.34" cy="1797.5094" fill="#84BE84" rx="3" ry="3" style="stroke:#038048;stroke-width:1.0;"/><text fill="#000000" font-family="sans-serif" font-size="14" lengthAdjust="spacing" textLength="200" x="267.34" y="1801.4414">add(other : Position) : Position</text></g><!--class PieceFactory--><g id="elem_PieceFactory"><rect codeLine="78" fill="#F1F1F1" height="200.5433" id="PieceFactory" rx="2.5" ry="2.5" style="stroke:#181818;stroke-width:0.5;" width="231" x="336.84" y="526"/><ellipse cx="406.59" cy="542" fill="#ADD1B2" rx="11" ry="11" style="stroke:#181818;stroke-width:1.0;"/><path d="M409.5588,547.6406 Q408.9806,547.9375 408.34,548.0781 Q407.6994,548.2344 406.9963,548.2344 Q404.4963,548.2344 403.1681,546.5938 Q401.8556,544.9375 401.8556,541.8125 Q401.8556,538.6875 403.1681,537.0313 Q404.4963,535.375 406.9963,535.375 Q407.6994,535.375 408.34,535.5313 Q408.9963,535.6875 409.5588,535.9844 L409.5588,538.7031 Q408.9338,538.125 408.34,537.8594 Q407.7463,537.5781 407.1213,537.5781 Q405.7775,537.5781 405.09,538.6563 Q404.4025,539.7188 404.4025,541.8125 Q404.4025,543.9063 405.09,544.9844 Q405.7775,546.0469 407.1213,546.0469 Q407.7463,546.0469 408.34,545.7813 Q408.9338,545.5 409.5588,544.9219 L409.5588,547.6406 Z " fill="#000000"/><text fill="#000000" font-family="sans-serif" font-size="14" lengthAdjust="spacing" textLength="83" x="427.09" y="547.432">PieceFactory</text><line style="stroke:#181818;stroke-width:0.5;" x1="337.84" x2="566.84" y1="558" y2="558"/><line style="stroke:#181818;stroke-width:0.5;" x1="337.84" x2="566.84" y1="566" y2="566"/><ellipse cx="347.84" cy="581.034" fill="#84BE84" rx="3" ry="3" style="stroke:#038048;stroke-width:1.0;"/><text fill="#000000" font-family="sans-serif" font-size="14" lengthAdjust="spacing" text-decoration="underline" textLength="137" x="356.84" y="584.9659">createIPiece() : Piece</text><ellipse cx="347.84" cy="600.1019" fill="#84BE84" rx="3" ry="3" style="stroke:#038048;stroke-width:1.0;"/><text fill="#000000" font-family="sans-serif" font-size="14" lengthAdjust="spacing" text-decoration="underline" textLength="143" x="356.84" y="604.0339">createOPiece() : Piece</text><ellipse cx="347.84" cy="619.1698" fill="#84BE84" rx="3" ry="3" style="stroke:#038048;stroke-width:1.0;"/><text fill="#000000" font-family="sans-serif" font-size="14" lengthAdjust="spacing" text-decoration="underline" textLength="140" x="356.84" y="623.1018">createTPiece() : Piece</text><ellipse cx="347.84" cy="638.2377" fill="#84BE84" rx="3" ry="3" style="stroke:#038048;stroke-width:1.0;"/><text fill="#000000" font-family="sans-serif" font-size="14" lengthAdjust="spacing" text-decoration="underline" textLength="139" x="356.84" y="642.1697">createLPiece() : Piece</text><ellipse cx="347.84" cy="657.3056" fill="#84BE84" rx="3" ry="3" style="stroke:#038048;stroke-width:1.0;"/><text fill="#000000" font-family="sans-serif" font-size="14" lengthAdjust="spacing" text-decoration="underline" textLength="199" x="356.84" y="661.2376">createIPieceView() : PieceView</text><ellipse cx="347.84" cy="676.3735" fill="#84BE84" rx="3" ry="3" style="stroke:#038048;stroke-width:1.0;"/><text fill="#000000" font-family="sans-serif" font-size="14" lengthAdjust="spacing" text-decoration="underline" textLength="205" x="356.84" y="680.3055">createOPieceView() : PieceView</text><ellipse cx="347.84" cy="695.4415" fill="#84BE84" rx="3" ry="3" style="stroke:#038048;stroke-width:1.0;"/><text fill="#000000" font-family="sans-serif" font-size="14" lengthAdjust="spacing" text-decoration="underline" textLength="202" x="356.84" y="699.3734">createTPieceView() : PieceView</text><ellipse cx="347.84" cy="714.5094" fill="#84BE84" rx="3" ry="3" style="stroke:#038048;stroke-width:1.0;"/><text fill="#000000" font-family="sans-serif" font-size="14" lengthAdjust="spacing" text-decoration="underline" textLength="201" x="356.84" y="718.4414">createLPieceView() : PieceView</text></g><!--class BoardView--><g id="elem_BoardView"><rect codeLine="89" fill="#F1F1F1" height="105.2038" id="BoardView" rx="2.5" ry="2.5" style="stroke:#181818;stroke-width:0.5;" width="416" x="830.34" y="574"/><ellipse cx="998.59" cy="590" fill="#ADD1B2" rx="11" ry="11" style="stroke:#181818;stroke-width:1.0;"/><path d="M1001.5588,595.6406 Q1000.9806,595.9375 1000.34,596.0781 Q999.6994,596.2344 998.9963,596.2344 Q996.4963,596.2344 995.1681,594.5938 Q993.8556,592.9375 993.8556,589.8125 Q993.8556,586.6875 995.1681,585.0313 Q996.4963,583.375 998.9963,583.375 Q999.6994,583.375 1000.34,583.5313 Q1000.9963,583.6875 1001.5588,583.9844 L1001.5588,586.7031 Q1000.9338,586.125 1000.34,585.8594 Q999.7463,585.5781 999.1213,585.5781 Q997.7775,585.5781 997.09,586.6563 Q996.4025,587.7188 996.4025,589.8125 Q996.4025,591.9063 997.09,592.9844 Q997.7775,594.0469 999.1213,594.0469 Q999.7463,594.0469 1000.34,593.7813 Q1000.9338,593.5 1001.5588,592.9219 L1001.5588,595.6406 Z " fill="#000000"/><text fill="#000000" font-family="sans-serif" font-size="14" lengthAdjust="spacing" textLength="71" x="1019.09" y="595.432">BoardView</text><line style="stroke:#181818;stroke-width:0.5;" x1="831.34" x2="1245.34" y1="606" y2="606"/><rect fill="none" height="6" style="stroke:#C82930;stroke-width:1.0;" width="6" x="838.34" y="618.034"/><text fill="#000000" font-family="sans-serif" font-size="14" lengthAdjust="spacing" textLength="116" x="850.34" y="624.9659">console : Console</text><line style="stroke:#181818;stroke-width:0.5;" x1="831.34" x2="1245.34" y1="633.0679" y2="633.0679"/><ellipse cx="841.34" cy="648.1019" fill="#84BE84" rx="3" ry="3" style="stroke:#038048;stroke-width:1.0;"/><text fill="#000000" font-family="sans-serif" font-size="14" lengthAdjust="spacing" textLength="195" x="850.34" y="652.0339">BoardView(console : Console)</text><ellipse cx="841.34" cy="667.1698" fill="#84BE84" rx="3" ry="3" style="stroke:#038048;stroke-width:1.0;"/><text fill="#000000" font-family="sans-serif" font-size="14" lengthAdjust="spacing" textLength="390" x="850.34" y="671.1018">display(board : Board, currentPieceView : PieceView) : void</text></g><!--class PieceView--><g id="elem_PieceView"><rect codeLine="96" fill="#F1F1F1" height="143.3396" id="PieceView" rx="2.5" ry="2.5" style="stroke:#181818;stroke-width:0.5;" width="350" x="863.34" y="928"/><ellipse cx="1001.09" cy="944" fill="#ADD1B2" rx="11" ry="11" style="stroke:#181818;stroke-width:1.0;"/><path d="M1004.0588,949.6406 Q1003.4806,949.9375 1002.84,950.0781 Q1002.1994,950.2344 1001.4963,950.2344 Q998.9963,950.2344 997.6681,948.5938 Q996.3556,946.9375 996.3556,943.8125 Q996.3556,940.6875 997.6681,939.0313 Q998.9963,937.375 1001.4963,937.375 Q1002.1994,937.375 1002.84,937.5313 Q1003.4963,937.6875 1004.0588,937.9844 L1004.0588,940.7031 Q1003.4338,940.125 1002.84,939.8594 Q1002.2463,939.5781 1001.6213,939.5781 Q1000.2775,939.5781 999.59,940.6563 Q998.9025,941.7188 998.9025,943.8125 Q998.9025,945.9063 999.59,946.9844 Q1000.2775,948.0469 1001.6213,948.0469 Q1002.2463,948.0469 1002.84,947.7813 Q1003.4338,947.5 1004.0588,946.9219 L1004.0588,949.6406 Z " fill="#000000"/><text fill="#000000" font-family="sans-serif" font-size="14" lengthAdjust="spacing" textLength="66" x="1021.59" y="949.432">PieceView</text><line style="stroke:#181818;stroke-width:0.5;" x1="864.34" x2="1212.34" y1="960" y2="960"/><rect fill="none" height="6" style="stroke:#C82930;stroke-width:1.0;" width="6" x="871.34" y="972.034"/><text fill="#000000" font-family="sans-serif" font-size="14" lengthAdjust="spacing" textLength="90" x="883.34" y="978.9659">symbol : char</text><line style="stroke:#181818;stroke-width:0.5;" x1="864.34" x2="1212.34" y1="987.0679" y2="987.0679"/><ellipse cx="874.34" cy="1002.1019" fill="#84BE84" rx="3" ry="3" style="stroke:#038048;stroke-width:1.0;"/><text fill="#000000" font-family="sans-serif" font-size="14" lengthAdjust="spacing" textLength="164" x="883.34" y="1006.0339">PieceView(symbol : char)</text><ellipse cx="874.34" cy="1021.1698" fill="#84BE84" rx="3" ry="3" style="stroke:#038048;stroke-width:1.0;"/><text fill="#000000" font-family="sans-serif" font-size="14" lengthAdjust="spacing" textLength="121" x="883.34" y="1025.1018">getSymbol() : char</text><ellipse cx="874.34" cy="1040.2377" fill="#84BE84" rx="3" ry="3" style="stroke:#038048;stroke-width:1.0;"/><text fill="#000000" font-family="sans-serif" font-size="14" lengthAdjust="spacing" textLength="207" x="883.34" y="1044.1697">setSymbol(symbol : char) : void</text><ellipse cx="874.34" cy="1059.3056" fill="#84BE84" rx="3" ry="3" style="stroke:#038048;stroke-width:1.0;"/><text fill="#000000" font-family="sans-serif" font-size="14" lengthAdjust="spacing" textLength="324" x="883.34" y="1063.2376">render(piece : Piece, displayGrid : char[][]) : void</text></g><!--class Console--><g id="elem_Console"><rect codeLine="105" fill="#F1F1F1" height="387.2225" id="Console" rx="2.5" ry="2.5" style="stroke:#181818;stroke-width:0.5;" width="418" x="1248.34" y="806"/><ellipse cx="1426.59" cy="822" fill="#ADD1B2" rx="11" ry="11" style="stroke:#181818;stroke-width:1.0;"/><path d="M1429.5588,827.6406 Q1428.9806,827.9375 1428.34,828.0781 Q1427.6994,828.2344 1426.9963,828.2344 Q1424.4963,828.2344 1423.1681,826.5938 Q1421.8556,824.9375 1421.8556,821.8125 Q1421.8556,818.6875 1423.1681,817.0313 Q1424.4963,815.375 1426.9963,815.375 Q1427.6994,815.375 1428.34,815.5313 Q1428.9963,815.6875 1429.5588,815.9844 L1429.5588,818.7031 Q1428.9338,818.125 1428.34,817.8594 Q1427.7463,817.5781 1427.1213,817.5781 Q1425.7775,817.5781 1425.09,818.6563 Q1424.4025,819.7188 1424.4025,821.8125 Q1424.4025,823.9063 1425.09,824.9844 Q1425.7775,826.0469 1427.1213,826.0469 Q1427.7463,826.0469 1428.34,825.7813 Q1428.9338,825.5 1429.5588,824.9219 L1429.5588,827.6406 Z " fill="#000000"/><text fill="#000000" font-family="sans-serif" font-size="14" lengthAdjust="spacing" textLength="53" x="1447.09" y="827.432">Console</text><line style="stroke:#181818;stroke-width:0.5;" x1="1249.34" x2="1665.34" y1="838" y2="838"/><text fill="#000000" font-family="sans-serif" font-size="14" lengthAdjust="spacing" textLength="219" x="1268.34" y="856.9659">&#171;enumeration&#187; ForegroundColor</text><text fill="#000000" font-family="sans-serif" font-size="14" lengthAdjust="spacing" textLength="221" x="1268.34" y="876.0339">&#171;enumeration&#187; BackgroundColor</text><text fill="#000000" font-family="sans-serif" font-size="14" lengthAdjust="spacing" textLength="4" x="1268.34" y="895.1018">&#160;</text><rect fill="none" height="6" style="stroke:#C82930;stroke-width:1.0;" width="6" x="1256.34" y="907.2377"/><text fill="#000000" font-family="sans-serif" font-size="14" lengthAdjust="spacing" textLength="226" x="1268.34" y="914.1697">bufferedReader : BufferedReader</text><rect fill="none" height="6" style="stroke:#C82930;stroke-width:1.0;" width="6" x="1256.34" y="926.3056"/><text fill="#000000" font-family="sans-serif" font-size="14" lengthAdjust="spacing" textLength="197" x="1268.34" y="933.2376">supportsAnsiColors : boolean</text><text fill="#000000" font-family="sans-serif" font-size="14" lengthAdjust="spacing" textLength="4" x="1268.34" y="952.3055">&#160;</text><ellipse cx="1259.34" cy="967.4415" fill="#84BE84" rx="3" ry="3" style="stroke:#038048;stroke-width:1.0;"/><text fill="#000000" font-family="sans-serif" font-size="14" lengthAdjust="spacing" textLength="61" x="1268.34" y="971.3734">Console()</text><ellipse cx="1259.34" cy="986.5094" fill="#84BE84" rx="3" ry="3" style="stroke:#038048;stroke-width:1.0;"/><text fill="#000000" font-family="sans-serif" font-size="14" lengthAdjust="spacing" textLength="212" x="1268.34" y="990.4414">readString(title : String) : String</text><ellipse cx="1259.34" cy="1005.5773" fill="#84BE84" rx="3" ry="3" style="stroke:#038048;stroke-width:1.0;"/><text fill="#000000" font-family="sans-serif" font-size="14" lengthAdjust="spacing" textLength="167" x="1268.34" y="1009.5093">readInt(title : String) : int</text><ellipse cx="1259.34" cy="1024.6452" fill="#84BE84" rx="3" ry="3" style="stroke:#038048;stroke-width:1.0;"/><text fill="#000000" font-family="sans-serif" font-size="14" lengthAdjust="spacing" textLength="192" x="1268.34" y="1028.5772">readChar(title : String) : char</text><ellipse cx="1259.34" cy="1043.7131" fill="#84BE84" rx="3" ry="3" style="stroke:#038048;stroke-width:1.0;"/><text fill="#000000" font-family="sans-serif" font-size="14" lengthAdjust="spacing" textLength="160" x="1268.34" y="1047.6451">write(text : String) : void</text><ellipse cx="1259.34" cy="1062.781" fill="#84BE84" rx="3" ry="3" style="stroke:#038048;stroke-width:1.0;"/><text fill="#000000" font-family="sans-serif" font-size="14" lengthAdjust="spacing" textLength="173" x="1268.34" y="1066.713">writeln(text : String) : void</text><ellipse cx="1259.34" cy="1081.849" fill="#84BE84" rx="3" ry="3" style="stroke:#038048;stroke-width:1.0;"/><text fill="#000000" font-family="sans-serif" font-size="14" lengthAdjust="spacing" textLength="127" x="1268.34" y="1085.7809">clearScreen() : void</text><ellipse cx="1259.34" cy="1100.9169" fill="#84BE84" rx="3" ry="3" style="stroke:#038048;stroke-width:1.0;"/><text fill="#000000" font-family="sans-serif" font-size="14" lengthAdjust="spacing" textLength="214" x="1268.34" y="1104.8489">writeError(format : String) : void</text><ellipse cx="1259.34" cy="1143.0527" fill="#84BE84" rx="3" ry="3" style="stroke:#038048;stroke-width:1.0;"/><text fill="#000000" font-family="sans-serif" font-size="14" lengthAdjust="spacing" textLength="268" x="1268.34" y="1146.9847">write/writeln(..., ForegroundColor) : void</text><ellipse cx="1259.34" cy="1162.1206" fill="#84BE84" rx="3" ry="3" style="stroke:#038048;stroke-width:1.0;"/><text fill="#000000" font-family="sans-serif" font-size="14" lengthAdjust="spacing" textLength="270" x="1268.34" y="1166.0526">write/writeln(..., BackgroundColor) : void</text><ellipse cx="1259.34" cy="1181.1885" fill="#84BE84" rx="3" ry="3" style="stroke:#038048;stroke-width:1.0;"/><text fill="#000000" font-family="sans-serif" font-size="14" lengthAdjust="spacing" textLength="392" x="1268.34" y="1185.1205">write/writeln(..., ForegroundColor, BackgroundColor) : void</text><line style="stroke:#181818;stroke-width:1.0;stroke-dasharray:1.0,2.0;" x1="1249.34" x2="1383.34" y1="1122.4848" y2="1122.4848"/><text fill="#000000" font-family="sans-serif" font-size="14" lengthAdjust="spacing" textLength="148" x="1383.34" y="1127.4168">Overloads con colores</text><line style="stroke:#181818;stroke-width:1.0;stroke-dasharray:1.0,2.0;" x1="1531.34" x2="1665.34" y1="1122.4848" y2="1122.4848"/></g><g id="elem_GMN28"><path d="M859.34,287 L859.34,323.5 L824.12,327.5 L859.34,331.5 L859.34,367.8241 A0,0 0 0 0 859.34,367.8241 L1071.34,367.8241 A0,0 0 0 0 1071.34,367.8241 L1071.34,297 L1061.34,287 L859.34,287 A0,0 0 0 0 859.34,287 " fill="#FEFFDD" style="stroke:#181818;stroke-width:0.5;"/><path d="M1061.34,287 L1061.34,297 L1071.34,297 L1061.34,287 " fill="#FEFFDD" style="stroke:#181818;stroke-width:0.5;"/><text fill="#000000" font-family="sans-serif" font-size="13" font-weight="bold" lengthAdjust="spacing" textLength="140" x="865.34" y="305.897">Controlador principal</text><text fill="#000000" font-family="sans-serif" font-size="13" lengthAdjust="spacing" textLength="163" x="865.34" y="323.603">Implementa el game loop y</text><text fill="#000000" font-family="sans-serif" font-size="13" lengthAdjust="spacing" textLength="191" x="865.34" y="341.309">coordina todas las interacciones</text><text fill="#000000" font-family="sans-serif" font-size="13" lengthAdjust="spacing" textLength="125" x="865.34" y="359.0151">entre modelo y vista.</text></g><g id="elem_GMN31"><path d="M614.84,950 L614.84,995.5 L579.62,999.5 L614.84,1003.5 L614.84,1048.5301 A0,0 0 0 0 614.84,1048.5301 L827.84,1048.5301 A0,0 0 0 0 827.84,1048.5301 L827.84,960 L817.84,950 L614.84,950 A0,0 0 0 0 614.84,950 " fill="#FEFFDD" style="stroke:#181818;stroke-width:0.5;"/><path d="M817.84,950 L817.84,960 L827.84,960 L817.84,950 " fill="#FEFFDD" style="stroke:#181818;stroke-width:0.5;"/><text fill="#000000" font-family="sans-serif" font-size="13" font-weight="bold" lengthAdjust="spacing" textLength="122" x="620.84" y="968.897">Modelo del tablero</text><text fill="#000000" font-family="sans-serif" font-size="13" lengthAdjust="spacing" textLength="171" x="620.84" y="986.603">Usa char[][] para representar</text><text fill="#000000" font-family="sans-serif" font-size="13" lengthAdjust="spacing" textLength="192" x="620.84" y="1004.309">el estado permanente del juego.</text><text fill="#000000" font-family="sans-serif" font-size="13" lengthAdjust="spacing" textLength="177" x="620.84" y="1022.0151">Gestiona validaciones y l&#243;gica</text><text fill="#000000" font-family="sans-serif" font-size="13" lengthAdjust="spacing" textLength="69" x="620.84" y="1039.7211">de negocio.</text></g><g id="elem_GMN34"><path d="M511.84,1360.5 L511.84,1397 L477.04,1401 L511.84,1405 L511.84,1441.3241 A0,0 0 0 0 511.84,1441.3241 L708.84,1441.3241 A0,0 0 0 0 708.84,1441.3241 L708.84,1370.5 L698.84,1360.5 L511.84,1360.5 A0,0 0 0 0 511.84,1360.5 " fill="#FEFFDD" style="stroke:#181818;stroke-width:0.5;"/><path d="M698.84,1360.5 L698.84,1370.5 L708.84,1370.5 L698.84,1360.5 " fill="#FEFFDD" style="stroke:#181818;stroke-width:0.5;"/><text fill="#000000" font-family="sans-serif" font-size="13" font-weight="bold" lengthAdjust="spacing" textLength="104" x="517.84" y="1379.397">Modelo de pieza</text><text fill="#000000" font-family="sans-serif" font-size="13" lengthAdjust="spacing" textLength="176" x="517.84" y="1397.103">Usa boolean[][] para la forma.</text><text fill="#000000" font-family="sans-serif" font-size="13" lengthAdjust="spacing" textLength="159" x="517.84" y="1414.809">Implementa algoritmos de</text><text fill="#000000" font-family="sans-serif" font-size="13" lengthAdjust="spacing" textLength="107" x="517.84" y="1432.5151">rotaci&#243;n matricial.</text></g><g id="elem_GMN37"><path d="M603.34,586 L603.34,622.5 L568.12,626.5 L603.34,630.5 L603.34,666.8241 A0,0 0 0 0 603.34,666.8241 L795.34,666.8241 A0,0 0 0 0 795.34,666.8241 L795.34,596 L785.34,586 L603.34,586 A0,0 0 0 0 603.34,586 " fill="#FEFFDD" style="stroke:#181818;stroke-width:0.5;"/><path d="M785.34,586 L785.34,596 L795.34,596 L785.34,586 " fill="#FEFFDD" style="stroke:#181818;stroke-width:0.5;"/><text fill="#000000" font-family="sans-serif" font-size="13" font-weight="bold" lengthAdjust="spacing" textLength="103" x="609.34" y="604.897">Factory Method</text><text fill="#000000" font-family="sans-serif" font-size="13" lengthAdjust="spacing" textLength="144" x="609.34" y="622.603">Encapsula la creaci&#243;n de</text><text fill="#000000" font-family="sans-serif" font-size="13" lengthAdjust="spacing" textLength="171" x="609.34" y="640.309">piezas y sus vistas asociadas.</text><text fill="#000000" font-family="sans-serif" font-size="13" lengthAdjust="spacing" textLength="136" x="609.34" y="658.0151">Garantiza consistencia.</text></g><g id="elem_GMN40"><path d="M1316.34,1343 L1316.34,1459.2361 A0,0 0 0 0 1316.34,1459.2361 L1598.34,1459.2361 A0,0 0 0 0 1598.34,1459.2361 L1598.34,1353 L1588.34,1343 L1461.34,1343 L1457.34,1193.23 L1453.34,1343 L1316.34,1343 A0,0 0 0 0 1316.34,1343 " fill="#FEFFDD" style="stroke:#181818;stroke-width:0.5;"/><path d="M1588.34,1343 L1588.34,1353 L1598.34,1353 L1588.34,1343 " fill="#FEFFDD" style="stroke:#181818;stroke-width:0.5;"/><text fill="#000000" font-family="sans-serif" font-size="13" font-weight="bold" lengthAdjust="spacing" textLength="94" x="1322.34" y="1361.897">Utilidad de I/O</text><text fill="#000000" font-family="sans-serif" font-size="13" lengthAdjust="spacing" textLength="173" x="1322.34" y="1379.603">Abstrae la entrada/salida con</text><text fill="#000000" font-family="sans-serif" font-size="13" lengthAdjust="spacing" textLength="212" x="1322.34" y="1397.309">soporte opcional para colores ANSI.</text><text fill="#000000" font-family="sans-serif" font-size="13" lengthAdjust="spacing" textLength="261" x="1322.34" y="1415.0151">Los m&#233;todos mostrados son los principales,</text><text fill="#000000" font-family="sans-serif" font-size="13" lengthAdjust="spacing" textLength="193" x="1322.34" y="1432.7211">existen m&#250;ltiples overloads para</text><text fill="#000000" font-family="sans-serif" font-size="13" lengthAdjust="spacing" textLength="152" x="1322.34" y="1450.4271">diferentes tipos y colores.</text></g><!--class Game--><g id="elem_Game"><rect codeLine="3" fill="#F1F1F1" height="67.0679" id="Game" rx="2.5" ry="2.5" style="stroke:#181818;stroke-width:0.5;" width="201" x="581.84" y="22"/><ellipse cx="658.59" cy="38" fill="#ADD1B2" rx="11" ry="11" style="stroke:#181818;stroke-width:1.0;"/><path d="M661.5588,43.6406 Q660.9806,43.9375 660.34,44.0781 Q659.6994,44.2344 658.9963,44.2344 Q656.4963,44.2344 655.1681,42.5938 Q653.8556,40.9375 653.8556,37.8125 Q653.8556,34.6875 655.1681,33.0313 Q656.4963,31.375 658.9963,31.375 Q659.6994,31.375 660.34,31.5313 Q660.9963,31.6875 661.5588,31.9844 L661.5588,34.7031 Q660.9338,34.125 660.34,33.8594 Q659.7463,33.5781 659.1213,33.5781 Q657.7775,33.5781 657.09,34.6563 Q656.4025,35.7188 656.4025,37.8125 Q656.4025,39.9063 657.09,40.9844 Q657.7775,42.0469 659.1213,42.0469 Q659.7463,42.0469 660.34,41.7813 Q660.9338,41.5 661.5588,40.9219 L661.5588,43.6406 Z " fill="#000000"/><text fill="#000000" font-family="sans-serif" font-size="14" lengthAdjust="spacing" textLength="39" x="679.09" y="43.432">Game</text><line style="stroke:#181818;stroke-width:0.5;" x1="582.84" x2="781.84" y1="54" y2="54"/><line style="stroke:#181818;stroke-width:0.5;" x1="582.84" x2="781.84" y1="62" y2="62"/><ellipse cx="592.84" cy="77.034" fill="#84BE84" rx="3" ry="3" style="stroke:#038048;stroke-width:1.0;"/><text fill="#000000" font-family="sans-serif" font-size="14" lengthAdjust="spacing" text-decoration="underline" textLength="175" x="601.84" y="80.9659">main(args : String[]) : void</text></g><g id="elem_GMN3"><path d="M817.84,6 L817.84,51.5 L783.12,55.5 L817.84,59.5 L817.84,104.5301 A0,0 0 0 0 817.84,104.5301 L1026.84,104.5301 A0,0 0 0 0 1026.84,104.5301 L1026.84,16 L1016.84,6 L817.84,6 A0,0 0 0 0 817.84,6 " fill="#FEFFDD" style="stroke:#181818;stroke-width:0.5;"/><path d="M1016.84,6 L1016.84,16 L1026.84,16 L1016.84,6 " fill="#FEFFDD" style="stroke:#181818;stroke-width:0.5;"/><text fill="#000000" font-family="sans-serif" font-size="13" font-weight="bold" lengthAdjust="spacing" textLength="115" x="823.84" y="24.897">Punto de entrada</text><text fill="#000000" font-family="sans-serif" font-size="13" lengthAdjust="spacing" textLength="188" x="823.84" y="42.603">Clase m&#237;nima que solo contiene</text><text fill="#000000" font-family="sans-serif" font-size="13" lengthAdjust="spacing" textLength="162" x="823.84" y="60.309">el m&#233;todo main(). Separa la</text><text fill="#000000" font-family="sans-serif" font-size="13" lengthAdjust="spacing" textLength="176" x="823.84" y="78.0151">inicializaci&#243;n del programa de</text><text fill="#000000" font-family="sans-serif" font-size="13" lengthAdjust="spacing" textLength="109" x="823.84" y="95.7211">la l&#243;gica del juego.</text></g><!--link Game to Tetris--><g id="link_Game_Tetris"><path codeLine="126" d="M682.34,89.07 C682.34,118.73 682.34,158.4 682.34,201.8 " fill="none" id="Game-to-Tetris" style="stroke:#181818;stroke-width:1.0;stroke-dasharray:7.0,7.0;"/><polygon fill="#181818" points="682.34,207.8,686.34,198.8,682.34,202.8,678.34,198.8,682.34,207.8" style="stroke:#181818;stroke-width:1.0;"/><text fill="#000000" font-family="sans-serif" font-size="13" lengthAdjust="spacing" textLength="25" x="683.34" y="149.897">crea</text></g><!--reverse link Tetris to Board--><g id="link_Tetris_Board"><path codeLine="128" d="M529.1982,357.9604 C433.4582,383.9204 325.47,430.98 265.34,526 C207.62,617.21 232.19,736.47 270.78,832.36 " fill="none" id="Tetris-backto-Board" style="stroke:#181818;stroke-width:1.0;"/><polygon fill="#181818" points="540.78,354.82,533.9423,352.5296,529.1982,357.9604,536.0359,360.2508,540.78,354.82" style="stroke:#181818;stroke-width:1.0;"/><text fill="#000000" font-family="sans-serif" font-size="13" lengthAdjust="spacing" textLength="52" x="266.34" y="631.897">contiene</text></g><!--reverse link Tetris to BoardView--><g id="link_Tetris_BoardView"><path codeLine="129" d="M833.2749,454.4267 C886.2149,498.5867 934.4,538.79 976.46,573.88 " fill="none" id="Tetris-backto-BoardView" style="stroke:#181818;stroke-width:1.0;"/><polygon fill="#181818" points="824.06,446.74,826.1053,453.655,833.2749,454.4267,831.2297,447.5117,824.06,446.74" style="stroke:#181818;stroke-width:1.0;"/><text fill="#000000" font-family="sans-serif" font-size="13" lengthAdjust="spacing" textLength="35" x="882.34" y="491.897">utiliza</text></g><!--reverse link Tetris to Console--><g id="link_Tetris_Console"><path codeLine="130" d="M834.5212,443.6866 C840.6412,446.8766 836.16,444.31 842.34,447 C1017.24,523.28 1116.45,405.42 1264.34,526 C1349.33,595.29 1397.25,708.01 1424.08,805.97 " fill="none" id="Tetris-backto-Console" style="stroke:#181818;stroke-width:1.0;"/><polygon fill="#181818" points="823.88,438.14,827.3517,444.4604,834.5212,443.6866,831.0495,437.3663,823.88,438.14" style="stroke:#181818;stroke-width:1.0;"/><text fill="#000000" font-family="sans-serif" font-size="13" lengthAdjust="spacing" textLength="35" x="1398.34" y="631.897">utiliza</text></g><!--reverse link Tetris to PieceFactory--><g id="link_Tetris_PieceFactory"><path codeLine="131" d="M583.1027,456.6477 C562.9527,482.6677 549.17,500.46 529.66,525.65 " fill="none" id="Tetris-backto-PieceFactory" style="stroke:#181818;stroke-width:1.0;"/><polygon fill="#181818" points="590.45,447.16,583.6138,449.4547,583.1027,456.6477,589.9389,454.353,590.45,447.16" style="stroke:#181818;stroke-width:1.0;"/><text fill="#000000" font-family="sans-serif" font-size="13" lengthAdjust="spacing" textLength="35" x="568.34" y="491.897">utiliza</text></g><!--reverse link Board to Piece--><g id="link_Board_Piece"><path codeLine="133" d="M360.34,1178.74 C360.34,1213.88 360.34,1238.44 360.34,1271.9 " fill="none" id="Board-backto-Piece" style="stroke:#181818;stroke-width:1.0;"/><polygon fill="#181818" points="360.34,1166.74,356.34,1172.74,360.34,1178.74,364.34,1172.74,360.34,1166.74" style="stroke:#181818;stroke-width:1.0;"/><text fill="#000000" font-family="sans-serif" font-size="13" lengthAdjust="spacing" textLength="125" x="361.34" y="1237.897">contiene pieza actual</text></g><!--reverse link Piece to Position--><g id="link_Piece_Position"><path codeLine="135" d="M360.34,1542.21 C360.34,1568.45 360.34,1583.71 360.34,1608.78 " fill="none" id="Piece-backto-Position" style="stroke:#181818;stroke-width:1.0;"/><polygon fill="#181818" points="360.34,1530.21,356.34,1536.21,360.34,1542.21,364.34,1536.21,360.34,1530.21" style="stroke:#181818;stroke-width:1.0;"/><text fill="#000000" font-family="sans-serif" font-size="13" lengthAdjust="spacing" textLength="30" x="361.34" y="1574.897">tiene</text></g><!--link PieceFactory to Piece--><g id="link_PieceFactory_Piece"><path codeLine="137" d="M336.71,651.7 C254,675.71 148.45,721.57 96.34,806 C6,952.36 21.07,1038.34 96.34,1193 C127.24,1256.5 183.0075,1303.0913 238.5075,1337.9113 " fill="none" id="PieceFactory-to-Piece" style="stroke:#181818;stroke-width:1.0;stroke-dasharray:7.0,7.0;"/><polygon fill="#181818" points="243.59,1341.1,238.092,1332.9286,239.3546,1338.4427,233.8404,1339.7053,243.59,1341.1" style="stroke:#181818;stroke-width:1.0;"/><text fill="#000000" font-family="sans-serif" font-size="13" lengthAdjust="spacing" textLength="25" x="97.34" y="1004.897">crea</text></g><!--link PieceFactory to PieceView--><g id="link_PieceFactory_PieceView"><path codeLine="138" d="M568.12,717.05 C574.17,720.59 580.26,723.93 586.34,727 C640.06,754.11 793.73,775.06 845.34,806 C898.31,837.76 943.4965,882.6292 978.9265,923.4392 " fill="none" id="PieceFactory-to-PieceView" style="stroke:#181818;stroke-width:1.0;stroke-dasharray:7.0,7.0;"/><polygon fill="#181818" points="982.86,927.97,979.9803,918.5515,979.5821,924.1944,973.9393,923.7962,982.86,927.97" style="stroke:#181818;stroke-width:1.0;"/><text fill="#000000" font-family="sans-serif" font-size="13" lengthAdjust="spacing" textLength="25" x="760.34" y="771.897">crea</text></g><!--reverse link BoardView to Console--><g id="link_BoardView_Console"><path codeLine="140" d="M1105.5847,687.0445 C1145.6147,722.4845 1192.42,763.93 1248.19,813.31 " fill="none" id="BoardView-backto-Console" style="stroke:#181818;stroke-width:1.0;"/><polygon fill="#181818" points="1096.6,679.09,1098.4409,686.0622,1105.5847,687.0445,1103.7439,680.0723,1096.6,679.09" style="stroke:#181818;stroke-width:1.0;"/><text fill="#000000" font-family="sans-serif" font-size="13" lengthAdjust="spacing" textLength="35" x="1198.34" y="771.897">utiliza</text></g><!--link BoardView to Board--><g id="link_BoardView_Board"><path codeLine="141" d="M970.31,679.06 C923.34,712.03 858.07,752.82 794.34,776 C711.11,806.28 678.33,770.16 597.34,806 C580.5,813.45 568.9709,819.287 552.7909,829.237 " fill="none" id="BoardView-to-Board" style="stroke:#181818;stroke-width:1.0;stroke-dasharray:7.0,7.0;"/><polygon fill="#181818" points="547.68,832.38,557.4417,831.0728,551.9391,829.7608,553.2511,824.2582,547.68,832.38" style="stroke:#181818;stroke-width:1.0;"/><text fill="#000000" font-family="sans-serif" font-size="13" lengthAdjust="spacing" textLength="50" x="837.34" y="771.897">visualiza</text></g><!--link BoardView to PieceView--><g id="link_BoardView_PieceView"><path codeLine="142" d="M1038.34,679.09 C1038.34,743.79 1038.34,849.05 1038.34,921.69 " fill="none" id="BoardView-to-PieceView" style="stroke:#181818;stroke-width:1.0;stroke-dasharray:7.0,7.0;"/><polygon fill="#181818" points="1038.34,927.69,1042.34,918.69,1038.34,922.69,1034.34,918.69,1038.34,927.69" style="stroke:#181818;stroke-width:1.0;"/><text fill="#000000" font-family="sans-serif" font-size="13" lengthAdjust="spacing" textLength="129" x="1039.34" y="771.897">utiliza para renderizar</text></g><!--link PieceView to Piece--><g id="link_PieceView_Piece"><path codeLine="144" d="M984.89,1071.05 C949.68,1112.66 900.08,1162.9 845.34,1193 C705.22,1270.05 635.28,1196.47 494.34,1272 C488.53,1275.12 487.8135,1275.2691 482.1635,1278.9591 " fill="none" id="PieceView-to-Piece" style="stroke:#181818;stroke-width:1.0;stroke-dasharray:7.0,7.0;"/><polygon fill="#181818" points="477.14,1282.24,486.8626,1280.6677,481.3263,1279.5059,482.4881,1273.9697,477.14,1282.24" style="stroke:#181818;stroke-width:1.0;"/><text fill="#000000" font-family="sans-serif" font-size="13" lengthAdjust="spacing" textLength="56" x="769.34" y="1237.897">renderiza</text></g><!--SRC=[bLXBJoCv4Bxthx0u9Gk4-mWX3TaPDXBp48_T6I4EbUuYyKx7xhNTX0pY1-rXJtFRAtziowzkTwV3i4WGn_MvNFMvNAuYBq5hTWOhP8yPevzzzgWD69u_iHLmCGArqEmDkpIAYyNDxPZ6zv8NsLEM2McGARvO6YRld0wduNX-yhaMHh826GgZe83Ze_c9aqrfEsIhvty4Nm7xgqQcPIbPBeNXAFnwB0dmjv65z1QC9-mIAr30Id00BdZEeUJV8UVFFmJjKx9AoOK2qbbu9IMXdtyiU0vE_6UD2pd9K1JCMfrb5UJVO87iwjtLnUoIVCzonyGLagCwS778vX9KGIwVsizqxdUEwpXlnq6s818kQY68AvBEfImHH93fN2gaMIvCc26toNqxD_MZE5yhHSnzvfXZsAWPEqWuAM_iQCqBi_IA3zWItO6uR-E0qnMinKTSEoMZvWZzPiHSZbfVQrGpKTLcnEtVviWxw7tduBcKrIWDXC2T8wEXRg6uPIvVWhgvlRaDiucjOIOrUC3_w7lgjzlePswJ6Y9VUMpV2pH_sDLkFkxhfdzpUhRdpyWRDzlnXwX5Cqsi7LMfpTkxTh3ZZc_xB0VnGTxZWA836yG6laHltRUlmTjUe3az5vBkyB2cl9JvjpNNsAxRLb6La0ylrvlLN9Q1Y9w3Zl2fN5Kb6Zpd0dL3v5CC4d-eCKZq4gh4a2HGAgcvuLBOdSCm3G5lsy3oSKlsfPMEnWFgdJYgzUUGxh7FLdGElygrw0UEdJ_7EpCqVz54JY9GxY26PwVn97Q89MLHL0Eebin8KkJpeNEFDicto5jq-Y76qgQRAuYOBzlX_xKtfItgeGt0n7XjqPj14HJ5I9ebgeJm3ldTA7aFkP5gi_qmvGg9dzdmBUgXFhqATVKgrFchKBCcLxV89dFliE-rwAl_XJxVXNxgf6ptn3o- -2QbYTVfsuB5-2cufkIn6NLUpeCNdxI1k6vWJQ98qyvM8d0cTJDJaWRSV9Eysp0DWfSo6jbSeDfAnjx7i-uBj-r6e2OuSNoCebwX0Xlg9oViFPK32qMNl9XI3QG6CQTKflGniGofx-vGON61KBWRTTgPYBpLLIMLqM-5vaw5xkNwu6WmTJHk78V25m0ZmuqxwBOUyAC4EHDc0DQc2ukP4aq3eEH8refJgZJuiBFwS8XIl8XnZz0bNG3Sojvk-Jkbf1hTIRM27Jecaq_tg4e9XRRNWNw9DzIJIQhcADeocKmE-cSvj6ztGUzWVxwWjyDk3HHzhfoVJ4vYDVk6xTc4i9TbOUANmyDGhLbHABxtjgJXekxLXjjgkmEODWbWKDn9u2acy_iscDG2HlViEp1QLKD9K0zmqBOQs0l6PfqjhBUjFkVii3pw50Xf_TpbL8kmEXhMxhckOGZHsILeOQvzySc4lgfeVNUHNT1W2DBli3oziSSYMusI9HHIKGtFHSuhA9j6QsQBi1LbNB3zbAtQMKbbEziuQIwbAhW0HbqMQ6gMjBsib7Rod4X6luVjtQXNarHiIgeIo643QGlLDQxjaCYs3twHxRmCp4jKiZ7iMaEJCICj5TqkQwgA_H_ILjJ-LKYNL904qoREOiu8GPO2kwSpAC1RJKQ6dizXgFqKj81akwrkd_7KQX-77PEJ2fA5NfIv73BfqmtbGjB5NKbjDJcfhUTygqevHxdczIScXR2DbiKe_e1cAOl6i7SYXqhNfRF61dJiXvtKEM59qRNsfwSPQEA36d8TQ2HFwEfHWDhtd218ORHzo7DfZ5nPuzAQWEowjk5TG64zdHrzQWnxEzVKzwCrA_m7u4YxWxBxE8IMzbb29YjxTb1wKaEcPMy_NiwyXUT4O_Xl00saLMj7cb91IPzDuAC-yC7puBoWDV-MXjEXQ2QRP6xtyA71xKj9SQKPWQGbAIRvnFUdx3y0]--></g></svg>