<?xml version="1.0" encoding="us-ascii" standalone="no"?><svg xmlns="http://www.w3.org/2000/svg" xmlns:xlink="http://www.w3.org/1999/xlink" contentStyleType="text/css" height="1055px" preserveAspectRatio="none" style="width:697px;height:1055px;background:#FFFFFF;" version="1.1" viewBox="0 0 697 1055" width="697px" zoomAndPan="magnify"><defs/><g><!--class Juego--><g id="elem_Juego"><rect codeLine="2" fill="#F1F1F1" height="143.3396" id="Juego" rx="2.5" ry="2.5" style="stroke:#181818;stroke-width:0.5;" width="163" x="325.42" y="7"/><ellipse cx="383.67" cy="23" fill="#ADD1B2" rx="11" ry="11" style="stroke:#181818;stroke-width:1.0;"/><path d="M386.6388,28.6406 Q386.0606,28.9375 385.42,29.0781 Q384.7794,29.2344 384.0763,29.2344 Q381.5763,29.2344 380.2481,27.5938 Q378.9356,25.9375 378.9356,22.8125 Q378.9356,19.6875 380.2481,18.0313 Q381.5763,16.375 384.0763,16.375 Q384.7794,16.375 385.42,16.5313 Q386.0763,16.6875 386.6388,16.9844 L386.6388,19.7031 Q386.0138,19.125 385.42,18.8594 Q384.8263,18.5781 384.2013,18.5781 Q382.8575,18.5781 382.17,19.6563 Q381.4825,20.7188 381.4825,22.8125 Q381.4825,24.9063 382.17,25.9844 Q382.8575,27.0469 384.2013,27.0469 Q384.8263,27.0469 385.42,26.7813 Q386.0138,26.5 386.6388,25.9219 L386.6388,28.6406 Z " fill="#000000"/><text fill="#000000" font-family="sans-serif" font-size="14" lengthAdjust="spacing" textLength="38" x="404.17" y="28.432">Juego</text><line style="stroke:#181818;stroke-width:0.5;" x1="326.42" x2="487.42" y1="39" y2="39"/><rect fill="none" height="6" style="stroke:#C82930;stroke-width:1.0;" width="6" x="333.42" y="51.034"/><text fill="#000000" font-family="sans-serif" font-size="14" lengthAdjust="spacing" textLength="77" x="345.42" y="57.9659">puntuacion</text><rect fill="none" height="6" style="stroke:#C82930;stroke-width:1.0;" width="6" x="333.42" y="70.1019"/><text fill="#000000" font-family="sans-serif" font-size="14" lengthAdjust="spacing" textLength="45" x="345.42" y="77.0339">estado</text><line style="stroke:#181818;stroke-width:0.5;" x1="326.42" x2="487.42" y1="85.1358" y2="85.1358"/><ellipse cx="336.42" cy="100.1698" fill="#84BE84" rx="3" ry="3" style="stroke:#038048;stroke-width:1.0;"/><text fill="#000000" font-family="sans-serif" font-size="14" lengthAdjust="spacing" textLength="50" x="345.42" y="104.1018">iniciar()</text><ellipse cx="336.42" cy="119.2377" fill="#84BE84" rx="3" ry="3" style="stroke:#038048;stroke-width:1.0;"/><text fill="#000000" font-family="sans-serif" font-size="14" lengthAdjust="spacing" textLength="67" x="345.42" y="123.1697">terminar()</text><ellipse cx="336.42" cy="138.3056" fill="#84BE84" rx="3" ry="3" style="stroke:#038048;stroke-width:1.0;"/><text fill="#000000" font-family="sans-serif" font-size="14" lengthAdjust="spacing" textLength="137" x="345.42" y="142.2376">obtenerPuntuacion()</text></g><!--class Tablero--><g id="elem_Tablero"><rect codeLine="10" fill="#F1F1F1" height="162.4075" id="Tablero" rx="2.5" ry="2.5" style="stroke:#181818;stroke-width:0.5;" width="204" x="136.92" y="480"/><ellipse cx="209.17" cy="496" fill="#ADD1B2" rx="11" ry="11" style="stroke:#181818;stroke-width:1.0;"/><path d="M212.1388,501.6406 Q211.5606,501.9375 210.92,502.0781 Q210.2794,502.2344 209.5763,502.2344 Q207.0763,502.2344 205.7481,500.5938 Q204.4356,498.9375 204.4356,495.8125 Q204.4356,492.6875 205.7481,491.0313 Q207.0763,489.375 209.5763,489.375 Q210.2794,489.375 210.92,489.5313 Q211.5763,489.6875 212.1388,489.9844 L212.1388,492.7031 Q211.5138,492.125 210.92,491.8594 Q210.3263,491.5781 209.7013,491.5781 Q208.3575,491.5781 207.67,492.6563 Q206.9825,493.7188 206.9825,495.8125 Q206.9825,497.9063 207.67,498.9844 Q208.3575,500.0469 209.7013,500.0469 Q210.3263,500.0469 210.92,499.7813 Q211.5138,499.5 212.1388,498.9219 L212.1388,501.6406 Z " fill="#000000"/><text fill="#000000" font-family="sans-serif" font-size="14" lengthAdjust="spacing" textLength="51" x="229.67" y="501.432">Tablero</text><line style="stroke:#181818;stroke-width:0.5;" x1="137.92" x2="339.92" y1="512" y2="512"/><rect fill="none" height="6" style="stroke:#C82930;stroke-width:1.0;" width="6" x="144.92" y="524.034"/><text fill="#000000" font-family="sans-serif" font-size="14" lengthAdjust="spacing" textLength="86" x="156.92" y="530.9659">dimensiones</text><rect fill="none" height="6" style="stroke:#C82930;stroke-width:1.0;" width="6" x="144.92" y="543.1019"/><text fill="#000000" font-family="sans-serif" font-size="14" lengthAdjust="spacing" textLength="45" x="156.92" y="550.0339">estado</text><line style="stroke:#181818;stroke-width:0.5;" x1="137.92" x2="339.92" y1="558.1358" y2="558.1358"/><ellipse cx="147.92" cy="573.1698" fill="#84BE84" rx="3" ry="3" style="stroke:#038048;stroke-width:1.0;"/><text fill="#000000" font-family="sans-serif" font-size="14" lengthAdjust="spacing" textLength="133" x="156.92" y="577.1018">validarMovimiento()</text><ellipse cx="147.92" cy="592.2377" fill="#84BE84" rx="3" ry="3" style="stroke:#038048;stroke-width:1.0;"/><text fill="#000000" font-family="sans-serif" font-size="14" lengthAdjust="spacing" textLength="91" x="156.92" y="596.1697">colocarPieza()</text><ellipse cx="147.92" cy="611.3056" fill="#84BE84" rx="3" ry="3" style="stroke:#038048;stroke-width:1.0;"/><text fill="#000000" font-family="sans-serif" font-size="14" lengthAdjust="spacing" textLength="178" x="156.92" y="615.2376">eliminarLineasCompletas()</text><ellipse cx="147.92" cy="630.3735" fill="#84BE84" rx="3" ry="3" style="stroke:#038048;stroke-width:1.0;"/><text fill="#000000" font-family="sans-serif" font-size="14" lengthAdjust="spacing" textLength="72" x="156.92" y="634.3055">estaLleno()</text></g><!--class Pieza--><g id="elem_Pieza"><rect codeLine="19" fill="#F1F1F1" height="143.3396" id="Pieza" rx="2.5" ry="2.5" style="stroke:#181818;stroke-width:0.5;" width="129" x="291.42" y="721"/><ellipse cx="334.32" cy="737" fill="#ADD1B2" rx="11" ry="11" style="stroke:#181818;stroke-width:1.0;"/><path d="M337.2888,742.6406 Q336.7106,742.9375 336.07,743.0781 Q335.4294,743.2344 334.7263,743.2344 Q332.2263,743.2344 330.8981,741.5938 Q329.5856,739.9375 329.5856,736.8125 Q329.5856,733.6875 330.8981,732.0313 Q332.2263,730.375 334.7263,730.375 Q335.4294,730.375 336.07,730.5313 Q336.7263,730.6875 337.2888,730.9844 L337.2888,733.7031 Q336.6638,733.125 336.07,732.8594 Q335.4763,732.5781 334.8513,732.5781 Q333.5075,732.5781 332.82,733.6563 Q332.1325,734.7188 332.1325,736.8125 Q332.1325,738.9063 332.82,739.9844 Q333.5075,741.0469 334.8513,741.0469 Q335.4763,741.0469 336.07,740.7813 Q336.6638,740.5 337.2888,739.9219 L337.2888,742.6406 Z " fill="#000000"/><text fill="#000000" font-family="sans-serif" font-size="14" lengthAdjust="spacing" textLength="35" x="354.52" y="742.432">Pieza</text><line style="stroke:#181818;stroke-width:0.5;" x1="292.42" x2="419.42" y1="753" y2="753"/><rect fill="none" height="6" style="stroke:#C82930;stroke-width:1.0;" width="6" x="299.42" y="765.034"/><text fill="#000000" font-family="sans-serif" font-size="14" lengthAdjust="spacing" textLength="40" x="311.42" y="771.9659">forma</text><rect fill="none" height="6" style="stroke:#C82930;stroke-width:1.0;" width="6" x="299.42" y="784.1019"/><text fill="#000000" font-family="sans-serif" font-size="14" lengthAdjust="spacing" textLength="56" x="311.42" y="791.0339">posicion</text><line style="stroke:#181818;stroke-width:0.5;" x1="292.42" x2="419.42" y1="799.1358" y2="799.1358"/><ellipse cx="302.42" cy="814.1698" fill="#84BE84" rx="3" ry="3" style="stroke:#038048;stroke-width:1.0;"/><text fill="#000000" font-family="sans-serif" font-size="14" lengthAdjust="spacing" textLength="50" x="311.42" y="818.1018">mover()</text><ellipse cx="302.42" cy="833.2377" fill="#84BE84" rx="3" ry="3" style="stroke:#038048;stroke-width:1.0;"/><text fill="#000000" font-family="sans-serif" font-size="14" lengthAdjust="spacing" textLength="41" x="311.42" y="837.1697">rotar()</text><ellipse cx="302.42" cy="852.3056" fill="#84BE84" rx="3" ry="3" style="stroke:#038048;stroke-width:1.0;"/><text fill="#000000" font-family="sans-serif" font-size="14" lengthAdjust="spacing" textLength="103" x="311.42" y="856.2376">obtenerForma()</text></g><!--class Posicion--><g id="elem_Posicion"><rect codeLine="27" fill="#F1F1F1" height="105.2038" id="Posicion" rx="2.5" ry="2.5" style="stroke:#181818;stroke-width:0.5;" width="114" x="287.92" y="943"/><ellipse cx="315.07" cy="959" fill="#ADD1B2" rx="11" ry="11" style="stroke:#181818;stroke-width:1.0;"/><path d="M318.0388,964.6406 Q317.4606,964.9375 316.82,965.0781 Q316.1794,965.2344 315.4763,965.2344 Q312.9763,965.2344 311.6481,963.5938 Q310.3356,961.9375 310.3356,958.8125 Q310.3356,955.6875 311.6481,954.0313 Q312.9763,952.375 315.4763,952.375 Q316.1794,952.375 316.82,952.5313 Q317.4763,952.6875 318.0388,952.9844 L318.0388,955.7031 Q317.4138,955.125 316.82,954.8594 Q316.2263,954.5781 315.6013,954.5781 Q314.2575,954.5781 313.57,955.6563 Q312.8825,956.7188 312.8825,958.8125 Q312.8825,960.9063 313.57,961.9844 Q314.2575,963.0469 315.6013,963.0469 Q316.2263,963.0469 316.82,962.7813 Q317.4138,962.5 318.0388,961.9219 L318.0388,964.6406 Z " fill="#000000"/><text fill="#000000" font-family="sans-serif" font-size="14" lengthAdjust="spacing" textLength="55" x="331.77" y="964.432">Posicion</text><line style="stroke:#181818;stroke-width:0.5;" x1="288.92" x2="400.92" y1="975" y2="975"/><rect fill="none" height="6" style="stroke:#C82930;stroke-width:1.0;" width="6" x="295.92" y="987.034"/><text fill="#000000" font-family="sans-serif" font-size="14" lengthAdjust="spacing" textLength="88" x="307.92" y="993.9659">coordenadaX</text><rect fill="none" height="6" style="stroke:#C82930;stroke-width:1.0;" width="6" x="295.92" y="1006.1019"/><text fill="#000000" font-family="sans-serif" font-size="14" lengthAdjust="spacing" textLength="88" x="307.92" y="1013.0339">coordenadaY</text><line style="stroke:#181818;stroke-width:0.5;" x1="288.92" x2="400.92" y1="1021.1358" y2="1021.1358"/><ellipse cx="298.92" cy="1036.1698" fill="#84BE84" rx="3" ry="3" style="stroke:#038048;stroke-width:1.0;"/><text fill="#000000" font-family="sans-serif" font-size="14" lengthAdjust="spacing" textLength="50" x="307.92" y="1040.1018">mover()</text></g><!--class TipoPieza--><g id="elem_TipoPieza"><rect codeLine="33" fill="#F1F1F1" height="105.2038" id="TipoPieza" rx="2.5" ry="2.5" style="stroke:#181818;stroke-width:0.5;" width="129" x="437.42" y="943"/><ellipse cx="467.27" cy="959" fill="#ADD1B2" rx="11" ry="11" style="stroke:#181818;stroke-width:1.0;"/><path d="M470.2388,964.6406 Q469.6606,964.9375 469.02,965.0781 Q468.3794,965.2344 467.6763,965.2344 Q465.1763,965.2344 463.8481,963.5938 Q462.5356,961.9375 462.5356,958.8125 Q462.5356,955.6875 463.8481,954.0313 Q465.1763,952.375 467.6763,952.375 Q468.3794,952.375 469.02,952.5313 Q469.6763,952.6875 470.2388,952.9844 L470.2388,955.7031 Q469.6138,955.125 469.02,954.8594 Q468.4263,954.5781 467.8013,954.5781 Q466.4575,954.5781 465.77,955.6563 Q465.0825,956.7188 465.0825,958.8125 Q465.0825,960.9063 465.77,961.9844 Q466.4575,963.0469 467.8013,963.0469 Q468.4263,963.0469 469.02,962.7813 Q469.6138,962.5 470.2388,961.9219 L470.2388,964.6406 Z " fill="#000000"/><text fill="#000000" font-family="sans-serif" font-size="14" lengthAdjust="spacing" textLength="64" x="484.57" y="964.432">TipoPieza</text><line style="stroke:#181818;stroke-width:0.5;" x1="438.42" x2="565.42" y1="975" y2="975"/><rect fill="none" height="6" style="stroke:#C82930;stroke-width:1.0;" width="6" x="445.42" y="987.034"/><text fill="#000000" font-family="sans-serif" font-size="14" lengthAdjust="spacing" textLength="53" x="457.42" y="993.9659">nombre</text><rect fill="none" height="6" style="stroke:#C82930;stroke-width:1.0;" width="6" x="445.42" y="1006.1019"/><text fill="#000000" font-family="sans-serif" font-size="14" lengthAdjust="spacing" textLength="72" x="457.42" y="1013.0339">formaBase</text><line style="stroke:#181818;stroke-width:0.5;" x1="438.42" x2="565.42" y1="1021.1358" y2="1021.1358"/><ellipse cx="448.42" cy="1036.1698" fill="#84BE84" rx="3" ry="3" style="stroke:#038048;stroke-width:1.0;"/><text fill="#000000" font-family="sans-serif" font-size="14" lengthAdjust="spacing" textLength="103" x="457.42" y="1040.1018">obtenerForma()</text></g><!--class GeneradorPiezas--><g id="elem_GeneradorPiezas"><rect codeLine="39" fill="#F1F1F1" height="86.1358" id="GeneradorPiezas" rx="2.5" ry="2.5" style="stroke:#181818;stroke-width:0.5;" width="186" x="375.92" y="518"/><ellipse cx="408.92" cy="534" fill="#ADD1B2" rx="11" ry="11" style="stroke:#181818;stroke-width:1.0;"/><path d="M411.8888,539.6406 Q411.3106,539.9375 410.67,540.0781 Q410.0294,540.2344 409.3263,540.2344 Q406.8263,540.2344 405.4981,538.5938 Q404.1856,536.9375 404.1856,533.8125 Q404.1856,530.6875 405.4981,529.0313 Q406.8263,527.375 409.3263,527.375 Q410.0294,527.375 410.67,527.5313 Q411.3263,527.6875 411.8888,527.9844 L411.8888,530.7031 Q411.2638,530.125 410.67,529.8594 Q410.0763,529.5781 409.4513,529.5781 Q408.1075,529.5781 407.42,530.6563 Q406.7325,531.7188 406.7325,533.8125 Q406.7325,535.9063 407.42,536.9844 Q408.1075,538.0469 409.4513,538.0469 Q410.0763,538.0469 410.67,537.7813 Q411.2638,537.5 411.8888,536.9219 L411.8888,539.6406 Z " fill="#000000"/><text fill="#000000" font-family="sans-serif" font-size="14" lengthAdjust="spacing" textLength="114" x="426.92" y="539.432">GeneradorPiezas</text><line style="stroke:#181818;stroke-width:0.5;" x1="376.92" x2="560.92" y1="550" y2="550"/><line style="stroke:#181818;stroke-width:0.5;" x1="376.92" x2="560.92" y1="558" y2="558"/><ellipse cx="386.92" cy="573.034" fill="#84BE84" rx="3" ry="3" style="stroke:#038048;stroke-width:1.0;"/><text fill="#000000" font-family="sans-serif" font-size="14" lengthAdjust="spacing" textLength="157" x="395.92" y="576.9659">generarPiezaAleatoria()</text><ellipse cx="386.92" cy="592.1019" fill="#84BE84" rx="3" ry="3" style="stroke:#038048;stroke-width:1.0;"/><text fill="#000000" font-family="sans-serif" font-size="14" lengthAdjust="spacing" textLength="160" x="395.92" y="596.0339">obtenerSiguientePieza()</text></g><!--class VisualizadorJuego--><g id="elem_VisualizadorJuego"><rect codeLine="44" fill="#F1F1F1" height="105.2038" id="VisualizadorJuego" rx="2.5" ry="2.5" style="stroke:#181818;stroke-width:0.5;" width="178" x="96.92" y="229"/><ellipse cx="123.62" cy="245" fill="#ADD1B2" rx="11" ry="11" style="stroke:#181818;stroke-width:1.0;"/><path d="M126.5888,250.6406 Q126.0106,250.9375 125.37,251.0781 Q124.7294,251.2344 124.0263,251.2344 Q121.5263,251.2344 120.1981,249.5938 Q118.8856,247.9375 118.8856,244.8125 Q118.8856,241.6875 120.1981,240.0313 Q121.5263,238.375 124.0263,238.375 Q124.7294,238.375 125.37,238.5313 Q126.0263,238.6875 126.5888,238.9844 L126.5888,241.7031 Q125.9638,241.125 125.37,240.8594 Q124.7763,240.5781 124.1513,240.5781 Q122.8075,240.5781 122.12,241.6563 Q121.4325,242.7188 121.4325,244.8125 Q121.4325,246.9063 122.12,247.9844 Q122.8075,249.0469 124.1513,249.0469 Q124.7763,249.0469 125.37,248.7813 Q125.9638,248.5 126.5888,247.9219 L126.5888,250.6406 Z " fill="#000000"/><text fill="#000000" font-family="sans-serif" font-size="14" lengthAdjust="spacing" textLength="120" x="140.22" y="250.432">VisualizadorJuego</text><line style="stroke:#181818;stroke-width:0.5;" x1="97.92" x2="273.92" y1="261" y2="261"/><line style="stroke:#181818;stroke-width:0.5;" x1="97.92" x2="273.92" y1="269" y2="269"/><ellipse cx="107.92" cy="284.034" fill="#84BE84" rx="3" ry="3" style="stroke:#038048;stroke-width:1.0;"/><text fill="#000000" font-family="sans-serif" font-size="14" lengthAdjust="spacing" textLength="112" x="116.92" y="287.9659">mostrarTablero()</text><ellipse cx="107.92" cy="303.1019" fill="#84BE84" rx="3" ry="3" style="stroke:#038048;stroke-width:1.0;"/><text fill="#000000" font-family="sans-serif" font-size="14" lengthAdjust="spacing" textLength="137" x="116.92" y="307.0339">mostrarPuntuacion()</text><ellipse cx="107.92" cy="322.1698" fill="#84BE84" rx="3" ry="3" style="stroke:#038048;stroke-width:1.0;"/><text fill="#000000" font-family="sans-serif" font-size="14" lengthAdjust="spacing" textLength="152" x="116.92" y="326.1018">mostrarInstrucciones()</text></g><!--class ControladorEntrada--><g id="elem_ControladorEntrada"><rect codeLine="50" fill="#F1F1F1" height="86.1358" id="ControladorEntrada" rx="2.5" ry="2.5" style="stroke:#181818;stroke-width:0.5;" width="172" x="518.92" y="364"/><ellipse cx="537.07" cy="380" fill="#ADD1B2" rx="11" ry="11" style="stroke:#181818;stroke-width:1.0;"/><path d="M540.0387,385.6406 Q539.4606,385.9375 538.82,386.0781 Q538.1794,386.2344 537.4762,386.2344 Q534.9762,386.2344 533.6481,384.5938 Q532.3356,382.9375 532.3356,379.8125 Q532.3356,376.6875 533.6481,375.0313 Q534.9762,373.375 537.4762,373.375 Q538.1794,373.375 538.82,373.5313 Q539.4762,373.6875 540.0387,373.9844 L540.0387,376.7031 Q539.4137,376.125 538.82,375.8594 Q538.2262,375.5781 537.6012,375.5781 Q536.2575,375.5781 535.57,376.6563 Q534.8825,377.7188 534.8825,379.8125 Q534.8825,381.9063 535.57,382.9844 Q536.2575,384.0469 537.6012,384.0469 Q538.2262,384.0469 538.82,383.7813 Q539.4137,383.5 540.0387,382.9219 L540.0387,385.6406 Z " fill="#000000"/><text fill="#000000" font-family="sans-serif" font-size="14" lengthAdjust="spacing" textLength="133" x="551.77" y="385.432">ControladorEntrada</text><line style="stroke:#181818;stroke-width:0.5;" x1="519.92" x2="689.92" y1="396" y2="396"/><line style="stroke:#181818;stroke-width:0.5;" x1="519.92" x2="689.92" y1="404" y2="404"/><ellipse cx="529.92" cy="419.034" fill="#84BE84" rx="3" ry="3" style="stroke:#038048;stroke-width:1.0;"/><text fill="#000000" font-family="sans-serif" font-size="14" lengthAdjust="spacing" textLength="130" x="538.92" y="422.9659">capturarComando()</text><ellipse cx="529.92" cy="438.1019" fill="#84BE84" rx="3" ry="3" style="stroke:#038048;stroke-width:1.0;"/><text fill="#000000" font-family="sans-serif" font-size="14" lengthAdjust="spacing" textLength="146" x="538.92" y="442.0339">procesarMovimiento()</text></g><!--reverse link Juego to Tablero--><g id="link_Juego_Tablero"><path codeLine="56" d="M378.4992,161.5579 C352.6392,236.1479 314.56,345.74 277.92,450 C274.53,459.65 270.96,469.78 267.41,479.81 " fill="none" id="Juego-backto-Tablero" style="stroke:#181818;stroke-width:1.0;"/><polygon fill="#181818" points="382.43,150.22,376.6853,154.5787,378.4992,161.5579,384.2439,157.1992,382.43,150.22" style="stroke:#181818;stroke-width:1.0;"/><text fill="#000000" font-family="sans-serif" font-size="13" lengthAdjust="spacing" textLength="52" x="354.92" y="286.897">contiene</text></g><!--reverse link Juego to VisualizadorJuego--><g id="link_Juego_VisualizadorJuego"><path codeLine="57" d="M315.9968,150.2063 C301.2768,162.2963 295.56,167.48 281.92,180 C265.31,195.26 248.02,212.78 232.77,228.87 " fill="none" id="Juego-backto-VisualizadorJuego" style="stroke:#181818;stroke-width:1.0;"/><polygon fill="#181818" points="325.27,142.59,318.0946,143.3071,315.9968,150.2063,323.1722,149.4892,325.27,142.59" style="stroke:#181818;stroke-width:1.0;"/><text fill="#000000" font-family="sans-serif" font-size="13" lengthAdjust="spacing" textLength="35" x="282.92" y="194.897">utiliza</text></g><!--reverse link Juego to ControladorEntrada--><g id="link_Juego_ControladorEntrada"><path codeLine="58" d="M480.336,159.4385 C488.196,169.1785 488.25,169.95 494.92,180 C534.87,240.17 569.14,316.99 588.38,363.8 " fill="none" id="Juego-backto-ControladorEntrada" style="stroke:#181818;stroke-width:1.0;"/><polygon fill="#181818" points="472.8,150.1,473.4552,157.2813,480.336,159.4385,479.6809,152.2573,472.8,150.1" style="stroke:#181818;stroke-width:1.0;"/><text fill="#000000" font-family="sans-serif" font-size="13" lengthAdjust="spacing" textLength="35" x="506.92" y="194.897">utiliza</text></g><!--reverse link Juego to GeneradorPiezas--><g id="link_Juego_GeneradorPiezas"><path codeLine="59" d="M417.5752,162.0414 C430.6652,263.5214 452.86,435.49 463.5,517.97 " fill="none" id="Juego-backto-GeneradorPiezas" style="stroke:#181818;stroke-width:1.0;"/><polygon fill="#181818" points="416.04,150.14,412.8405,156.6024,417.5752,162.0414,420.7747,155.579,416.04,150.14" style="stroke:#181818;stroke-width:1.0;"/><text fill="#000000" font-family="sans-serif" font-size="13" lengthAdjust="spacing" textLength="35" x="440.92" y="286.897">utiliza</text></g><!--reverse link Tablero to Pieza--><g id="link_Tablero_Pieza"><path codeLine="61" d="M231.4327,654.0882 C232.4427,670.8282 234.93,675.97 241.92,691 C252.78,714.32 271.91,734.46 291.42,750.45 " fill="none" id="Tablero-backto-Pieza" style="stroke:#181818;stroke-width:1.0;"/><polygon fill="#181818" points="230.71,642.11,227.0786,648.34,231.4327,654.0882,235.0641,647.8582,230.71,642.11" style="stroke:#181818;stroke-width:1.0;"/><text fill="#000000" font-family="sans-serif" font-size="13" lengthAdjust="spacing" textLength="154" x="242.92" y="686.897">contiene piezas colocadas</text></g><!--link Pieza to Posicion--><g id="link_Pieza_Posicion"><path codeLine="63" d="M345.62,864.22 C344.5,874.2 343.55,884.34 342.92,894 C342.38,902.43 342.82,904.56 342.92,913 C343.04,922.62 343.1064,926.8915 343.3264,936.7715 " fill="none" id="Pieza-to-Posicion" style="stroke:#181818;stroke-width:1.0;"/><polygon fill="#181818" points="343.46,942.77,347.2587,933.6832,343.3487,937.7712,339.2606,933.8613,343.46,942.77" style="stroke:#181818;stroke-width:1.0;"/><text fill="#000000" font-family="sans-serif" font-size="13" lengthAdjust="spacing" textLength="30" x="343.92" y="908.897">tiene</text></g><!--link Pieza to TipoPieza--><g id="link_Pieza_TipoPieza"><path codeLine="64" d="M386.31,864.14 C394.84,880.83 404.85,898.09 415.92,913 C423.53,923.24 428.2817,929.0233 437.5017,938.3933 " fill="none" id="Pieza-to-TipoPieza" style="stroke:#181818;stroke-width:1.0;"/><polygon fill="#181818" points="441.71,942.67,438.2488,933.4494,438.2031,939.1061,432.5464,939.0604,441.71,942.67" style="stroke:#181818;stroke-width:1.0;"/><text fill="#000000" font-family="sans-serif" font-size="13" lengthAdjust="spacing" textLength="58" x="416.92" y="908.897">es de tipo</text></g><!--link GeneradorPiezas to TipoPieza--><g id="link_GeneradorPiezas_TipoPieza"><path codeLine="66" d="M472.15,604.26 C478.23,683.97 490.9235,850.2774 497.5235,936.7674 " fill="none" id="GeneradorPiezas-to-TipoPieza" style="stroke:#181818;stroke-width:1.0;stroke-dasharray:7.0,7.0;"/><polygon fill="#181818" points="497.98,942.75,501.2836,933.4717,497.5996,937.7645,493.3068,934.0804,497.98,942.75" style="stroke:#181818;stroke-width:1.0;"/><text fill="#000000" font-family="sans-serif" font-size="13" lengthAdjust="spacing" textLength="87" x="492.92" y="797.897">crea instancias</text></g><!--link GeneradorPiezas to Pieza--><g id="link_GeneradorPiezas_Pieza"><path codeLine="67" d="M448.2,604.09 C432.14,636.7 412.1906,677.2272 393.3706,715.4472 " fill="none" id="GeneradorPiezas-to-Pieza" style="stroke:#181818;stroke-width:1.0;stroke-dasharray:7.0,7.0;"/><polygon fill="#181818" points="390.72,720.83,398.2844,714.5228,392.9288,716.3443,391.1073,710.9888,390.72,720.83" style="stroke:#181818;stroke-width:1.0;"/><text fill="#000000" font-family="sans-serif" font-size="13" lengthAdjust="spacing" textLength="42" x="413.92" y="686.897">genera</text></g><!--link VisualizadorJuego to Tablero--><g id="link_VisualizadorJuego_Tablero"><path codeLine="69" d="M195.77,334.05 C203.58,374.95 213.5143,426.9766 222.4843,473.9366 " fill="none" id="VisualizadorJuego-to-Tablero" style="stroke:#181818;stroke-width:1.0;stroke-dasharray:7.0,7.0;"/><polygon fill="#181818" points="223.61,479.83,225.8504,470.2393,222.6719,474.9188,217.9924,471.7403,223.61,479.83" style="stroke:#181818;stroke-width:1.0;"/><text fill="#000000" font-family="sans-serif" font-size="13" lengthAdjust="spacing" textLength="50" x="218.92" y="412.397">visualiza</text></g><!--link VisualizadorJuego to Pieza--><g id="link_VisualizadorJuego_Pieza"><path codeLine="70" d="M142.8,334.14 C87.61,406.9 6,541.89 66.92,642 C115.53,721.86 216.2558,759.4683 285.5158,777.1183 " fill="none" id="VisualizadorJuego-to-Pieza" style="stroke:#181818;stroke-width:1.0;stroke-dasharray:7.0,7.0;"/><polygon fill="#181818" points="291.33,778.6,283.5965,772.5014,286.4849,777.3653,281.621,780.2536,291.33,778.6" style="stroke:#181818;stroke-width:1.0;"/><text fill="#000000" font-family="sans-serif" font-size="13" lengthAdjust="spacing" textLength="50" x="67.92" y="566.397">muestra</text></g><!--link ControladorEntrada to Pieza--><g id="link_ControladorEntrada_Pieza"><path codeLine="72" d="M610.46,450.3 C614.78,499.98 615.01,583.09 578.92,642 C545.57,696.45 511.94,685.41 458.92,721 C446.51,729.33 438.2671,734.9196 425.5971,743.5596 " fill="none" id="ControladorEntrada-to-Pieza" style="stroke:#181818;stroke-width:1.0;stroke-dasharray:7.0,7.0;"/><polygon fill="#181818" points="420.64,746.94,430.3293,745.1742,424.7709,744.123,425.8221,738.5647,420.64,746.94" style="stroke:#181818;stroke-width:1.0;"/><text fill="#000000" font-family="sans-serif" font-size="13" lengthAdjust="spacing" textLength="50" x="613.92" y="566.397">controla</text></g><!--SRC=[XLDDQzj04BthLom-fJNo3yYXq8Qs92GGQ2djSRoQc87LZjWF7nBwtpihoRihMIM-o9fvyzwR3sa3tgk7Y2TMRusINwk6Q4C4JMpd0Fe07OylUqMMD86x-J2_1tGzsIh0nu0MtNDcaSpVfj6Zqayu6dH5gwCUhHSG-YsnCnZgm3tncNf26pYhQ3QimJqJla8Eeg7HooDP17_7_M0mW2zvuNuqQBcsD59aGo_iUhWCWZtbCUnLpsSiRJeErqr_IzKByfaYysjcrw653dvVHVwiXChKQE2bJSlzqM7j-GjuVCVCznILuKvJypFPNft6-1JzR102Eu9rQp_e5DCAy3BoJFkBV9GzlIRc-f9I8pu8yRpqp3Y75nUooDnRUKIjnxkefUxO1iScANsLVpAphALX255gPUjWko8sEDReLpSaXCrazMFRvgEyLJij0WB2NPM-xa-0CL0ArRWDSzl0zHvgL7Cnau3JpYjRQfWgfkllm4l116hRJ-NOf6BkeYJB3KaMlUfG1Ga9mThEuR12QuSWtxryF5O-VT7SgiZewPg4ztfk8tCPzla2sFq7cpdxYEamX7HZo0kadlExvXy0]--></g></svg>