<?xml version="1.0" encoding="us-ascii" standalone="no"?><svg xmlns="http://www.w3.org/2000/svg" xmlns:xlink="http://www.w3.org/1999/xlink" contentStyleType="text/css" height="170px" preserveAspectRatio="none" style="width:195px;height:170px;background:#FFFFFF;" version="1.1" viewBox="0 0 195 170" width="195px" zoomAndPan="magnify"><defs/><g><!--class Tetris--><g id="elem_Tetris"><rect fill="#F1F1F1" height="48" id="Tetris" rx="2.5" ry="2.5" style="stroke:#181818;stroke-width:0.5;" width="70" x="7" y="7"/><ellipse cx="22" cy="23" fill="#ADD1B2" rx="11" ry="11" style="stroke:#181818;stroke-width:1.0;"/><path d="M24.9688,28.6406 Q24.3906,28.9375 23.75,29.0781 Q23.1094,29.2344 22.4063,29.2344 Q19.9063,29.2344 18.5781,27.5938 Q17.2656,25.9375 17.2656,22.8125 Q17.2656,19.6875 18.5781,18.0313 Q19.9063,16.375 22.4063,16.375 Q23.1094,16.375 23.75,16.5313 Q24.4063,16.6875 24.9688,16.9844 L24.9688,19.7031 Q24.3438,19.125 23.75,18.8594 Q23.1563,18.5781 22.5313,18.5781 Q21.1875,18.5781 20.5,19.6563 Q19.8125,20.7188 19.8125,22.8125 Q19.8125,24.9063 20.5,25.9844 Q21.1875,27.0469 22.5313,27.0469 Q23.1563,27.0469 23.75,26.7813 Q24.3438,26.5 24.9688,25.9219 L24.9688,28.6406 Z " fill="#000000"/><text fill="#000000" font-family="sans-serif" font-size="14" lengthAdjust="spacing" textLength="38" x="36" y="28.432">Tetris</text><line style="stroke:#181818;stroke-width:0.5;" x1="8" x2="76" y1="39" y2="39"/><line style="stroke:#181818;stroke-width:0.5;" x1="8" x2="76" y1="47" y2="47"/></g><!--class Piece--><g id="elem_Piece"><rect fill="#F1F1F1" height="48" id="Piece" rx="2.5" ry="2.5" style="stroke:#181818;stroke-width:0.5;" width="67" x="112.5" y="7"/><ellipse cx="127.5" cy="23" fill="#ADD1B2" rx="11" ry="11" style="stroke:#181818;stroke-width:1.0;"/><path d="M130.4688,28.6406 Q129.8906,28.9375 129.25,29.0781 Q128.6094,29.2344 127.9063,29.2344 Q125.4063,29.2344 124.0781,27.5938 Q122.7656,25.9375 122.7656,22.8125 Q122.7656,19.6875 124.0781,18.0313 Q125.4063,16.375 127.9063,16.375 Q128.6094,16.375 129.25,16.5313 Q129.9063,16.6875 130.4688,16.9844 L130.4688,19.7031 Q129.8438,19.125 129.25,18.8594 Q128.6563,18.5781 128.0313,18.5781 Q126.6875,18.5781 126,19.6563 Q125.3125,20.7188 125.3125,22.8125 Q125.3125,24.9063 126,25.9844 Q126.6875,27.0469 128.0313,27.0469 Q128.6563,27.0469 129.25,26.7813 Q129.8438,26.5 130.4688,25.9219 L130.4688,28.6406 Z " fill="#000000"/><text fill="#000000" font-family="sans-serif" font-size="14" lengthAdjust="spacing" textLength="35" x="141.5" y="28.432">Piece</text><line style="stroke:#181818;stroke-width:0.5;" x1="113.5" x2="178.5" y1="39" y2="39"/><line style="stroke:#181818;stroke-width:0.5;" x1="113.5" x2="178.5" y1="47" y2="47"/></g><!--class Position--><g id="elem_Position"><rect fill="#F1F1F1" height="48" id="Position" rx="2.5" ry="2.5" style="stroke:#181818;stroke-width:0.5;" width="85" x="103.5" y="115"/><ellipse cx="118.5" cy="131" fill="#ADD1B2" rx="11" ry="11" style="stroke:#181818;stroke-width:1.0;"/><path d="M121.4688,136.6406 Q120.8906,136.9375 120.25,137.0781 Q119.6094,137.2344 118.9063,137.2344 Q116.4063,137.2344 115.0781,135.5938 Q113.7656,133.9375 113.7656,130.8125 Q113.7656,127.6875 115.0781,126.0313 Q116.4063,124.375 118.9063,124.375 Q119.6094,124.375 120.25,124.5313 Q120.9063,124.6875 121.4688,124.9844 L121.4688,127.7031 Q120.8438,127.125 120.25,126.8594 Q119.6563,126.5781 119.0313,126.5781 Q117.6875,126.5781 117,127.6563 Q116.3125,128.7188 116.3125,130.8125 Q116.3125,132.9063 117,133.9844 Q117.6875,135.0469 119.0313,135.0469 Q119.6563,135.0469 120.25,134.7813 Q120.8438,134.5 121.4688,133.9219 L121.4688,136.6406 Z " fill="#000000"/><text fill="#000000" font-family="sans-serif" font-size="14" lengthAdjust="spacing" textLength="53" x="132.5" y="136.432">Position</text><line style="stroke:#181818;stroke-width:0.5;" x1="104.5" x2="187.5" y1="147" y2="147"/><line style="stroke:#181818;stroke-width:0.5;" x1="104.5" x2="187.5" y1="155" y2="155"/></g><!--reverse link Tetris to Piece--><g id="link_Tetris_Piece"><path codeLine="1" d="M89.34,31 C101.05,31 100.77,31 112.48,31 " fill="none" id="Tetris-backto-Piece" style="stroke:#181818;stroke-width:1.0;"/><polygon fill="#181818" points="77.34,31,83.34,35,89.34,31,83.34,27,77.34,31" style="stroke:#181818;stroke-width:1.0;"/></g><!--link Piece to Position--><g id="link_Piece_Position"><path codeLine="2" d="M146,55 C146,72.66 146,96.94 146,114.68 " fill="none" id="Piece-Position" style="stroke:#181818;stroke-width:1.0;"/></g><!--SRC=[2qajASeiLj3IBT9L2CXCJKxb0fCAka1kVd5cIMP-7XS0]--></g></svg>