<?xml version="1.0" encoding="us-ascii" standalone="no"?><svg xmlns="http://www.w3.org/2000/svg" xmlns:xlink="http://www.w3.org/1999/xlink" contentStyleType="text/css" height="743px" preserveAspectRatio="none" style="width:895px;height:743px;background:#FFFFFF;" version="1.1" viewBox="0 0 895 743" width="895px" zoomAndPan="magnify"><defs/><g><!--cluster MODELO--><g id="cluster_MODELO"><path d="M8.5,356.602 L70.5,356.602 A3.75,3.75 0 0 1 73,359.102 L80,381.6699 L174.5,381.6699 A2.5,2.5 0 0 1 177,384.1699 L177,734.102 A2.5,2.5 0 0 1 174.5,736.602 L8.5,736.602 A2.5,2.5 0 0 1 6,734.102 L6,359.102 A2.5,2.5 0 0 1 8.5,356.602 " fill="none" style="stroke:#000000;stroke-width:1.5;"/><line style="stroke:#000000;stroke-width:1.5;" x1="6" x2="80" y1="381.6699" y2="381.6699"/><text fill="#000000" font-family="sans-serif" font-size="14" font-weight="bold" lengthAdjust="spacing" textLength="61" x="10" y="373.5679">MODELO</text></g><!--cluster VISTA--><g id="cluster_VISTA"><path d="M203.5,181.602 L244.5,181.602 A3.75,3.75 0 0 1 247,184.102 L254,206.6699 L334.5,206.6699 A2.5,2.5 0 0 1 337,209.1699 L337,478.102 A2.5,2.5 0 0 1 334.5,480.602 L203.5,480.602 A2.5,2.5 0 0 1 201,478.102 L201,184.102 A2.5,2.5 0 0 1 203.5,181.602 " fill="none" style="stroke:#000000;stroke-width:1.5;"/><line style="stroke:#000000;stroke-width:1.5;" x1="201" x2="254" y1="206.6699" y2="206.6699"/><text fill="#000000" font-family="sans-serif" font-size="14" font-weight="bold" lengthAdjust="spacing" textLength="40" x="205" y="198.5679">VISTA</text></g><!--cluster CONTROLADOR--><g id="cluster_CONTROLADOR"><path d="M400.5,6.602 L508.5,6.602 A3.75,3.75 0 0 1 511,9.102 L518,31.6699 L518.5,31.6699 A2.5,2.5 0 0 1 521,34.1699 L521,128.102 A2.5,2.5 0 0 1 518.5,130.602 L400.5,130.602 A2.5,2.5 0 0 1 398,128.102 L398,9.102 A2.5,2.5 0 0 1 400.5,6.602 " fill="none" style="stroke:#000000;stroke-width:1.5;"/><line style="stroke:#000000;stroke-width:1.5;" x1="398" x2="518" y1="31.6699" y2="31.6699"/><text fill="#000000" font-family="sans-serif" font-size="14" font-weight="bold" lengthAdjust="spacing" textLength="107" x="402" y="23.5679">CONTROLADOR</text></g><!--cluster UTILIDADES--><g id="cluster_UTILIDADES"><path d="M516.5,181.602 L600.5,181.602 A3.75,3.75 0 0 1 603,184.102 L610,206.6699 L885.5,206.6699 A2.5,2.5 0 0 1 888,209.1699 L888,303.102 A2.5,2.5 0 0 1 885.5,305.602 L516.5,305.602 A2.5,2.5 0 0 1 514,303.102 L514,184.102 A2.5,2.5 0 0 1 516.5,181.602 " fill="none" style="stroke:#000000;stroke-width:1.5;"/><line style="stroke:#000000;stroke-width:1.5;" x1="514" x2="610" y1="206.6699" y2="206.6699"/><text fill="#000000" font-family="sans-serif" font-size="14" font-weight="bold" lengthAdjust="spacing" textLength="83" x="518" y="198.5679">UTILIDADES</text></g><!--class Board--><g id="elem_Board"><rect codeLine="3" fill="#F1F1F1" height="48" id="Board" rx="2.5" ry="2.5" style="stroke:#181818;stroke-width:0.5;" width="72" x="89" y="416.602"/><ellipse cx="104" cy="432.602" fill="#ADD1B2" rx="11" ry="11" style="stroke:#181818;stroke-width:1.0;"/><path d="M106.9688,438.2426 Q106.3906,438.5395 105.75,438.6801 Q105.1094,438.8364 104.4063,438.8364 Q101.9063,438.8364 100.5781,437.1957 Q99.2656,435.5395 99.2656,432.4145 Q99.2656,429.2895 100.5781,427.6332 Q101.9063,425.977 104.4063,425.977 Q105.1094,425.977 105.75,426.1332 Q106.4063,426.2895 106.9688,426.5864 L106.9688,429.3051 Q106.3438,428.727 105.75,428.4614 Q105.1563,428.1801 104.5313,428.1801 Q103.1875,428.1801 102.5,429.2582 Q101.8125,430.3207 101.8125,432.4145 Q101.8125,434.5082 102.5,435.5864 Q103.1875,436.6489 104.5313,436.6489 Q105.1563,436.6489 105.75,436.3832 Q106.3438,436.102 106.9688,435.5239 L106.9688,438.2426 Z " fill="#000000"/><text fill="#000000" font-family="sans-serif" font-size="14" lengthAdjust="spacing" textLength="40" x="118" y="438.034">Board</text><line style="stroke:#181818;stroke-width:0.5;" x1="90" x2="160" y1="448.602" y2="448.602"/><line style="stroke:#181818;stroke-width:0.5;" x1="90" x2="160" y1="456.602" y2="456.602"/></g><!--class Piece--><g id="elem_Piece"><rect codeLine="4" fill="#F1F1F1" height="48" id="Piece" rx="2.5" ry="2.5" style="stroke:#181818;stroke-width:0.5;" width="67" x="83.5" y="545.602"/><ellipse cx="98.5" cy="561.602" fill="#ADD1B2" rx="11" ry="11" style="stroke:#181818;stroke-width:1.0;"/><path d="M101.4688,567.2426 Q100.8906,567.5395 100.25,567.6801 Q99.6094,567.8364 98.9063,567.8364 Q96.4063,567.8364 95.0781,566.1957 Q93.7656,564.5395 93.7656,561.4145 Q93.7656,558.2895 95.0781,556.6332 Q96.4063,554.977 98.9063,554.977 Q99.6094,554.977 100.25,555.1332 Q100.9063,555.2895 101.4688,555.5864 L101.4688,558.3051 Q100.8438,557.727 100.25,557.4614 Q99.6563,557.1801 99.0313,557.1801 Q97.6875,557.1801 97,558.2582 Q96.3125,559.3207 96.3125,561.4145 Q96.3125,563.5082 97,564.5864 Q97.6875,565.6489 99.0313,565.6489 Q99.6563,565.6489 100.25,565.3832 Q100.8438,565.102 101.4688,564.5239 L101.4688,567.2426 Z " fill="#000000"/><text fill="#000000" font-family="sans-serif" font-size="14" lengthAdjust="spacing" textLength="35" x="112.5" y="567.034">Piece</text><line style="stroke:#181818;stroke-width:0.5;" x1="84.5" x2="149.5" y1="577.602" y2="577.602"/><line style="stroke:#181818;stroke-width:0.5;" x1="84.5" x2="149.5" y1="585.602" y2="585.602"/></g><!--class Position--><g id="elem_Position"><rect codeLine="5" fill="#F1F1F1" height="48" id="Position" rx="2.5" ry="2.5" style="stroke:#181818;stroke-width:0.5;" width="85" x="65.5" y="672.602"/><ellipse cx="80.5" cy="688.602" fill="#ADD1B2" rx="11" ry="11" style="stroke:#181818;stroke-width:1.0;"/><path d="M83.4688,694.2426 Q82.8906,694.5395 82.25,694.6801 Q81.6094,694.8364 80.9063,694.8364 Q78.4063,694.8364 77.0781,693.1957 Q75.7656,691.5395 75.7656,688.4145 Q75.7656,685.2895 77.0781,683.6332 Q78.4063,681.977 80.9063,681.977 Q81.6094,681.977 82.25,682.1332 Q82.9063,682.2895 83.4688,682.5864 L83.4688,685.3051 Q82.8438,684.727 82.25,684.4614 Q81.6563,684.1801 81.0313,684.1801 Q79.6875,684.1801 79,685.2582 Q78.3125,686.3207 78.3125,688.4145 Q78.3125,690.5082 79,691.5864 Q79.6875,692.6489 81.0313,692.6489 Q81.6563,692.6489 82.25,692.3832 Q82.8438,692.102 83.4688,691.5239 L83.4688,694.2426 Z " fill="#000000"/><text fill="#000000" font-family="sans-serif" font-size="14" lengthAdjust="spacing" textLength="53" x="94.5" y="694.034">Position</text><line style="stroke:#181818;stroke-width:0.5;" x1="66.5" x2="149.5" y1="704.602" y2="704.602"/><line style="stroke:#181818;stroke-width:0.5;" x1="66.5" x2="149.5" y1="712.602" y2="712.602"/></g><!--class BoardView--><g id="elem_BoardView"><rect codeLine="9" fill="#F1F1F1" height="48" id="BoardView" rx="2.5" ry="2.5" style="stroke:#181818;stroke-width:0.5;" width="103" x="217.5" y="241.602"/><ellipse cx="232.5" cy="257.602" fill="#ADD1B2" rx="11" ry="11" style="stroke:#181818;stroke-width:1.0;"/><path d="M235.4688,263.2426 Q234.8906,263.5395 234.25,263.6801 Q233.6094,263.8364 232.9063,263.8364 Q230.4063,263.8364 229.0781,262.1957 Q227.7656,260.5395 227.7656,257.4145 Q227.7656,254.2895 229.0781,252.6332 Q230.4063,250.977 232.9063,250.977 Q233.6094,250.977 234.25,251.1332 Q234.9063,251.2895 235.4688,251.5864 L235.4688,254.3051 Q234.8438,253.727 234.25,253.4614 Q233.6563,253.1801 233.0313,253.1801 Q231.6875,253.1801 231,254.2582 Q230.3125,255.3207 230.3125,257.4145 Q230.3125,259.5082 231,260.5864 Q231.6875,261.6489 233.0313,261.6489 Q233.6563,261.6489 234.25,261.3832 Q234.8438,261.102 235.4688,260.5239 L235.4688,263.2426 Z " fill="#000000"/><text fill="#000000" font-family="sans-serif" font-size="14" lengthAdjust="spacing" textLength="71" x="246.5" y="263.034">BoardView</text><line style="stroke:#181818;stroke-width:0.5;" x1="218.5" x2="319.5" y1="273.602" y2="273.602"/><line style="stroke:#181818;stroke-width:0.5;" x1="218.5" x2="319.5" y1="281.602" y2="281.602"/></g><!--class PieceView--><g id="elem_PieceView"><rect codeLine="10" fill="#F1F1F1" height="48" id="PieceView" rx="2.5" ry="2.5" style="stroke:#181818;stroke-width:0.5;" width="98" x="223" y="416.602"/><ellipse cx="238" cy="432.602" fill="#ADD1B2" rx="11" ry="11" style="stroke:#181818;stroke-width:1.0;"/><path d="M240.9688,438.2426 Q240.3906,438.5395 239.75,438.6801 Q239.1094,438.8364 238.4063,438.8364 Q235.9063,438.8364 234.5781,437.1957 Q233.2656,435.5395 233.2656,432.4145 Q233.2656,429.2895 234.5781,427.6332 Q235.9063,425.977 238.4063,425.977 Q239.1094,425.977 239.75,426.1332 Q240.4063,426.2895 240.9688,426.5864 L240.9688,429.3051 Q240.3438,428.727 239.75,428.4614 Q239.1563,428.1801 238.5313,428.1801 Q237.1875,428.1801 236.5,429.2582 Q235.8125,430.3207 235.8125,432.4145 Q235.8125,434.5082 236.5,435.5864 Q237.1875,436.6489 238.5313,436.6489 Q239.1563,436.6489 239.75,436.3832 Q240.3438,436.102 240.9688,435.5239 L240.9688,438.2426 Z " fill="#000000"/><text fill="#000000" font-family="sans-serif" font-size="14" lengthAdjust="spacing" textLength="66" x="252" y="438.034">PieceView</text><line style="stroke:#181818;stroke-width:0.5;" x1="224" x2="320" y1="448.602" y2="448.602"/><line style="stroke:#181818;stroke-width:0.5;" x1="224" x2="320" y1="456.602" y2="456.602"/></g><!--class Tetris--><g id="elem_Tetris"><rect codeLine="14" fill="#F1F1F1" height="48" id="Tetris" rx="2.5" ry="2.5" style="stroke:#181818;stroke-width:0.5;" width="70" x="424" y="66.602"/><ellipse cx="439" cy="82.602" fill="#ADD1B2" rx="11" ry="11" style="stroke:#181818;stroke-width:1.0;"/><path d="M441.9688,88.2426 Q441.3906,88.5395 440.75,88.6801 Q440.1094,88.8364 439.4063,88.8364 Q436.9063,88.8364 435.5781,87.1957 Q434.2656,85.5395 434.2656,82.4145 Q434.2656,79.2895 435.5781,77.6332 Q436.9063,75.977 439.4063,75.977 Q440.1094,75.977 440.75,76.1332 Q441.4063,76.2895 441.9688,76.5864 L441.9688,79.3051 Q441.3438,78.727 440.75,78.4614 Q440.1563,78.1801 439.5313,78.1801 Q438.1875,78.1801 437.5,79.2582 Q436.8125,80.3207 436.8125,82.4145 Q436.8125,84.5082 437.5,85.5864 Q438.1875,86.6489 439.5313,86.6489 Q440.1563,86.6489 440.75,86.3832 Q441.3438,86.102 441.9688,85.5239 L441.9688,88.2426 Z " fill="#000000"/><text fill="#000000" font-family="sans-serif" font-size="14" lengthAdjust="spacing" textLength="38" x="453" y="88.034">Tetris</text><line style="stroke:#181818;stroke-width:0.5;" x1="425" x2="493" y1="98.602" y2="98.602"/><line style="stroke:#181818;stroke-width:0.5;" x1="425" x2="493" y1="106.602" y2="106.602"/></g><!--class Console--><g id="elem_Console"><rect codeLine="18" fill="#F1F1F1" height="48" id="Console" rx="2.5" ry="2.5" style="stroke:#181818;stroke-width:0.5;" width="85" x="530.5" y="241.602"/><ellipse cx="545.5" cy="257.602" fill="#ADD1B2" rx="11" ry="11" style="stroke:#181818;stroke-width:1.0;"/><path d="M548.4688,263.2426 Q547.8906,263.5395 547.25,263.6801 Q546.6094,263.8364 545.9063,263.8364 Q543.4063,263.8364 542.0781,262.1957 Q540.7656,260.5395 540.7656,257.4145 Q540.7656,254.2895 542.0781,252.6332 Q543.4063,250.977 545.9063,250.977 Q546.6094,250.977 547.25,251.1332 Q547.9063,251.2895 548.4688,251.5864 L548.4688,254.3051 Q547.8438,253.727 547.25,253.4614 Q546.6563,253.1801 546.0313,253.1801 Q544.6875,253.1801 544,254.2582 Q543.3125,255.3207 543.3125,257.4145 Q543.3125,259.5082 544,260.5864 Q544.6875,261.6489 546.0313,261.6489 Q546.6563,261.6489 547.25,261.3832 Q547.8438,261.102 548.4688,260.5239 L548.4688,263.2426 Z " fill="#000000"/><text fill="#000000" font-family="sans-serif" font-size="14" lengthAdjust="spacing" textLength="53" x="559.5" y="263.034">Console</text><line style="stroke:#181818;stroke-width:0.5;" x1="531.5" x2="614.5" y1="273.602" y2="273.602"/><line style="stroke:#181818;stroke-width:0.5;" x1="531.5" x2="614.5" y1="281.602" y2="281.602"/></g><!--class PieceFactory--><g id="elem_PieceFactory"><rect codeLine="19" fill="#F1F1F1" height="48" id="PieceFactory" rx="2.5" ry="2.5" style="stroke:#181818;stroke-width:0.5;" width="115" x="650.5" y="241.602"/><ellipse cx="665.5" cy="257.602" fill="#ADD1B2" rx="11" ry="11" style="stroke:#181818;stroke-width:1.0;"/><path d="M668.4688,263.2426 Q667.8906,263.5395 667.25,263.6801 Q666.6094,263.8364 665.9063,263.8364 Q663.4063,263.8364 662.0781,262.1957 Q660.7656,260.5395 660.7656,257.4145 Q660.7656,254.2895 662.0781,252.6332 Q663.4063,250.977 665.9063,250.977 Q666.6094,250.977 667.25,251.1332 Q667.9063,251.2895 668.4688,251.5864 L668.4688,254.3051 Q667.8438,253.727 667.25,253.4614 Q666.6563,253.1801 666.0313,253.1801 Q664.6875,253.1801 664,254.2582 Q663.3125,255.3207 663.3125,257.4145 Q663.3125,259.5082 664,260.5864 Q664.6875,261.6489 666.0313,261.6489 Q666.6563,261.6489 667.25,261.3832 Q667.8438,261.102 668.4688,260.5239 L668.4688,263.2426 Z " fill="#000000"/><text fill="#000000" font-family="sans-serif" font-size="14" lengthAdjust="spacing" textLength="83" x="679.5" y="263.034">PieceFactory</text><line style="stroke:#181818;stroke-width:0.5;" x1="651.5" x2="764.5" y1="273.602" y2="273.602"/><line style="stroke:#181818;stroke-width:0.5;" x1="651.5" x2="764.5" y1="281.602" y2="281.602"/></g><!--class Game--><g id="elem_Game"><rect codeLine="20" fill="#F1F1F1" height="48" id="Game" rx="2.5" ry="2.5" style="stroke:#181818;stroke-width:0.5;" width="71" x="800.5" y="241.602"/><ellipse cx="815.5" cy="257.602" fill="#ADD1B2" rx="11" ry="11" style="stroke:#181818;stroke-width:1.0;"/><path d="M818.4688,263.2426 Q817.8906,263.5395 817.25,263.6801 Q816.6094,263.8364 815.9063,263.8364 Q813.4063,263.8364 812.0781,262.1957 Q810.7656,260.5395 810.7656,257.4145 Q810.7656,254.2895 812.0781,252.6332 Q813.4063,250.977 815.9063,250.977 Q816.6094,250.977 817.25,251.1332 Q817.9063,251.2895 818.4688,251.5864 L818.4688,254.3051 Q817.8438,253.727 817.25,253.4614 Q816.6563,253.1801 816.0313,253.1801 Q814.6875,253.1801 814,254.2582 Q813.3125,255.3207 813.3125,257.4145 Q813.3125,259.5082 814,260.5864 Q814.6875,261.6489 816.0313,261.6489 Q816.6563,261.6489 817.25,261.3832 Q817.8438,261.102 818.4688,260.5239 L818.4688,263.2426 Z " fill="#000000"/><text fill="#000000" font-family="sans-serif" font-size="14" lengthAdjust="spacing" textLength="39" x="829.5" y="263.034">Game</text><line style="stroke:#181818;stroke-width:0.5;" x1="801.5" x2="870.5" y1="273.602" y2="273.602"/><line style="stroke:#181818;stroke-width:0.5;" x1="801.5" x2="870.5" y1="281.602" y2="281.602"/></g><!--link Game to Tetris--><g id="link_Game_Tetris"><path codeLine="24" d="M828.33,241.252 C820.29,220.412 805.63,190.652 783,173.602 C694.6,107.002 564.0463,94.3314 500.1863,92.1014 " fill="none" id="Game-to-Tetris" style="stroke:#181818;stroke-width:1.0;"/><polygon fill="#181818" points="494.19,91.892,503.0449,96.2036,499.187,92.0665,503.3241,88.2085,494.19,91.892" style="stroke:#181818;stroke-width:1.0;"/><text fill="#000000" font-family="sans-serif" font-size="13" lengthAdjust="spacing" textLength="43" x="769" y="161.499">creates</text></g><!--reverse link Tetris to Board--><g id="link_Tetris_Board"><path codeLine="25" d="M411.894,97.4785 C338.624,107.1885 185.46,131.722 150,173.602 C90.36,244.052 108.33,365.702 119.3,416.392 " fill="none" id="Tetris-backto-Board" style="stroke:#181818;stroke-width:1.0;"/><polygon fill="#181818" points="423.79,95.902,417.3165,92.7249,411.894,97.4785,418.3675,100.6556,423.79,95.902" style="stroke:#181818;stroke-width:1.0;"/><text fill="#000000" font-family="sans-serif" font-size="13" lengthAdjust="spacing" textLength="49" x="151" y="270.999">controls</text></g><!--reverse link Tetris to BoardView--><g id="link_Tetris_BoardView"><path codeLine="26" d="M412.3954,104.4004 C385.7854,112.7904 361.11,123.792 336,146.602 C306.88,173.052 287.24,215.212 277.1,241.322 " fill="none" id="Tetris-backto-BoardView" style="stroke:#181818;stroke-width:1.0;"/><polygon fill="#181818" points="423.84,100.792,416.9149,98.7813,412.3954,104.4004,419.3205,106.4111,423.84,100.792" style="stroke:#181818;stroke-width:1.0;"/><text fill="#000000" font-family="sans-serif" font-size="13" lengthAdjust="spacing" textLength="27" x="337" y="161.499">uses</text></g><!--link Tetris to PieceView--><g id="link_Tetris_PieceView"><path codeLine="27" d="M444.66,114.702 C434.67,131.002 421.19,153.452 410,173.602 C376.04,234.772 370.23,251.502 338,313.602 C319.34,349.552 300.2929,385.8417 287.0129,411.0917 " fill="none" id="Tetris-to-PieceView" style="stroke:#181818;stroke-width:1.0;"/><polygon fill="#181818" points="284.22,416.402,291.9496,410.2984,286.5474,411.9767,284.8692,406.5745,284.22,416.402" style="stroke:#181818;stroke-width:1.0;"/><text fill="#000000" font-family="sans-serif" font-size="13" lengthAdjust="spacing" textLength="102" x="411" y="270.999">manages current</text></g><!--link Tetris to Console--><g id="link_Tetris_Console"><path codeLine="28" d="M474.37,114.932 C496.19,148.042 532.5981,203.2923 554.3881,236.3523 " fill="none" id="Tetris-to-Console" style="stroke:#181818;stroke-width:1.0;"/><polygon fill="#181818" points="557.69,241.362,556.0769,231.6461,554.9384,237.1872,549.3973,236.0487,557.69,241.362" style="stroke:#181818;stroke-width:1.0;"/><text fill="#000000" font-family="sans-serif" font-size="13" lengthAdjust="spacing" textLength="27" x="507" y="161.499">uses</text></g><!--link Tetris to PieceFactory--><g id="link_Tetris_PieceFactory"><path codeLine="29" d="M494.19,102.972 C531.24,116.082 590.03,140.192 633,173.602 C657.73,192.832 676.3066,216.6269 689.9766,236.6469 " fill="none" id="Tetris-to-PieceFactory" style="stroke:#181818;stroke-width:1.0;"/><polygon fill="#181818" points="693.36,241.602,691.5883,231.9138,690.5405,237.4728,684.9815,236.425,693.36,241.602" style="stroke:#181818;stroke-width:1.0;"/><text fill="#000000" font-family="sans-serif" font-size="13" lengthAdjust="spacing" textLength="27" x="621" y="161.499">uses</text></g><!--reverse link Board to Piece--><g id="link_Board_Piece"><path codeLine="31" d="M99.2933,474.661 C92.8533,483.971 93.29,485.302 90,496.602 C85.15,513.262 92.19,531.572 100.29,545.552 " fill="none" id="Board-backto-Piece" style="stroke:#181818;stroke-width:1.0;"/><polygon fill="#181818" points="106.12,464.792,99.417,467.4509,99.2933,474.661,105.9963,472.002,106.12,464.792" style="stroke:#181818;stroke-width:1.0;"/><text fill="#000000" font-family="sans-serif" font-size="13" lengthAdjust="spacing" textLength="102" x="91" y="511.499">manages current</text></g><!--reverse link Piece to Position--><g id="link_Piece_Position"><path codeLine="32" d="M114.4663,605.7909 C112.8463,628.2409 111.28,650.102 109.66,672.512 " fill="none" id="Piece-backto-Position" style="stroke:#181818;stroke-width:1.0;"/><polygon fill="#181818" points="115.33,593.822,110.9085,599.5185,114.4663,605.7909,118.8878,600.0943,115.33,593.822" style="stroke:#181818;stroke-width:1.0;"/><text fill="#000000" font-family="sans-serif" font-size="13" lengthAdjust="spacing" textLength="51" x="115" y="638.499">contains</text></g><!--link BoardView to Console--><g id="link_BoardView_Console"><path codeLine="34" d="M281.9,241.312 C295.18,219.142 318.12,187.742 348,173.602 C395.21,151.262 413.29,170.212 465.5,171.602 C482.18,172.042 488.25,165.792 503,173.602 C530.85,188.342 548.1228,214.2678 559.4428,236.2478 " fill="none" id="BoardView-to-Console" style="stroke:#181818;stroke-width:1.0;"/><polygon fill="#181818" points="562.19,241.582,561.6254,231.7493,559.9007,237.1369,554.5132,235.4122,562.19,241.582" style="stroke:#181818;stroke-width:1.0;"/><text fill="#000000" font-family="sans-serif" font-size="13" lengthAdjust="spacing" textLength="27" x="437.5" y="161.499">uses</text></g><!--link BoardView to Board--><g id="link_BoardView_Board"><path codeLine="35" d="M244.43,289.732 C234.65,299.302 223.48,310.702 214,321.602 C186.72,352.972 161.789,386.9894 144.609,411.3394 " fill="none" id="BoardView-to-Board" style="stroke:#181818;stroke-width:1.0;"/><polygon fill="#181818" points="141.15,416.242,149.6069,411.1941,144.0325,412.1565,143.0701,406.5821,141.15,416.242" style="stroke:#181818;stroke-width:1.0;"/><text fill="#000000" font-family="sans-serif" font-size="13" lengthAdjust="spacing" textLength="46" x="215" y="336.499">renders</text></g><!--link BoardView to PieceView--><g id="link_BoardView_PieceView"><path codeLine="36" d="M269.4,289.932 C269.98,323.042 270.9148,377.3029 271.4948,410.3629 " fill="none" id="BoardView-to-PieceView" style="stroke:#181818;stroke-width:1.0;"/><polygon fill="#181818" points="271.6,416.362,275.4415,407.2932,271.5123,411.3628,267.4427,407.4335,271.6,416.362" style="stroke:#181818;stroke-width:1.0;"/><text fill="#000000" font-family="sans-serif" font-size="13" lengthAdjust="spacing" textLength="27" x="272" y="336.499">uses</text></g><!--link PieceView to Piece--><g id="link_PieceView_Piece"><path codeLine="37" d="M251.1,464.862 C236.86,480.112 217.18,500.022 198,515.602 C183.26,527.582 170.8365,536.1295 155.8765,545.4895 " fill="none" id="PieceView-to-Piece" style="stroke:#181818;stroke-width:1.0;"/><polygon fill="#181818" points="150.79,548.672,160.5413,547.2893,155.0287,546.02,156.2981,540.5074,150.79,548.672" style="stroke:#181818;stroke-width:1.0;"/><text fill="#000000" font-family="sans-serif" font-size="13" lengthAdjust="spacing" textLength="46" x="221" y="511.499">renders</text></g><!--link PieceFactory to Piece--><g id="link_PieceFactory_Piece"><path codeLine="39" d="M689.9,289.702 C676.73,305.452 657.79,326.022 638,340.602 C494.14,446.612 442.66,451.112 276,515.602 C233.26,532.142 188.6608,546.6149 156.2508,556.6649 " fill="none" id="PieceFactory-to-Piece" style="stroke:#181818;stroke-width:1.0;stroke-dasharray:7.0,7.0;"/><polygon fill="#181818" points="150.52,558.442,160.3009,559.5969,155.2957,556.9611,157.9315,551.9559,150.52,558.442" style="stroke:#181818;stroke-width:1.0;"/><text fill="#000000" font-family="sans-serif" font-size="13" lengthAdjust="spacing" textLength="43" x="624" y="445.999">creates</text></g><!--link PieceFactory to PieceView--><g id="link_PieceFactory_PieceView"><path codeLine="40" d="M676.93,289.792 C663.95,298.472 648.33,307.662 633,313.602 C614.47,320.782 608.17,316.332 589,321.602 C491.89,348.282 388.1448,389.8319 326.5948,415.9019 " fill="none" id="PieceFactory-to-PieceView" style="stroke:#181818;stroke-width:1.0;stroke-dasharray:7.0,7.0;"/><polygon fill="#181818" points="321.07,418.242,330.9173,418.4151,325.674,416.2919,327.7972,411.0486,321.07,418.242" style="stroke:#181818;stroke-width:1.0;"/><text fill="#000000" font-family="sans-serif" font-size="13" lengthAdjust="spacing" textLength="43" x="590" y="336.499">creates</text></g><!--SRC=[TL5TQyCW57ttLrpoM4X_m1u6MTEDG5P7c_LTx6L8Korg6MFilqyJRJJBygJtd7i-p9NnC_j0UANrjgN031JZiO1l0kxZFJC6dXJJf-J-9f1ZUbT6MA4a-I7a6YIBOtFegWMTey3FkTOmIvStTDVjQLlLT9zBT6YrC1dtlMlQfgxgxI6dRfGqgiUvrpFZLkclPFp2BkWLYJz0MJu65tW0hf5PD2GCLcKvbl2GabQh_Y_copZyPgOzhtalwh0Baoww0NxJ6gLDQI7rVm8XVOJ9cCPx3_22zZWV6E4tXV1Co2Wmn5fmpy7OtCcUKC_HjD-mF0tkSB9CiZhhzSI8RxvC20wHH7u1]--></g></svg>