<?xml version="1.0" encoding="us-ascii" standalone="no"?><svg xmlns="http://www.w3.org/2000/svg" xmlns:xlink="http://www.w3.org/1999/xlink" contentStyleType="text/css" height="855px" preserveAspectRatio="none" style="width:702px;height:855px;background:#FFFFFF;" version="1.1" viewBox="0 0 702 855" width="702px" zoomAndPan="magnify"><defs/><g><!--cluster MODELO--><g id="cluster_MODELO"><path d="M8.5,468 L70.5,468 A3.75,3.75 0 0 1 73,470.5 L80,493.0679 L174.5,493.0679 A2.5,2.5 0 0 1 177,495.5679 L177,845.5 A2.5,2.5 0 0 1 174.5,848 L8.5,848 A2.5,2.5 0 0 1 6,845.5 L6,470.5 A2.5,2.5 0 0 1 8.5,468 " fill="none" style="stroke:#000000;stroke-width:1.5;"/><line style="stroke:#000000;stroke-width:1.5;" x1="6" x2="80" y1="493.0679" y2="493.0679"/><text fill="#000000" font-family="sans-serif" font-size="14" font-weight="bold" lengthAdjust="spacing" textLength="61" x="10" y="484.9659">MODELO</text></g><!--cluster VISTA--><g id="cluster_VISTA"><path d="M203.5,295 L244.5,295 A3.75,3.75 0 0 1 247,297.5 L254,320.0679 L334.5,320.0679 A2.5,2.5 0 0 1 337,322.5679 L337,589.5 A2.5,2.5 0 0 1 334.5,592 L203.5,592 A2.5,2.5 0 0 1 201,589.5 L201,297.5 A2.5,2.5 0 0 1 203.5,295 " fill="none" style="stroke:#000000;stroke-width:1.5;"/><line style="stroke:#000000;stroke-width:1.5;" x1="201" x2="254" y1="320.0679" y2="320.0679"/><text fill="#000000" font-family="sans-serif" font-size="14" font-weight="bold" lengthAdjust="spacing" textLength="40" x="205" y="311.9659">VISTA</text></g><!--cluster CONTROLADOR--><g id="cluster_CONTROLADOR"><path d="M332.5,120 L440.5,120 A3.75,3.75 0 0 1 443,122.5 L450,145.0679 L450.5,145.0679 A2.5,2.5 0 0 1 453,147.5679 L453,241.5 A2.5,2.5 0 0 1 450.5,244 L332.5,244 A2.5,2.5 0 0 1 330,241.5 L330,122.5 A2.5,2.5 0 0 1 332.5,120 " fill="none" style="stroke:#000000;stroke-width:1.5;"/><line style="stroke:#000000;stroke-width:1.5;" x1="330" x2="450" y1="145.0679" y2="145.0679"/><text fill="#000000" font-family="sans-serif" font-size="14" font-weight="bold" lengthAdjust="spacing" textLength="107" x="334" y="136.9659">CONTROLADOR</text></g><!--cluster UTILIDADES--><g id="cluster_UTILIDADES"><path d="M429.5,468 L513.5,468 A3.75,3.75 0 0 1 516,470.5 L523,493.0679 L692.5,493.0679 A2.5,2.5 0 0 1 695,495.5679 L695,589.5 A2.5,2.5 0 0 1 692.5,592 L429.5,592 A2.5,2.5 0 0 1 427,589.5 L427,470.5 A2.5,2.5 0 0 1 429.5,468 " fill="none" style="stroke:#000000;stroke-width:1.5;"/><line style="stroke:#000000;stroke-width:1.5;" x1="427" x2="523" y1="493.0679" y2="493.0679"/><text fill="#000000" font-family="sans-serif" font-size="14" font-weight="bold" lengthAdjust="spacing" textLength="83" x="431" y="484.9659">UTILIDADES</text></g><!--class Board--><g id="elem_Board"><rect codeLine="3" fill="#F1F1F1" height="48" id="Board" rx="2.5" ry="2.5" style="stroke:#181818;stroke-width:0.5;" width="72" x="89" y="528"/><ellipse cx="104" cy="544" fill="#ADD1B2" rx="11" ry="11" style="stroke:#181818;stroke-width:1.0;"/><path d="M106.9688,549.6406 Q106.3906,549.9375 105.75,550.0781 Q105.1094,550.2344 104.4063,550.2344 Q101.9063,550.2344 100.5781,548.5938 Q99.2656,546.9375 99.2656,543.8125 Q99.2656,540.6875 100.5781,539.0313 Q101.9063,537.375 104.4063,537.375 Q105.1094,537.375 105.75,537.5313 Q106.4063,537.6875 106.9688,537.9844 L106.9688,540.7031 Q106.3438,540.125 105.75,539.8594 Q105.1563,539.5781 104.5313,539.5781 Q103.1875,539.5781 102.5,540.6563 Q101.8125,541.7188 101.8125,543.8125 Q101.8125,545.9063 102.5,546.9844 Q103.1875,548.0469 104.5313,548.0469 Q105.1563,548.0469 105.75,547.7813 Q106.3438,547.5 106.9688,546.9219 L106.9688,549.6406 Z " fill="#000000"/><text fill="#000000" font-family="sans-serif" font-size="14" lengthAdjust="spacing" textLength="40" x="118" y="549.432">Board</text><line style="stroke:#181818;stroke-width:0.5;" x1="90" x2="160" y1="560" y2="560"/><line style="stroke:#181818;stroke-width:0.5;" x1="90" x2="160" y1="568" y2="568"/></g><!--class Piece--><g id="elem_Piece"><rect codeLine="4" fill="#F1F1F1" height="48" id="Piece" rx="2.5" ry="2.5" style="stroke:#181818;stroke-width:0.5;" width="67" x="83.5" y="657"/><ellipse cx="98.5" cy="673" fill="#ADD1B2" rx="11" ry="11" style="stroke:#181818;stroke-width:1.0;"/><path d="M101.4688,678.6406 Q100.8906,678.9375 100.25,679.0781 Q99.6094,679.2344 98.9063,679.2344 Q96.4063,679.2344 95.0781,677.5938 Q93.7656,675.9375 93.7656,672.8125 Q93.7656,669.6875 95.0781,668.0313 Q96.4063,666.375 98.9063,666.375 Q99.6094,666.375 100.25,666.5313 Q100.9063,666.6875 101.4688,666.9844 L101.4688,669.7031 Q100.8438,669.125 100.25,668.8594 Q99.6563,668.5781 99.0313,668.5781 Q97.6875,668.5781 97,669.6563 Q96.3125,670.7188 96.3125,672.8125 Q96.3125,674.9063 97,675.9844 Q97.6875,677.0469 99.0313,677.0469 Q99.6563,677.0469 100.25,676.7813 Q100.8438,676.5 101.4688,675.9219 L101.4688,678.6406 Z " fill="#000000"/><text fill="#000000" font-family="sans-serif" font-size="14" lengthAdjust="spacing" textLength="35" x="112.5" y="678.432">Piece</text><line style="stroke:#181818;stroke-width:0.5;" x1="84.5" x2="149.5" y1="689" y2="689"/><line style="stroke:#181818;stroke-width:0.5;" x1="84.5" x2="149.5" y1="697" y2="697"/></g><!--class Position--><g id="elem_Position"><rect codeLine="5" fill="#F1F1F1" height="48" id="Position" rx="2.5" ry="2.5" style="stroke:#181818;stroke-width:0.5;" width="85" x="65.5" y="784"/><ellipse cx="80.5" cy="800" fill="#ADD1B2" rx="11" ry="11" style="stroke:#181818;stroke-width:1.0;"/><path d="M83.4688,805.6406 Q82.8906,805.9375 82.25,806.0781 Q81.6094,806.2344 80.9063,806.2344 Q78.4063,806.2344 77.0781,804.5938 Q75.7656,802.9375 75.7656,799.8125 Q75.7656,796.6875 77.0781,795.0313 Q78.4063,793.375 80.9063,793.375 Q81.6094,793.375 82.25,793.5313 Q82.9063,793.6875 83.4688,793.9844 L83.4688,796.7031 Q82.8438,796.125 82.25,795.8594 Q81.6563,795.5781 81.0313,795.5781 Q79.6875,795.5781 79,796.6563 Q78.3125,797.7188 78.3125,799.8125 Q78.3125,801.9063 79,802.9844 Q79.6875,804.0469 81.0313,804.0469 Q81.6563,804.0469 82.25,803.7813 Q82.8438,803.5 83.4688,802.9219 L83.4688,805.6406 Z " fill="#000000"/><text fill="#000000" font-family="sans-serif" font-size="14" lengthAdjust="spacing" textLength="53" x="94.5" y="805.432">Position</text><line style="stroke:#181818;stroke-width:0.5;" x1="66.5" x2="149.5" y1="816" y2="816"/><line style="stroke:#181818;stroke-width:0.5;" x1="66.5" x2="149.5" y1="824" y2="824"/></g><!--class BoardView--><g id="elem_BoardView"><rect codeLine="9" fill="#F1F1F1" height="48" id="BoardView" rx="2.5" ry="2.5" style="stroke:#181818;stroke-width:0.5;" width="103" x="217.5" y="355"/><ellipse cx="232.5" cy="371" fill="#ADD1B2" rx="11" ry="11" style="stroke:#181818;stroke-width:1.0;"/><path d="M235.4688,376.6406 Q234.8906,376.9375 234.25,377.0781 Q233.6094,377.2344 232.9063,377.2344 Q230.4063,377.2344 229.0781,375.5938 Q227.7656,373.9375 227.7656,370.8125 Q227.7656,367.6875 229.0781,366.0313 Q230.4063,364.375 232.9063,364.375 Q233.6094,364.375 234.25,364.5313 Q234.9063,364.6875 235.4688,364.9844 L235.4688,367.7031 Q234.8438,367.125 234.25,366.8594 Q233.6563,366.5781 233.0313,366.5781 Q231.6875,366.5781 231,367.6563 Q230.3125,368.7188 230.3125,370.8125 Q230.3125,372.9063 231,373.9844 Q231.6875,375.0469 233.0313,375.0469 Q233.6563,375.0469 234.25,374.7813 Q234.8438,374.5 235.4688,373.9219 L235.4688,376.6406 Z " fill="#000000"/><text fill="#000000" font-family="sans-serif" font-size="14" lengthAdjust="spacing" textLength="71" x="246.5" y="376.432">BoardView</text><line style="stroke:#181818;stroke-width:0.5;" x1="218.5" x2="319.5" y1="387" y2="387"/><line style="stroke:#181818;stroke-width:0.5;" x1="218.5" x2="319.5" y1="395" y2="395"/></g><!--class PieceView--><g id="elem_PieceView"><rect codeLine="10" fill="#F1F1F1" height="48" id="PieceView" rx="2.5" ry="2.5" style="stroke:#181818;stroke-width:0.5;" width="98" x="223" y="528"/><ellipse cx="238" cy="544" fill="#ADD1B2" rx="11" ry="11" style="stroke:#181818;stroke-width:1.0;"/><path d="M240.9688,549.6406 Q240.3906,549.9375 239.75,550.0781 Q239.1094,550.2344 238.4063,550.2344 Q235.9063,550.2344 234.5781,548.5938 Q233.2656,546.9375 233.2656,543.8125 Q233.2656,540.6875 234.5781,539.0313 Q235.9063,537.375 238.4063,537.375 Q239.1094,537.375 239.75,537.5313 Q240.4063,537.6875 240.9688,537.9844 L240.9688,540.7031 Q240.3438,540.125 239.75,539.8594 Q239.1563,539.5781 238.5313,539.5781 Q237.1875,539.5781 236.5,540.6563 Q235.8125,541.7188 235.8125,543.8125 Q235.8125,545.9063 236.5,546.9844 Q237.1875,548.0469 238.5313,548.0469 Q239.1563,548.0469 239.75,547.7813 Q240.3438,547.5 240.9688,546.9219 L240.9688,549.6406 Z " fill="#000000"/><text fill="#000000" font-family="sans-serif" font-size="14" lengthAdjust="spacing" textLength="66" x="252" y="549.432">PieceView</text><line style="stroke:#181818;stroke-width:0.5;" x1="224" x2="320" y1="560" y2="560"/><line style="stroke:#181818;stroke-width:0.5;" x1="224" x2="320" y1="568" y2="568"/></g><!--class Tetris--><g id="elem_Tetris"><rect codeLine="14" fill="#F1F1F1" height="48" id="Tetris" rx="2.5" ry="2.5" style="stroke:#181818;stroke-width:0.5;" width="70" x="356" y="180"/><ellipse cx="371" cy="196" fill="#ADD1B2" rx="11" ry="11" style="stroke:#181818;stroke-width:1.0;"/><path d="M373.9688,201.6406 Q373.3906,201.9375 372.75,202.0781 Q372.1094,202.2344 371.4063,202.2344 Q368.9063,202.2344 367.5781,200.5938 Q366.2656,198.9375 366.2656,195.8125 Q366.2656,192.6875 367.5781,191.0313 Q368.9063,189.375 371.4063,189.375 Q372.1094,189.375 372.75,189.5313 Q373.4063,189.6875 373.9688,189.9844 L373.9688,192.7031 Q373.3438,192.125 372.75,191.8594 Q372.1563,191.5781 371.5313,191.5781 Q370.1875,191.5781 369.5,192.6563 Q368.8125,193.7188 368.8125,195.8125 Q368.8125,197.9063 369.5,198.9844 Q370.1875,200.0469 371.5313,200.0469 Q372.1563,200.0469 372.75,199.7813 Q373.3438,199.5 373.9688,198.9219 L373.9688,201.6406 Z " fill="#000000"/><text fill="#000000" font-family="sans-serif" font-size="14" lengthAdjust="spacing" textLength="38" x="385" y="201.432">Tetris</text><line style="stroke:#181818;stroke-width:0.5;" x1="357" x2="425" y1="212" y2="212"/><line style="stroke:#181818;stroke-width:0.5;" x1="357" x2="425" y1="220" y2="220"/></g><!--class PieceFactory--><g id="elem_PieceFactory"><rect codeLine="18" fill="#F1F1F1" height="48" id="PieceFactory" rx="2.5" ry="2.5" style="stroke:#181818;stroke-width:0.5;" width="115" x="563.5" y="528"/><ellipse cx="578.5" cy="544" fill="#ADD1B2" rx="11" ry="11" style="stroke:#181818;stroke-width:1.0;"/><path d="M581.4688,549.6406 Q580.8906,549.9375 580.25,550.0781 Q579.6094,550.2344 578.9063,550.2344 Q576.4063,550.2344 575.0781,548.5938 Q573.7656,546.9375 573.7656,543.8125 Q573.7656,540.6875 575.0781,539.0313 Q576.4063,537.375 578.9063,537.375 Q579.6094,537.375 580.25,537.5313 Q580.9063,537.6875 581.4688,537.9844 L581.4688,540.7031 Q580.8438,540.125 580.25,539.8594 Q579.6563,539.5781 579.0313,539.5781 Q577.6875,539.5781 577,540.6563 Q576.3125,541.7188 576.3125,543.8125 Q576.3125,545.9063 577,546.9844 Q577.6875,548.0469 579.0313,548.0469 Q579.6563,548.0469 580.25,547.7813 Q580.8438,547.5 581.4688,546.9219 L581.4688,549.6406 Z " fill="#000000"/><text fill="#000000" font-family="sans-serif" font-size="14" lengthAdjust="spacing" textLength="83" x="592.5" y="549.432">PieceFactory</text><line style="stroke:#181818;stroke-width:0.5;" x1="564.5" x2="677.5" y1="560" y2="560"/><line style="stroke:#181818;stroke-width:0.5;" x1="564.5" x2="677.5" y1="568" y2="568"/></g><!--class Console--><g id="elem_Console"><rect codeLine="19" fill="#F1F1F1" height="48" id="Console" rx="2.5" ry="2.5" style="stroke:#181818;stroke-width:0.5;" width="85" x="443.5" y="528"/><ellipse cx="458.5" cy="544" fill="#ADD1B2" rx="11" ry="11" style="stroke:#181818;stroke-width:1.0;"/><path d="M461.4688,549.6406 Q460.8906,549.9375 460.25,550.0781 Q459.6094,550.2344 458.9063,550.2344 Q456.4063,550.2344 455.0781,548.5938 Q453.7656,546.9375 453.7656,543.8125 Q453.7656,540.6875 455.0781,539.0313 Q456.4063,537.375 458.9063,537.375 Q459.6094,537.375 460.25,537.5313 Q460.9063,537.6875 461.4688,537.9844 L461.4688,540.7031 Q460.8438,540.125 460.25,539.8594 Q459.6563,539.5781 459.0313,539.5781 Q457.6875,539.5781 457,540.6563 Q456.3125,541.7188 456.3125,543.8125 Q456.3125,545.9063 457,546.9844 Q457.6875,548.0469 459.0313,548.0469 Q459.6563,548.0469 460.25,547.7813 Q460.8438,547.5 461.4688,546.9219 L461.4688,549.6406 Z " fill="#000000"/><text fill="#000000" font-family="sans-serif" font-size="14" lengthAdjust="spacing" textLength="53" x="472.5" y="549.432">Console</text><line style="stroke:#181818;stroke-width:0.5;" x1="444.5" x2="527.5" y1="560" y2="560"/><line style="stroke:#181818;stroke-width:0.5;" x1="444.5" x2="527.5" y1="568" y2="568"/></g><!--class Game--><g id="elem_Game"><rect fill="#F1F1F1" height="48" id="Game" rx="2.5" ry="2.5" style="stroke:#181818;stroke-width:0.5;" width="71" x="355.5" y="7"/><ellipse cx="370.5" cy="23" fill="#ADD1B2" rx="11" ry="11" style="stroke:#181818;stroke-width:1.0;"/><path d="M373.4688,28.6406 Q372.8906,28.9375 372.25,29.0781 Q371.6094,29.2344 370.9063,29.2344 Q368.4063,29.2344 367.0781,27.5938 Q365.7656,25.9375 365.7656,22.8125 Q365.7656,19.6875 367.0781,18.0313 Q368.4063,16.375 370.9063,16.375 Q371.6094,16.375 372.25,16.5313 Q372.9063,16.6875 373.4688,16.9844 L373.4688,19.7031 Q372.8438,19.125 372.25,18.8594 Q371.6563,18.5781 371.0313,18.5781 Q369.6875,18.5781 369,19.6563 Q368.3125,20.7188 368.3125,22.8125 Q368.3125,24.9063 369,25.9844 Q369.6875,27.0469 371.0313,27.0469 Q371.6563,27.0469 372.25,26.7813 Q372.8438,26.5 373.4688,25.9219 L373.4688,28.6406 Z " fill="#000000"/><text fill="#000000" font-family="sans-serif" font-size="14" lengthAdjust="spacing" textLength="39" x="384.5" y="28.432">Game</text><line style="stroke:#181818;stroke-width:0.5;" x1="356.5" x2="425.5" y1="39" y2="39"/><line style="stroke:#181818;stroke-width:0.5;" x1="356.5" x2="425.5" y1="47" y2="47"/></g><!--link Game to Tetris--><g id="link_Game_Tetris"><path codeLine="23" d="M391,55.06 C391,87.7 391,141.02 391,173.76 " fill="none" id="Game-to-Tetris" style="stroke:#181818;stroke-width:1.0;"/><polygon fill="#181818" points="391,179.76,395,170.76,391,174.76,387,170.76,391,179.76" style="stroke:#181818;stroke-width:1.0;"/><text fill="#000000" font-family="sans-serif" font-size="13" lengthAdjust="spacing" textLength="43" x="392" y="99.897">creates</text></g><!--reverse link Tetris to Board--><g id="link_Tetris_Board"><path codeLine="24" d="M343.6409,206.4271 C289.7709,209.6071 200.14,223.54 150,287 C93.35,358.71 109.52,477.94 119.64,527.88 " fill="none" id="Tetris-backto-Board" style="stroke:#181818;stroke-width:1.0;"/><polygon fill="#181818" points="355.62,205.72,349.3947,202.0805,343.6409,206.4271,349.8661,210.0666,355.62,205.72" style="stroke:#181818;stroke-width:1.0;"/><text fill="#000000" font-family="sans-serif" font-size="13" lengthAdjust="spacing" textLength="49" x="151" y="384.397">controls</text></g><!--reverse link Tetris to BoardView--><g id="link_Tetris_BoardView"><path codeLine="25" d="M356.4865,236.384 C346.7465,245.764 344.59,248.72 336,260 C312.73,290.55 291.93,330.03 279.89,354.69 " fill="none" id="Tetris-backto-BoardView" style="stroke:#181818;stroke-width:1.0;"/><polygon fill="#181818" points="365.13,228.06,358.0336,229.3408,356.4865,236.384,363.5829,235.1032,365.13,228.06" style="stroke:#181818;stroke-width:1.0;"/><text fill="#000000" font-family="sans-serif" font-size="13" lengthAdjust="spacing" textLength="27" x="337" y="274.897">uses</text></g><!--link Tetris to PieceView--><g id="link_Tetris_PieceView"><path codeLine="26" d="M386.04,228.23 C377.78,265.59 359.93,341.11 338,403 C321.93,448.35 300.5385,493.7711 286.3385,522.5011 " fill="none" id="Tetris-to-PieceView" style="stroke:#181818;stroke-width:1.0;"/><polygon fill="#181818" points="283.68,527.88,291.2537,521.5841,285.8954,523.3976,284.0819,518.0393,283.68,527.88" style="stroke:#181818;stroke-width:1.0;"/><text fill="#000000" font-family="sans-serif" font-size="13" lengthAdjust="spacing" textLength="102" x="372" y="384.397">manages current</text></g><!--link Tetris to Console--><g id="link_Tetris_Console"><path codeLine="27" d="M426.1,222.02 C451.28,236.03 484,258.25 503,287 C544.27,349.47 554.64,379.23 537,452 C530.26,479.81 517.4935,503.4894 505.1935,522.7994 " fill="none" id="Tetris-to-Console" style="stroke:#181818;stroke-width:1.0;"/><polygon fill="#181818" points="501.97,527.86,510.1789,522.4181,504.6562,523.6429,503.4315,518.1202,501.97,527.86" style="stroke:#181818;stroke-width:1.0;"/><text fill="#000000" font-family="sans-serif" font-size="13" lengthAdjust="spacing" textLength="27" x="546" y="384.397">uses</text></g><!--link Tetris to PieceFactory--><g id="link_Tetris_PieceFactory"><path codeLine="28" d="M426.21,209.67 C470.08,217.47 543.92,237.53 582,287 C637.95,359.7 631.4164,471.9154 625.2564,521.7254 " fill="none" id="Tetris-to-PieceFactory" style="stroke:#181818;stroke-width:1.0;"/><polygon fill="#181818" points="624.52,527.68,629.5944,519.239,625.1337,522.7178,621.6549,518.2571,624.52,527.68" style="stroke:#181818;stroke-width:1.0;"/><text fill="#000000" font-family="sans-serif" font-size="13" lengthAdjust="spacing" textLength="27" x="625" y="384.397">uses</text></g><!--reverse link Board to Piece--><g id="link_Board_Piece"><path codeLine="30" d="M98.633,585.8946 C92.023,595.2046 92.39,596.63 89,608 C84.02,624.71 91.32,643.01 99.71,656.99 " fill="none" id="Board-backto-Piece" style="stroke:#181818;stroke-width:1.0;"/><polygon fill="#181818" points="105.58,576.11,98.845,578.6867,98.633,585.8946,105.3681,583.318,105.58,576.11" style="stroke:#181818;stroke-width:1.0;"/><text fill="#000000" font-family="sans-serif" font-size="13" lengthAdjust="spacing" textLength="102" x="90" y="622.897">manages current</text></g><!--reverse link Piece to Position--><g id="link_Piece_Position"><path codeLine="31" d="M114.4663,717.1889 C112.8463,739.6389 111.28,761.5 109.66,783.91 " fill="none" id="Piece-backto-Position" style="stroke:#181818;stroke-width:1.0;"/><polygon fill="#181818" points="115.33,705.22,110.9085,710.9165,114.4663,717.1889,118.8878,711.4923,115.33,705.22" style="stroke:#181818;stroke-width:1.0;"/><text fill="#000000" font-family="sans-serif" font-size="13" lengthAdjust="spacing" textLength="51" x="115" y="749.897">contains</text></g><!--link BoardView to Console--><g id="link_BoardView_Console"><path codeLine="33" d="M298.27,403.06 C339.68,435.7 410.2473,491.3065 451.7973,524.0465 " fill="none" id="BoardView-to-Console" style="stroke:#181818;stroke-width:1.0;"/><polygon fill="#181818" points="456.51,527.76,451.9165,519.0479,452.5827,524.6654,446.9652,525.3316,456.51,527.76" style="stroke:#181818;stroke-width:1.0;"/><text fill="#000000" font-family="sans-serif" font-size="13" lengthAdjust="spacing" textLength="27" x="359" y="447.897">uses</text></g><!--link BoardView to Board--><g id="link_BoardView_Board"><path codeLine="34" d="M242.72,403.12 C233.02,412.1 222.16,422.7 213,433 C185.32,464.13 160.6028,498.5114 143.8328,522.9714 " fill="none" id="BoardView-to-Board" style="stroke:#181818;stroke-width:1.0;"/><polygon fill="#181818" points="140.44,527.92,148.8283,522.759,143.2673,523.7962,142.2301,518.2352,140.44,527.92" style="stroke:#181818;stroke-width:1.0;"/><text fill="#000000" font-family="sans-serif" font-size="13" lengthAdjust="spacing" textLength="46" x="214" y="447.897">renders</text></g><!--link BoardView to PieceView--><g id="link_BoardView_PieceView"><path codeLine="35" d="M269.4,403.06 C269.98,435.7 270.9156,489.0209 271.4856,521.7609 " fill="none" id="BoardView-to-PieceView" style="stroke:#181818;stroke-width:1.0;"/><polygon fill="#181818" points="271.59,527.76,275.4327,518.6917,271.503,522.7608,267.4339,518.831,271.59,527.76" style="stroke:#181818;stroke-width:1.0;"/><text fill="#000000" font-family="sans-serif" font-size="13" lengthAdjust="spacing" textLength="27" x="271" y="447.897">uses</text></g><!--link PieceView to Piece--><g id="link_PieceView_Piece"><path codeLine="36" d="M250.74,576.2 C236.27,591.42 216.31,611.32 197,627 C182.51,638.76 170.4523,647.1592 155.7723,656.4992 " fill="none" id="PieceView-to-Piece" style="stroke:#181818;stroke-width:1.0;"/><polygon fill="#181818" points="150.71,659.72,160.4506,658.2636,154.9285,657.036,156.1562,651.514,150.71,659.72" style="stroke:#181818;stroke-width:1.0;"/><text fill="#000000" font-family="sans-serif" font-size="13" lengthAdjust="spacing" textLength="46" x="218" y="622.897">renders</text></g><!--link PieceFactory to Piece--><g id="link_PieceFactory_Piece"><path codeLine="38" d="M589.92,576.16 C576.93,584.83 561.32,594.02 546,600 C405.72,654.74 230.6647,672.2711 156.7047,677.5711 " fill="none" id="PieceFactory-to-Piece" style="stroke:#181818;stroke-width:1.0;stroke-dasharray:7.0,7.0;"/><polygon fill="#181818" points="150.72,678,159.9829,681.3465,155.7072,677.6426,159.4111,673.3669,150.72,678" style="stroke:#181818;stroke-width:1.0;"/><text fill="#000000" font-family="sans-serif" font-size="13" lengthAdjust="spacing" textLength="43" x="525" y="622.897">creates</text></g><!--link PieceFactory to PieceView--><g id="link_PieceFactory_PieceView"><path codeLine="39" d="M608.52,527.91 C595.89,506.21 574.21,475.42 546,460 C539.13,456.24 536.32,458.45 528.5,458 C483.45,455.43 470.29,447.29 427,460 C379.56,473.93 336.4412,502.1115 306.7012,524.4015 " fill="none" id="PieceFactory-to-PieceView" style="stroke:#181818;stroke-width:1.0;stroke-dasharray:7.0,7.0;"/><polygon fill="#181818" points="301.9,528,311.5007,525.8031,305.901,525.0013,306.7028,519.4016,301.9,528" style="stroke:#181818;stroke-width:1.0;"/><text fill="#000000" font-family="sans-serif" font-size="13" lengthAdjust="spacing" textLength="43" x="484.5" y="447.897">creates</text></g><!--SRC=[RP51RiCW44Ntd6BaPINd05rKSkEqikIMAd6pHsHKeJWG0L5LLRrx0KCCYLcP-N_U_35dne_i2-6DjfkU0ZDGJPyL_19mXu_C67XMJ1-o-uT0ZlbT6M65akIFa7D4LljkDpGBdBt0xrjMgENDQ_e-R6dVj7HR8WQqMfZ2-pbqVTSsxMPNMWFvXN6hz4zMNYjfr8WUGLxP2Q6kdo8M7e5hP1ODYOM7kfvIUqb9gzLuh_dqJh-OkSyphvivxSIaosg0NxH6QMURyyL0TuI4Y2iadKnv_FGWBz2dUd34budncP09488jZ2_5jBl37b3Vglc6eNakNEMicHJhh5Qp8_trPKESa4pa7m00]--></g></svg>