<?xml version="1.0" encoding="us-ascii" standalone="no"?><svg xmlns="http://www.w3.org/2000/svg" xmlns:xlink="http://www.w3.org/1999/xlink" contentStyleType="text/css" height="443px" preserveAspectRatio="none" style="width:689px;height:443px;background:#FFFFFF;" version="1.1" viewBox="0 0 689 443" width="689px" zoomAndPan="magnify"><defs/><g><!--class Juego--><g id="elem_Juego"><rect fill="#F1F1F1" height="48" id="Juego" rx="2.5" ry="2.5" style="stroke:#181818;stroke-width:0.5;" width="70" x="141" y="7"/><ellipse cx="156" cy="23" fill="#ADD1B2" rx="11" ry="11" style="stroke:#181818;stroke-width:1.0;"/><path d="M158.9688,28.6406 Q158.3906,28.9375 157.75,29.0781 Q157.1094,29.2344 156.4063,29.2344 Q153.9063,29.2344 152.5781,27.5938 Q151.2656,25.9375 151.2656,22.8125 Q151.2656,19.6875 152.5781,18.0313 Q153.9063,16.375 156.4063,16.375 Q157.1094,16.375 157.75,16.5313 Q158.4063,16.6875 158.9688,16.9844 L158.9688,19.7031 Q158.3438,19.125 157.75,18.8594 Q157.1563,18.5781 156.5313,18.5781 Q155.1875,18.5781 154.5,19.6563 Q153.8125,20.7188 153.8125,22.8125 Q153.8125,24.9063 154.5,25.9844 Q155.1875,27.0469 156.5313,27.0469 Q157.1563,27.0469 157.75,26.7813 Q158.3438,26.5 158.9688,25.9219 L158.9688,28.6406 Z " fill="#000000"/><text fill="#000000" font-family="sans-serif" font-size="14" lengthAdjust="spacing" textLength="38" x="170" y="28.432">Juego</text><line style="stroke:#181818;stroke-width:0.5;" x1="142" x2="210" y1="39" y2="39"/><line style="stroke:#181818;stroke-width:0.5;" x1="142" x2="210" y1="47" y2="47"/></g><!--class Tablero--><g id="elem_Tablero"><rect fill="#F1F1F1" height="48" id="Tablero" rx="2.5" ry="2.5" style="stroke:#181818;stroke-width:0.5;" width="83" x="20.5" y="134"/><ellipse cx="35.5" cy="150" fill="#ADD1B2" rx="11" ry="11" style="stroke:#181818;stroke-width:1.0;"/><path d="M38.4688,155.6406 Q37.8906,155.9375 37.25,156.0781 Q36.6094,156.2344 35.9063,156.2344 Q33.4063,156.2344 32.0781,154.5938 Q30.7656,152.9375 30.7656,149.8125 Q30.7656,146.6875 32.0781,145.0313 Q33.4063,143.375 35.9063,143.375 Q36.6094,143.375 37.25,143.5313 Q37.9063,143.6875 38.4688,143.9844 L38.4688,146.7031 Q37.8438,146.125 37.25,145.8594 Q36.6563,145.5781 36.0313,145.5781 Q34.6875,145.5781 34,146.6563 Q33.3125,147.7188 33.3125,149.8125 Q33.3125,151.9063 34,152.9844 Q34.6875,154.0469 36.0313,154.0469 Q36.6563,154.0469 37.25,153.7813 Q37.8438,153.5 38.4688,152.9219 L38.4688,155.6406 Z " fill="#000000"/><text fill="#000000" font-family="sans-serif" font-size="14" lengthAdjust="spacing" textLength="51" x="49.5" y="155.432">Tablero</text><line style="stroke:#181818;stroke-width:0.5;" x1="21.5" x2="102.5" y1="166" y2="166"/><line style="stroke:#181818;stroke-width:0.5;" x1="21.5" x2="102.5" y1="174" y2="174"/></g><!--class Pieza--><g id="elem_Pieza"><rect fill="#F1F1F1" height="48" id="Pieza" rx="2.5" ry="2.5" style="stroke:#181818;stroke-width:0.5;" width="67" x="158.5" y="261"/><ellipse cx="173.5" cy="277" fill="#ADD1B2" rx="11" ry="11" style="stroke:#181818;stroke-width:1.0;"/><path d="M176.4688,282.6406 Q175.8906,282.9375 175.25,283.0781 Q174.6094,283.2344 173.9063,283.2344 Q171.4063,283.2344 170.0781,281.5938 Q168.7656,279.9375 168.7656,276.8125 Q168.7656,273.6875 170.0781,272.0313 Q171.4063,270.375 173.9063,270.375 Q174.6094,270.375 175.25,270.5313 Q175.9063,270.6875 176.4688,270.9844 L176.4688,273.7031 Q175.8438,273.125 175.25,272.8594 Q174.6563,272.5781 174.0313,272.5781 Q172.6875,272.5781 172,273.6563 Q171.3125,274.7188 171.3125,276.8125 Q171.3125,278.9063 172,279.9844 Q172.6875,281.0469 174.0313,281.0469 Q174.6563,281.0469 175.25,280.7813 Q175.8438,280.5 176.4688,279.9219 L176.4688,282.6406 Z " fill="#000000"/><text fill="#000000" font-family="sans-serif" font-size="14" lengthAdjust="spacing" textLength="35" x="187.5" y="282.432">Pieza</text><line style="stroke:#181818;stroke-width:0.5;" x1="159.5" x2="224.5" y1="293" y2="293"/><line style="stroke:#181818;stroke-width:0.5;" x1="159.5" x2="224.5" y1="301" y2="301"/></g><!--class Turno--><g id="elem_Turno"><rect fill="#F1F1F1" height="48" id="Turno" rx="2.5" ry="2.5" style="stroke:#181818;stroke-width:0.5;" width="72" x="349" y="134"/><ellipse cx="364" cy="150" fill="#ADD1B2" rx="11" ry="11" style="stroke:#181818;stroke-width:1.0;"/><path d="M366.9688,155.6406 Q366.3906,155.9375 365.75,156.0781 Q365.1094,156.2344 364.4063,156.2344 Q361.9063,156.2344 360.5781,154.5938 Q359.2656,152.9375 359.2656,149.8125 Q359.2656,146.6875 360.5781,145.0313 Q361.9063,143.375 364.4063,143.375 Q365.1094,143.375 365.75,143.5313 Q366.4063,143.6875 366.9688,143.9844 L366.9688,146.7031 Q366.3438,146.125 365.75,145.8594 Q365.1563,145.5781 364.5313,145.5781 Q363.1875,145.5781 362.5,146.6563 Q361.8125,147.7188 361.8125,149.8125 Q361.8125,151.9063 362.5,152.9844 Q363.1875,154.0469 364.5313,154.0469 Q365.1563,154.0469 365.75,153.7813 Q366.3438,153.5 366.9688,152.9219 L366.9688,155.6406 Z " fill="#000000"/><text fill="#000000" font-family="sans-serif" font-size="14" lengthAdjust="spacing" textLength="40" x="378" y="155.432">Turno</text><line style="stroke:#181818;stroke-width:0.5;" x1="350" x2="420" y1="166" y2="166"/><line style="stroke:#181818;stroke-width:0.5;" x1="350" x2="420" y1="174" y2="174"/></g><!--class Linea--><g id="elem_Linea"><rect fill="#F1F1F1" height="48" id="Linea" rx="2.5" ry="2.5" style="stroke:#181818;stroke-width:0.5;" width="68" x="7" y="261"/><ellipse cx="22" cy="277" fill="#ADD1B2" rx="11" ry="11" style="stroke:#181818;stroke-width:1.0;"/><path d="M24.9688,282.6406 Q24.3906,282.9375 23.75,283.0781 Q23.1094,283.2344 22.4063,283.2344 Q19.9063,283.2344 18.5781,281.5938 Q17.2656,279.9375 17.2656,276.8125 Q17.2656,273.6875 18.5781,272.0313 Q19.9063,270.375 22.4063,270.375 Q23.1094,270.375 23.75,270.5313 Q24.4063,270.6875 24.9688,270.9844 L24.9688,273.7031 Q24.3438,273.125 23.75,272.8594 Q23.1563,272.5781 22.5313,272.5781 Q21.1875,272.5781 20.5,273.6563 Q19.8125,274.7188 19.8125,276.8125 Q19.8125,278.9063 20.5,279.9844 Q21.1875,281.0469 22.5313,281.0469 Q23.1563,281.0469 23.75,280.7813 Q24.3438,280.5 24.9688,279.9219 L24.9688,282.6406 Z " fill="#000000"/><text fill="#000000" font-family="sans-serif" font-size="14" lengthAdjust="spacing" textLength="36" x="36" y="282.432">Linea</text><line style="stroke:#181818;stroke-width:0.5;" x1="8" x2="74" y1="293" y2="293"/><line style="stroke:#181818;stroke-width:0.5;" x1="8" x2="74" y1="301" y2="301"/></g><!--class TipoPieza--><g id="elem_TipoPieza"><rect fill="#F1F1F1" height="48" id="TipoPieza" rx="2.5" ry="2.5" style="stroke:#181818;stroke-width:0.5;" width="96" x="164" y="388"/><ellipse cx="179" cy="404" fill="#ADD1B2" rx="11" ry="11" style="stroke:#181818;stroke-width:1.0;"/><path d="M181.9688,409.6406 Q181.3906,409.9375 180.75,410.0781 Q180.1094,410.2344 179.4063,410.2344 Q176.9063,410.2344 175.5781,408.5938 Q174.2656,406.9375 174.2656,403.8125 Q174.2656,400.6875 175.5781,399.0313 Q176.9063,397.375 179.4063,397.375 Q180.1094,397.375 180.75,397.5313 Q181.4063,397.6875 181.9688,397.9844 L181.9688,400.7031 Q181.3438,400.125 180.75,399.8594 Q180.1563,399.5781 179.5313,399.5781 Q178.1875,399.5781 177.5,400.6563 Q176.8125,401.7188 176.8125,403.8125 Q176.8125,405.9063 177.5,406.9844 Q178.1875,408.0469 179.5313,408.0469 Q180.1563,408.0469 180.75,407.7813 Q181.3438,407.5 181.9688,406.9219 L181.9688,409.6406 Z " fill="#000000"/><text fill="#000000" font-family="sans-serif" font-size="14" lengthAdjust="spacing" textLength="64" x="193" y="409.432">TipoPieza</text><line style="stroke:#181818;stroke-width:0.5;" x1="165" x2="259" y1="420" y2="420"/><line style="stroke:#181818;stroke-width:0.5;" x1="165" x2="259" y1="428" y2="428"/></g><!--class Celda--><g id="elem_Celda"><rect fill="#F1F1F1" height="48" id="Celda" rx="2.5" ry="2.5" style="stroke:#181818;stroke-width:0.5;" width="70" x="32" y="388"/><ellipse cx="47" cy="404" fill="#ADD1B2" rx="11" ry="11" style="stroke:#181818;stroke-width:1.0;"/><path d="M49.9688,409.6406 Q49.3906,409.9375 48.75,410.0781 Q48.1094,410.2344 47.4063,410.2344 Q44.9063,410.2344 43.5781,408.5938 Q42.2656,406.9375 42.2656,403.8125 Q42.2656,400.6875 43.5781,399.0313 Q44.9063,397.375 47.4063,397.375 Q48.1094,397.375 48.75,397.5313 Q49.4063,397.6875 49.9688,397.9844 L49.9688,400.7031 Q49.3438,400.125 48.75,399.8594 Q48.1563,399.5781 47.5313,399.5781 Q46.1875,399.5781 45.5,400.6563 Q44.8125,401.7188 44.8125,403.8125 Q44.8125,405.9063 45.5,406.9844 Q46.1875,408.0469 47.5313,408.0469 Q48.1563,408.0469 48.75,407.7813 Q49.3438,407.5 49.9688,406.9219 L49.9688,409.6406 Z " fill="#000000"/><text fill="#000000" font-family="sans-serif" font-size="14" lengthAdjust="spacing" textLength="38" x="61" y="409.432">Celda</text><line style="stroke:#181818;stroke-width:0.5;" x1="33" x2="101" y1="420" y2="420"/><line style="stroke:#181818;stroke-width:0.5;" x1="33" x2="101" y1="428" y2="428"/></g><!--class Movimiento--><g id="elem_Movimiento"><rect fill="#F1F1F1" height="48" id="Movimiento" rx="2.5" ry="2.5" style="stroke:#181818;stroke-width:0.5;" width="111" x="333.5" y="261"/><ellipse cx="348.5" cy="277" fill="#ADD1B2" rx="11" ry="11" style="stroke:#181818;stroke-width:1.0;"/><path d="M351.4688,282.6406 Q350.8906,282.9375 350.25,283.0781 Q349.6094,283.2344 348.9063,283.2344 Q346.4063,283.2344 345.0781,281.5938 Q343.7656,279.9375 343.7656,276.8125 Q343.7656,273.6875 345.0781,272.0313 Q346.4063,270.375 348.9063,270.375 Q349.6094,270.375 350.25,270.5313 Q350.9063,270.6875 351.4688,270.9844 L351.4688,273.7031 Q350.8438,273.125 350.25,272.8594 Q349.6563,272.5781 349.0313,272.5781 Q347.6875,272.5781 347,273.6563 Q346.3125,274.7188 346.3125,276.8125 Q346.3125,278.9063 347,279.9844 Q347.6875,281.0469 349.0313,281.0469 Q349.6563,281.0469 350.25,280.7813 Q350.8438,280.5 351.4688,279.9219 L351.4688,282.6406 Z " fill="#000000"/><text fill="#000000" font-family="sans-serif" font-size="14" lengthAdjust="spacing" textLength="79" x="362.5" y="282.432">Movimiento</text><line style="stroke:#181818;stroke-width:0.5;" x1="334.5" x2="443.5" y1="293" y2="293"/><line style="stroke:#181818;stroke-width:0.5;" x1="334.5" x2="443.5" y1="301" y2="301"/></g><!--class MovimientoAutomatico--><g id="elem_MovimientoAutomatico"><rect fill="#F1F1F1" height="48" id="MovimientoAutomatico" rx="2.5" ry="2.5" style="stroke:#181818;stroke-width:0.5;" width="187" x="295.5" y="388"/><ellipse cx="310.5" cy="404" fill="#ADD1B2" rx="11" ry="11" style="stroke:#181818;stroke-width:1.0;"/><path d="M313.4688,409.6406 Q312.8906,409.9375 312.25,410.0781 Q311.6094,410.2344 310.9063,410.2344 Q308.4063,410.2344 307.0781,408.5938 Q305.7656,406.9375 305.7656,403.8125 Q305.7656,400.6875 307.0781,399.0313 Q308.4063,397.375 310.9063,397.375 Q311.6094,397.375 312.25,397.5313 Q312.9063,397.6875 313.4688,397.9844 L313.4688,400.7031 Q312.8438,400.125 312.25,399.8594 Q311.6563,399.5781 311.0313,399.5781 Q309.6875,399.5781 309,400.6563 Q308.3125,401.7188 308.3125,403.8125 Q308.3125,405.9063 309,406.9844 Q309.6875,408.0469 311.0313,408.0469 Q311.6563,408.0469 312.25,407.7813 Q312.8438,407.5 313.4688,406.9219 L313.4688,409.6406 Z " fill="#000000"/><text fill="#000000" font-family="sans-serif" font-size="14" lengthAdjust="spacing" textLength="155" x="324.5" y="409.432">MovimientoAutomatico</text><line style="stroke:#181818;stroke-width:0.5;" x1="296.5" x2="481.5" y1="420" y2="420"/><line style="stroke:#181818;stroke-width:0.5;" x1="296.5" x2="481.5" y1="428" y2="428"/></g><!--class MovimientoDirigido--><g id="elem_MovimientoDirigido"><rect fill="#F1F1F1" height="48" id="MovimientoDirigido" rx="2.5" ry="2.5" style="stroke:#181818;stroke-width:0.5;" width="165" x="517.5" y="388"/><ellipse cx="532.5" cy="404" fill="#ADD1B2" rx="11" ry="11" style="stroke:#181818;stroke-width:1.0;"/><path d="M535.4688,409.6406 Q534.8906,409.9375 534.25,410.0781 Q533.6094,410.2344 532.9063,410.2344 Q530.4063,410.2344 529.0781,408.5938 Q527.7656,406.9375 527.7656,403.8125 Q527.7656,400.6875 529.0781,399.0313 Q530.4063,397.375 532.9063,397.375 Q533.6094,397.375 534.25,397.5313 Q534.9063,397.6875 535.4688,397.9844 L535.4688,400.7031 Q534.8438,400.125 534.25,399.8594 Q533.6563,399.5781 533.0313,399.5781 Q531.6875,399.5781 531,400.6563 Q530.3125,401.7188 530.3125,403.8125 Q530.3125,405.9063 531,406.9844 Q531.6875,408.0469 533.0313,408.0469 Q533.6563,408.0469 534.25,407.7813 Q534.8438,407.5 535.4688,406.9219 L535.4688,409.6406 Z " fill="#000000"/><text fill="#000000" font-family="sans-serif" font-size="14" lengthAdjust="spacing" textLength="133" x="546.5" y="409.432">MovimientoDirigido</text><line style="stroke:#181818;stroke-width:0.5;" x1="518.5" x2="681.5" y1="420" y2="420"/><line style="stroke:#181818;stroke-width:0.5;" x1="518.5" x2="681.5" y1="428" y2="428"/></g><!--reverse link Juego to Tablero--><g id="link_Juego_Tablero"><path codeLine="2" d="M129.4791,48.4098 C109.2491,56.8698 96.05,65.6 81,85 C70.14,98.99 65.46,118.63 63.46,133.86 " fill="none" id="Juego-backto-Tablero" style="stroke:#181818;stroke-width:1.0;"/><polygon fill="#181818" points="140.55,43.78,133.4713,42.4046,129.4791,48.4098,136.5578,49.7852,140.55,43.78" style="stroke:#181818;stroke-width:1.0;"/><text fill="#000000" font-family="sans-serif" font-size="13" lengthAdjust="spacing" textLength="67" x="82" y="99.897">se juega en</text><text fill="#000000" font-family="sans-serif" font-size="13" lengthAdjust="spacing" textLength="7" x="125.8817" y="41.5891">1</text><text fill="#000000" font-family="sans-serif" font-size="13" lengthAdjust="spacing" textLength="7" x="55.9118" y="122.0799">1</text></g><!--reverse link Juego to Pieza--><g id="link_Juego_Pieza"><path codeLine="3" d="M178.2385,67.236 C181.2785,115.236 187.48,212.84 190.53,260.8 " fill="none" id="Juego-backto-Pieza" style="stroke:#181818;stroke-width:1.0;"/><polygon fill="none" points="177.48,55.26,173.8672,61.5008,178.2385,67.236,181.8512,60.9952,177.48,55.26" style="stroke:#181818;stroke-width:1.0;"/><text fill="#000000" font-family="sans-serif" font-size="13" lengthAdjust="spacing" textLength="136" x="187" y="163.397">contiene piezas activas</text><text fill="#000000" font-family="sans-serif" font-size="13" lengthAdjust="spacing" textLength="7" x="170.0129" y="76.8144">1</text><text fill="#000000" font-family="sans-serif" font-size="13" lengthAdjust="spacing" textLength="20" x="167.4474" y="249.0038">0..*</text></g><!--reverse link Juego to Turno--><g id="link_Juego_Turno"><path codeLine="4" d="M221.7482,59.3601 C259.9482,82.2101 310.13,112.22 348.67,135.27 " fill="none" id="Juego-backto-Turno" style="stroke:#181818;stroke-width:1.0;"/><polygon fill="#181818" points="211.45,53.2,214.5458,59.7128,221.7482,59.3601,218.6525,52.8473,211.45,53.2" style="stroke:#181818;stroke-width:1.0;"/><text fill="#000000" font-family="sans-serif" font-size="13" lengthAdjust="spacing" textLength="136" x="295" y="99.897">se desarrolla en turnos</text><text fill="#000000" font-family="sans-serif" font-size="13" lengthAdjust="spacing" textLength="7" x="219.1183" y="52.8637">1</text><text fill="#000000" font-family="sans-serif" font-size="13" lengthAdjust="spacing" textLength="20" x="320.9966" y="127.053">1..*</text></g><!--reverse link Tablero to Linea--><g id="link_Tablero_Linea"><path codeLine="6" d="M56.1127,194.0543 C52.3427,216.5043 48.64,238.5 44.88,260.91 " fill="none" id="Tablero-backto-Linea" style="stroke:#181818;stroke-width:1.0;"/><polygon fill="#181818" points="58.1,182.22,53.1616,187.4747,56.1127,194.0543,61.0511,188.7996,58.1,182.22" style="stroke:#181818;stroke-width:1.0;"/><text fill="#000000" font-family="sans-serif" font-size="13" lengthAdjust="spacing" textLength="92" x="54" y="226.897">compuesto por</text><text fill="#000000" font-family="sans-serif" font-size="13" lengthAdjust="spacing" textLength="7" x="49.3888" y="203.7651">1</text><text fill="#000000" font-family="sans-serif" font-size="13" lengthAdjust="spacing" textLength="14" x="30.0415" y="249.1433">20</text></g><!--link Pieza to TipoPieza--><g id="link_Pieza_TipoPieza"><path codeLine="8" d="M195.71,309.22 C199.31,331.67 203.7735,359.5751 207.3535,381.9851 " fill="none" id="Pieza-to-TipoPieza" style="stroke:#181818;stroke-width:1.0;"/><polygon fill="#181818" points="208.3,387.91,210.8302,378.3917,207.5113,382.9726,202.9303,379.6537,208.3,387.91" style="stroke:#181818;stroke-width:1.0;"/><text fill="#000000" font-family="sans-serif" font-size="13" lengthAdjust="spacing" textLength="58" x="205" y="353.897">es de tipo</text><text fill="#000000" font-family="sans-serif" font-size="13" lengthAdjust="spacing" textLength="7" x="188.7586" y="330.7651">*</text><text fill="#000000" font-family="sans-serif" font-size="13" lengthAdjust="spacing" textLength="7" x="199.365" y="376.1433">1</text></g><!--link Pieza to Celda--><g id="link_Pieza_Celda"><path codeLine="9" d="M168.78,309.22 C146.33,331.67 116.7426,361.2574 94.3326,383.6674 " fill="none" id="Pieza-to-Celda" style="stroke:#181818;stroke-width:1.0;"/><polygon fill="#181818" points="90.09,387.91,99.2824,384.3745,93.6255,384.3745,93.6255,378.7176,90.09,387.91" style="stroke:#181818;stroke-width:1.0;"/><text fill="#000000" font-family="sans-serif" font-size="13" lengthAdjust="spacing" textLength="37" x="138" y="353.897">ocupa</text><text fill="#000000" font-family="sans-serif" font-size="13" lengthAdjust="spacing" textLength="7" x="155.601" y="330.7651">1</text><text fill="#000000" font-family="sans-serif" font-size="13" lengthAdjust="spacing" textLength="20" x="73.6079" y="376.1433">1..4</text></g><!--link Turno to Pieza--><g id="link_Turno_Pieza"><path codeLine="11" d="M349.15,182.22 C313.83,205.09 265.3162,236.5187 230.7562,258.8987 " fill="none" id="Turno-to-Pieza" style="stroke:#181818;stroke-width:1.0;"/><polygon fill="#181818" points="225.72,262.16,235.4486,260.6255,229.9169,259.4422,231.1002,253.9105,225.72,262.16" style="stroke:#181818;stroke-width:1.0;"/><text fill="#000000" font-family="sans-serif" font-size="13" lengthAdjust="spacing" textLength="55" x="302" y="226.897">involucra</text><text fill="#000000" font-family="sans-serif" font-size="13" lengthAdjust="spacing" textLength="7" x="334.0341" y="202.9383">1</text><text fill="#000000" font-family="sans-serif" font-size="13" lengthAdjust="spacing" textLength="7" x="233.3966" y="252.6659">1</text></g><!--reverse link Turno to Movimiento--><g id="link_Turno_Movimiento"><path codeLine="12" d="M386.1247,194.2138 C386.8447,216.6638 387.54,238.5 388.26,260.91 " fill="none" id="Turno-backto-Movimiento" style="stroke:#181818;stroke-width:1.0;"/><polygon fill="none" points="385.74,182.22,381.9344,188.3451,386.1247,194.2138,389.9303,188.0887,385.74,182.22" style="stroke:#181818;stroke-width:1.0;"/><text fill="#000000" font-family="sans-serif" font-size="13" lengthAdjust="spacing" textLength="47" x="389" y="226.897">permite</text><text fill="#000000" font-family="sans-serif" font-size="13" lengthAdjust="spacing" textLength="7" x="378.1018" y="203.7651">1</text><text fill="#000000" font-family="sans-serif" font-size="13" lengthAdjust="spacing" textLength="20" x="365.3736" y="249.1433">0..*</text></g><!--reverse link Movimiento to MovimientoAutomatico--><g id="link_Movimiento_MovimientoAutomatico"><path codeLine="14" d="M389,327.22 C389,349.67 389,365.5 389,387.91 " fill="none" id="Movimiento-backto-MovimientoAutomatico" style="stroke:#181818;stroke-width:1.0;"/><polygon fill="none" points="389,309.22,383,327.22,395,327.22,389,309.22" style="stroke:#181818;stroke-width:1.0;"/><text fill="#000000" font-family="sans-serif" font-size="13" lengthAdjust="spacing" textLength="43" x="390" y="353.897">ejecuta</text></g><!--reverse link Movimiento to MovimientoDirigido--><g id="link_Movimiento_MovimientoDirigido"><path codeLine="15" d="M443.6769,318.3936 C481.5769,340.8436 523.19,365.5 561.02,387.91 " fill="none" id="Movimiento-backto-MovimientoDirigido" style="stroke:#181818;stroke-width:1.0;"/><polygon fill="none" points="428.19,309.22,440.619,323.5559,446.7348,313.2313,428.19,309.22" style="stroke:#181818;stroke-width:1.0;"/><text fill="#000000" font-family="sans-serif" font-size="13" lengthAdjust="spacing" textLength="47" x="509" y="353.897">permite</text></g><!--reverse link Linea to Celda--><g id="link_Linea_Celda"><path codeLine="17" d="M33.561,320.9106 C31.131,335.2206 31.67,342.04 36,358 C38.84,368.49 44.34,379.04 49.93,387.93 " fill="none" id="Linea-backto-Celda" style="stroke:#181818;stroke-width:1.0;"/><polygon fill="#181818" points="35.57,309.08,30.622,314.3257,33.561,320.9106,38.5091,315.665,35.57,309.08" style="stroke:#181818;stroke-width:1.0;"/><text fill="#000000" font-family="sans-serif" font-size="13" lengthAdjust="spacing" textLength="52" x="37" y="353.897">contiene</text><text fill="#000000" font-family="sans-serif" font-size="13" lengthAdjust="spacing" textLength="7" x="26.3933" y="331.0044">1</text><text fill="#000000" font-family="sans-serif" font-size="13" lengthAdjust="spacing" textLength="14" x="29.4612" y="376.1687">10</text></g><!--SRC=[TP5DQiGm38NtEONmSY0XKxegfL3QrT125tC1rn63XiGo_ibYcCDNTkea5Beobh-dzoIV4buOr571eMtBUTRV8tg69r01uIhl6j2gvhIIdCc-wmuAlWXlEgE6RIIq22vN0cWJQTPXBriCYkoSlAqE0mRjFOzZje6ONqJMr1Yhyg5Ny44MV-qcbp141iTUw2M7ajPj-xACGOxNT1Z41gAKL4MF5UswHmLlE0w5P9ESplObuKRjHYKxyvYC5soZTZlvv9acsKKi4phq4qMKbhlwyrtmxVwQ8aywaYaAlA99KRh_BtWdJnSQ_XWiszbMtU_cgl-ZcXy0]--></g></svg>